M48
; DRILL file {KiCad 8.0.1} date 2025-02-14T15:05:35+0800
; FORMAT={-:-/ absolute / metric / decimal}
; #@! TF.CreationDate,2025-02-14T15:05:35+08:00
; #@! TF.GenerationSoftware,Kicad,Pcbnew,8.0.1
; #@! TF.FileFunction,Plated,1,2,PTH
FMAT,2
METRIC
; #@! TA.AperFunction,Plated,PTH,ViaDrill
T1C0.300
; #@! TA.AperFunction,Plated,PTH,ComponentDrill
T2C0.700
; #@! TA.AperFunction,Plated,PTH,ComponentDrill
T3C1.000
; #@! TA.AperFunction,Plated,PTH,ComponentDrill
T4C1.100
; #@! TA.AperFunction,Plated,PTH,ComponentDrill
T5C3.200
%
G90
G05
T1
X131.0Y-89.5
X131.0Y-122.5
X133.0Y-89.5
X133.0Y-122.5
X135.0Y-89.5
X135.0Y-122.5
X135.25Y-115.4
X136.55Y-115.03
X137.0Y-89.5
X137.0Y-122.5
X139.0Y-89.5
X139.0Y-95.0
X139.0Y-122.5
X139.503Y-116.035
X140.0Y-95.0
X140.65Y-94.55
X140.85Y-91.15
X141.0Y-89.5
X141.0Y-122.5
X143.0Y-89.5
X143.0Y-122.5
X143.5Y-107.35
X143.8Y-95.85
X144.724Y-112.326
X144.75Y-95.85
X145.0Y-89.5
X145.0Y-122.5
X145.5Y-92.58
X145.5Y-98.751
X146.14Y-112.55
X146.305Y-103.503
X147.0Y-122.5
X149.0Y-122.5
X149.8Y-111.85
X150.0Y-93.0
X150.0Y-94.0
X150.0Y-95.0
X150.0Y-96.0
X150.0Y-97.0
X150.0Y-98.0
X150.0Y-99.0
X150.0Y-100.0
X151.0Y-92.4
X151.0Y-100.0
X151.0Y-122.5
X151.8Y-111.85
X152.0Y-92.4
X152.0Y-100.0
X153.0Y-92.4
X153.0Y-100.0
X153.0Y-122.5
X153.8Y-111.85
X154.0Y-92.4
X154.0Y-100.0
X155.0Y-92.4
X155.0Y-100.0
X155.0Y-122.5
X155.6Y-111.85
X156.0Y-92.4
X156.0Y-100.0
X157.0Y-92.4
X157.0Y-100.0
X157.0Y-122.5
X158.0Y-93.0
X158.0Y-94.0
X158.0Y-95.0
X158.0Y-96.0
X158.0Y-97.0
X158.0Y-98.0
X158.0Y-99.0
X158.0Y-100.0
X159.0Y-122.5
X161.0Y-122.5
X162.0Y-89.5
X162.6Y-96.7
X163.0Y-122.5
X163.4Y-96.7
X164.0Y-89.5
X164.15Y-99.45
X164.15Y-104.55
X164.799Y-101.528
X165.0Y-122.5
X165.4Y-100.9
X166.0Y-89.5
X166.0Y-109.45
X166.6Y-101.178
X166.6Y-110.05
X166.76Y-99.45
X167.0Y-102.45
X167.0Y-122.5
X167.2Y-104.85
X167.6Y-110.05
X167.8Y-91.65
X168.0Y-89.5
X168.0Y-102.45
X168.6Y-101.738
X169.0Y-102.45
X169.0Y-122.5
X169.9Y-98.3
X170.0Y-89.5
X170.6Y-100.35
X171.0Y-122.5
X172.0Y-89.5
X173.0Y-122.5
X173.5Y-100.3
X174.0Y-89.5
X175.0Y-122.5
T2
X135.9Y-113.05
X135.9Y-117.85
X140.2Y-113.05
X140.2Y-117.85
T3
X127.5Y-101.6
X127.56Y-97.0
X130.0Y-101.6
X130.1Y-97.0
X155.325Y-120.15
X157.865Y-120.15
X160.405Y-120.15
X162.945Y-120.15
X165.485Y-120.15
X172.35Y-99.2
X172.35Y-101.7
X172.35Y-107.6
X172.35Y-110.1
T4
X137.4Y-100.9
X137.4Y-105.4
X143.9Y-100.9
X143.9Y-105.4
X154.5Y-104.2
X154.5Y-108.7
X161.0Y-104.2
X161.0Y-108.7
T5
X128.1Y-92.1
X128.1Y-120.1
X178.1Y-92.1
X178.1Y-120.1
M30
