%TF.GenerationSoftware,KiCad,Pcbnew,8.0.1*%
%TF.CreationDate,2025-02-14T15:05:20+08:00*%
%TF.ProjectId,SpeakerDriver,53706561-6b65-4724-9472-697665722e6b,rev?*%
%TF.SameCoordinates,Original*%
%TF.FileFunction,Legend,Top*%
%TF.FilePolarity,Positive*%
%FSLAX46Y46*%
G04 Gerber Fmt 4.6, Leading zero omitted, Abs format (unit mm)*
G04 Created by KiCad (PCBNEW 8.0.1) date 2025-02-14 15:05:20*
%MOMM*%
%LPD*%
G01*
G04 APERTURE LIST*
G04 Aperture macros list*
%AMRoundRect*
0 Rectangle with rounded corners*
0 $1 Rounding radius*
0 $2 $3 $4 $5 $6 $7 $8 $9 X,Y pos of 4 corners*
0 Add a 4 corners polygon primitive as box body*
4,1,4,$2,$3,$4,$5,$6,$7,$8,$9,$2,$3,0*
0 Add four circle primitives for the rounded corners*
1,1,$1+$1,$2,$3*
1,1,$1+$1,$4,$5*
1,1,$1+$1,$6,$7*
1,1,$1+$1,$8,$9*
0 Add four rect primitives between the rounded corners*
20,1,$1+$1,$2,$3,$4,$5,0*
20,1,$1+$1,$4,$5,$6,$7,0*
20,1,$1+$1,$6,$7,$8,$9,0*
20,1,$1+$1,$8,$9,$2,$3,0*%
%AMFreePoly0*
4,1,19,0.500000,-0.750000,0.000000,-0.750000,0.000000,-0.744911,-0.071157,-0.744911,-0.207708,-0.704816,-0.327430,-0.627875,-0.420627,-0.520320,-0.479746,-0.390866,-0.500000,-0.250000,-0.500000,0.250000,-0.479746,0.390866,-0.420627,0.520320,-0.327430,0.627875,-0.207708,0.704816,-0.071157,0.744911,0.000000,0.744911,0.000000,0.750000,0.500000,0.750000,0.500000,-0.750000,0.500000,-0.750000,
$1*%
%AMFreePoly1*
4,1,19,0.000000,0.744911,0.071157,0.744911,0.207708,0.704816,0.327430,0.627875,0.420627,0.520320,0.479746,0.390866,0.500000,0.250000,0.500000,-0.250000,0.479746,-0.390866,0.420627,-0.520320,0.327430,-0.627875,0.207708,-0.704816,0.071157,-0.744911,0.000000,-0.744911,0.000000,-0.750000,-0.500000,-0.750000,-0.500000,0.750000,0.000000,0.750000,0.000000,0.744911,0.000000,0.744911,
$1*%
%AMFreePoly2*
4,1,6,0.500000,-0.100000,0.500000,-0.500000,-0.500000,-0.500000,-0.500000,0.500000,-0.100000,0.500000,0.500000,-0.100000,0.500000,-0.100000,$1*%
G04 Aperture macros list end*
%ADD10C,0.112500*%
%ADD11C,0.125000*%
%ADD12C,0.200000*%
%ADD13C,0.100000*%
%ADD14C,0.360000*%
%ADD15C,0.150000*%
%ADD16C,0.120000*%
%ADD17C,2.000000*%
%ADD18RoundRect,0.225000X-0.250000X0.225000X-0.250000X-0.225000X0.250000X-0.225000X0.250000X0.225000X0*%
%ADD19RoundRect,0.140000X-0.140000X-0.170000X0.140000X-0.170000X0.140000X0.170000X-0.140000X0.170000X0*%
%ADD20RoundRect,0.140000X0.170000X-0.140000X0.170000X0.140000X-0.170000X0.140000X-0.170000X-0.140000X0*%
%ADD21C,0.310000*%
%ADD22RoundRect,0.250000X1.000000X0.650000X-1.000000X0.650000X-1.000000X-0.650000X1.000000X-0.650000X0*%
%ADD23RoundRect,0.150000X0.150000X-0.825000X0.150000X0.825000X-0.150000X0.825000X-0.150000X-0.825000X0*%
%ADD24RoundRect,0.250000X0.750000X-0.600000X0.750000X0.600000X-0.750000X0.600000X-0.750000X-0.600000X0*%
%ADD25O,2.000000X1.700000*%
%ADD26RoundRect,0.150000X-0.587500X-0.150000X0.587500X-0.150000X0.587500X0.150000X-0.587500X0.150000X0*%
%ADD27C,5.600000*%
%ADD28R,1.700000X1.700000*%
%ADD29O,1.700000X1.700000*%
%ADD30RoundRect,0.135000X0.135000X0.185000X-0.135000X0.185000X-0.135000X-0.185000X0.135000X-0.185000X0*%
%ADD31RoundRect,0.135000X-0.185000X0.135000X-0.185000X-0.135000X0.185000X-0.135000X0.185000X0.135000X0*%
%ADD32RoundRect,0.250000X-0.600000X-0.750000X0.600000X-0.750000X0.600000X0.750000X-0.600000X0.750000X0*%
%ADD33O,1.700000X2.000000*%
%ADD34FreePoly0,90.000000*%
%ADD35FreePoly1,90.000000*%
%ADD36RoundRect,0.150000X0.587500X0.150000X-0.587500X0.150000X-0.587500X-0.150000X0.587500X-0.150000X0*%
%ADD37FreePoly0,270.000000*%
%ADD38FreePoly1,270.000000*%
%ADD39RoundRect,0.140000X-0.170000X0.140000X-0.170000X-0.140000X0.170000X-0.140000X0.170000X0.140000X0*%
%ADD40RoundRect,0.250000X-0.650000X1.000000X-0.650000X-1.000000X0.650000X-1.000000X0.650000X1.000000X0*%
%ADD41RoundRect,0.150000X-0.512500X-0.150000X0.512500X-0.150000X0.512500X0.150000X-0.512500X0.150000X0*%
%ADD42C,0.660000*%
%ADD43O,0.580000X1.000000*%
%ADD44RoundRect,0.075000X-0.425000X0.075000X-0.425000X-0.075000X0.425000X-0.075000X0.425000X0.075000X0*%
%ADD45C,1.100000*%
%ADD46RoundRect,0.135000X-0.135000X-0.185000X0.135000X-0.185000X0.135000X0.185000X-0.135000X0.185000X0*%
%ADD47R,0.800000X0.400000*%
%ADD48R,0.400000X0.800000*%
%ADD49FreePoly2,90.000000*%
%ADD50R,1.000000X1.000000*%
G04 APERTURE END LIST*
D10*
X132545441Y-122741150D02*
X132674013Y-122784007D01*
X132674013Y-122784007D02*
X132888298Y-122784007D01*
X132888298Y-122784007D02*
X132974013Y-122741150D01*
X132974013Y-122741150D02*
X133016870Y-122698292D01*
X133016870Y-122698292D02*
X133059727Y-122612578D01*
X133059727Y-122612578D02*
X133059727Y-122526864D01*
X133059727Y-122526864D02*
X133016870Y-122441150D01*
X133016870Y-122441150D02*
X132974013Y-122398292D01*
X132974013Y-122398292D02*
X132888298Y-122355435D01*
X132888298Y-122355435D02*
X132716870Y-122312578D01*
X132716870Y-122312578D02*
X132631155Y-122269721D01*
X132631155Y-122269721D02*
X132588298Y-122226864D01*
X132588298Y-122226864D02*
X132545441Y-122141150D01*
X132545441Y-122141150D02*
X132545441Y-122055435D01*
X132545441Y-122055435D02*
X132588298Y-121969721D01*
X132588298Y-121969721D02*
X132631155Y-121926864D01*
X132631155Y-121926864D02*
X132716870Y-121884007D01*
X132716870Y-121884007D02*
X132931155Y-121884007D01*
X132931155Y-121884007D02*
X133059727Y-121926864D01*
X133445441Y-122184007D02*
X133445441Y-123084007D01*
X133445441Y-122226864D02*
X133531156Y-122184007D01*
X133531156Y-122184007D02*
X133702584Y-122184007D01*
X133702584Y-122184007D02*
X133788298Y-122226864D01*
X133788298Y-122226864D02*
X133831156Y-122269721D01*
X133831156Y-122269721D02*
X133874013Y-122355435D01*
X133874013Y-122355435D02*
X133874013Y-122612578D01*
X133874013Y-122612578D02*
X133831156Y-122698292D01*
X133831156Y-122698292D02*
X133788298Y-122741150D01*
X133788298Y-122741150D02*
X133702584Y-122784007D01*
X133702584Y-122784007D02*
X133531156Y-122784007D01*
X133531156Y-122784007D02*
X133445441Y-122741150D01*
X134602584Y-122741150D02*
X134516870Y-122784007D01*
X134516870Y-122784007D02*
X134345442Y-122784007D01*
X134345442Y-122784007D02*
X134259727Y-122741150D01*
X134259727Y-122741150D02*
X134216870Y-122655435D01*
X134216870Y-122655435D02*
X134216870Y-122312578D01*
X134216870Y-122312578D02*
X134259727Y-122226864D01*
X134259727Y-122226864D02*
X134345442Y-122184007D01*
X134345442Y-122184007D02*
X134516870Y-122184007D01*
X134516870Y-122184007D02*
X134602584Y-122226864D01*
X134602584Y-122226864D02*
X134645442Y-122312578D01*
X134645442Y-122312578D02*
X134645442Y-122398292D01*
X134645442Y-122398292D02*
X134216870Y-122484007D01*
X135416871Y-122784007D02*
X135416871Y-122312578D01*
X135416871Y-122312578D02*
X135374013Y-122226864D01*
X135374013Y-122226864D02*
X135288299Y-122184007D01*
X135288299Y-122184007D02*
X135116871Y-122184007D01*
X135116871Y-122184007D02*
X135031156Y-122226864D01*
X135416871Y-122741150D02*
X135331156Y-122784007D01*
X135331156Y-122784007D02*
X135116871Y-122784007D01*
X135116871Y-122784007D02*
X135031156Y-122741150D01*
X135031156Y-122741150D02*
X134988299Y-122655435D01*
X134988299Y-122655435D02*
X134988299Y-122569721D01*
X134988299Y-122569721D02*
X135031156Y-122484007D01*
X135031156Y-122484007D02*
X135116871Y-122441150D01*
X135116871Y-122441150D02*
X135331156Y-122441150D01*
X135331156Y-122441150D02*
X135416871Y-122398292D01*
X135845442Y-122784007D02*
X135845442Y-121884007D01*
X135931157Y-122441150D02*
X136188299Y-122784007D01*
X136188299Y-122184007D02*
X135845442Y-122526864D01*
X136916870Y-122741150D02*
X136831156Y-122784007D01*
X136831156Y-122784007D02*
X136659728Y-122784007D01*
X136659728Y-122784007D02*
X136574013Y-122741150D01*
X136574013Y-122741150D02*
X136531156Y-122655435D01*
X136531156Y-122655435D02*
X136531156Y-122312578D01*
X136531156Y-122312578D02*
X136574013Y-122226864D01*
X136574013Y-122226864D02*
X136659728Y-122184007D01*
X136659728Y-122184007D02*
X136831156Y-122184007D01*
X136831156Y-122184007D02*
X136916870Y-122226864D01*
X136916870Y-122226864D02*
X136959728Y-122312578D01*
X136959728Y-122312578D02*
X136959728Y-122398292D01*
X136959728Y-122398292D02*
X136531156Y-122484007D01*
X137345442Y-122784007D02*
X137345442Y-122184007D01*
X137345442Y-122355435D02*
X137388299Y-122269721D01*
X137388299Y-122269721D02*
X137431157Y-122226864D01*
X137431157Y-122226864D02*
X137516871Y-122184007D01*
X137516871Y-122184007D02*
X137602585Y-122184007D01*
X138888299Y-122312578D02*
X139016871Y-122355435D01*
X139016871Y-122355435D02*
X139059728Y-122398292D01*
X139059728Y-122398292D02*
X139102585Y-122484007D01*
X139102585Y-122484007D02*
X139102585Y-122612578D01*
X139102585Y-122612578D02*
X139059728Y-122698292D01*
X139059728Y-122698292D02*
X139016871Y-122741150D01*
X139016871Y-122741150D02*
X138931156Y-122784007D01*
X138931156Y-122784007D02*
X138588299Y-122784007D01*
X138588299Y-122784007D02*
X138588299Y-121884007D01*
X138588299Y-121884007D02*
X138888299Y-121884007D01*
X138888299Y-121884007D02*
X138974014Y-121926864D01*
X138974014Y-121926864D02*
X139016871Y-121969721D01*
X139016871Y-121969721D02*
X139059728Y-122055435D01*
X139059728Y-122055435D02*
X139059728Y-122141150D01*
X139059728Y-122141150D02*
X139016871Y-122226864D01*
X139016871Y-122226864D02*
X138974014Y-122269721D01*
X138974014Y-122269721D02*
X138888299Y-122312578D01*
X138888299Y-122312578D02*
X138588299Y-122312578D01*
X139616871Y-122784007D02*
X139531156Y-122741150D01*
X139531156Y-122741150D02*
X139488299Y-122698292D01*
X139488299Y-122698292D02*
X139445442Y-122612578D01*
X139445442Y-122612578D02*
X139445442Y-122355435D01*
X139445442Y-122355435D02*
X139488299Y-122269721D01*
X139488299Y-122269721D02*
X139531156Y-122226864D01*
X139531156Y-122226864D02*
X139616871Y-122184007D01*
X139616871Y-122184007D02*
X139745442Y-122184007D01*
X139745442Y-122184007D02*
X139831156Y-122226864D01*
X139831156Y-122226864D02*
X139874014Y-122269721D01*
X139874014Y-122269721D02*
X139916871Y-122355435D01*
X139916871Y-122355435D02*
X139916871Y-122612578D01*
X139916871Y-122612578D02*
X139874014Y-122698292D01*
X139874014Y-122698292D02*
X139831156Y-122741150D01*
X139831156Y-122741150D02*
X139745442Y-122784007D01*
X139745442Y-122784007D02*
X139616871Y-122784007D01*
X140216871Y-122784007D02*
X140688300Y-122184007D01*
X140216871Y-122184007D02*
X140688300Y-122784007D01*
X142188299Y-121926864D02*
X142102585Y-121884007D01*
X142102585Y-121884007D02*
X141974013Y-121884007D01*
X141974013Y-121884007D02*
X141845442Y-121926864D01*
X141845442Y-121926864D02*
X141759727Y-122012578D01*
X141759727Y-122012578D02*
X141716870Y-122098292D01*
X141716870Y-122098292D02*
X141674013Y-122269721D01*
X141674013Y-122269721D02*
X141674013Y-122398292D01*
X141674013Y-122398292D02*
X141716870Y-122569721D01*
X141716870Y-122569721D02*
X141759727Y-122655435D01*
X141759727Y-122655435D02*
X141845442Y-122741150D01*
X141845442Y-122741150D02*
X141974013Y-122784007D01*
X141974013Y-122784007D02*
X142059727Y-122784007D01*
X142059727Y-122784007D02*
X142188299Y-122741150D01*
X142188299Y-122741150D02*
X142231156Y-122698292D01*
X142231156Y-122698292D02*
X142231156Y-122398292D01*
X142231156Y-122398292D02*
X142059727Y-122398292D01*
X142959727Y-122741150D02*
X142874013Y-122784007D01*
X142874013Y-122784007D02*
X142702585Y-122784007D01*
X142702585Y-122784007D02*
X142616870Y-122741150D01*
X142616870Y-122741150D02*
X142574013Y-122655435D01*
X142574013Y-122655435D02*
X142574013Y-122312578D01*
X142574013Y-122312578D02*
X142616870Y-122226864D01*
X142616870Y-122226864D02*
X142702585Y-122184007D01*
X142702585Y-122184007D02*
X142874013Y-122184007D01*
X142874013Y-122184007D02*
X142959727Y-122226864D01*
X142959727Y-122226864D02*
X143002585Y-122312578D01*
X143002585Y-122312578D02*
X143002585Y-122398292D01*
X143002585Y-122398292D02*
X142574013Y-122484007D01*
X143388299Y-122184007D02*
X143388299Y-122784007D01*
X143388299Y-122269721D02*
X143431156Y-122226864D01*
X143431156Y-122226864D02*
X143516871Y-122184007D01*
X143516871Y-122184007D02*
X143645442Y-122184007D01*
X143645442Y-122184007D02*
X143731156Y-122226864D01*
X143731156Y-122226864D02*
X143774014Y-122312578D01*
X143774014Y-122312578D02*
X143774014Y-122784007D01*
X144159728Y-121969721D02*
X144202585Y-121926864D01*
X144202585Y-121926864D02*
X144288300Y-121884007D01*
X144288300Y-121884007D02*
X144502585Y-121884007D01*
X144502585Y-121884007D02*
X144588300Y-121926864D01*
X144588300Y-121926864D02*
X144631157Y-121969721D01*
X144631157Y-121969721D02*
X144674014Y-122055435D01*
X144674014Y-122055435D02*
X144674014Y-122141150D01*
X144674014Y-122141150D02*
X144631157Y-122269721D01*
X144631157Y-122269721D02*
X144116871Y-122784007D01*
X144116871Y-122784007D02*
X144674014Y-122784007D01*
X145745442Y-122312578D02*
X146045442Y-122312578D01*
X146174014Y-122784007D02*
X145745442Y-122784007D01*
X145745442Y-122784007D02*
X145745442Y-121884007D01*
X145745442Y-121884007D02*
X146174014Y-121884007D01*
X146474014Y-122184007D02*
X146688300Y-122784007D01*
X146688300Y-122784007D02*
X146902585Y-122184007D01*
X147631157Y-122784007D02*
X147631157Y-122312578D01*
X147631157Y-122312578D02*
X147588299Y-122226864D01*
X147588299Y-122226864D02*
X147502585Y-122184007D01*
X147502585Y-122184007D02*
X147331157Y-122184007D01*
X147331157Y-122184007D02*
X147245442Y-122226864D01*
X147631157Y-122741150D02*
X147545442Y-122784007D01*
X147545442Y-122784007D02*
X147331157Y-122784007D01*
X147331157Y-122784007D02*
X147245442Y-122741150D01*
X147245442Y-122741150D02*
X147202585Y-122655435D01*
X147202585Y-122655435D02*
X147202585Y-122569721D01*
X147202585Y-122569721D02*
X147245442Y-122484007D01*
X147245442Y-122484007D02*
X147331157Y-122441150D01*
X147331157Y-122441150D02*
X147545442Y-122441150D01*
X147545442Y-122441150D02*
X147631157Y-122398292D01*
X148188300Y-122784007D02*
X148102585Y-122741150D01*
X148102585Y-122741150D02*
X148059728Y-122655435D01*
X148059728Y-122655435D02*
X148059728Y-121884007D01*
X149131157Y-122184007D02*
X149345443Y-122784007D01*
X149345443Y-122784007D02*
X149559728Y-122184007D01*
X150074014Y-121884007D02*
X150159728Y-121884007D01*
X150159728Y-121884007D02*
X150245442Y-121926864D01*
X150245442Y-121926864D02*
X150288300Y-121969721D01*
X150288300Y-121969721D02*
X150331157Y-122055435D01*
X150331157Y-122055435D02*
X150374014Y-122226864D01*
X150374014Y-122226864D02*
X150374014Y-122441150D01*
X150374014Y-122441150D02*
X150331157Y-122612578D01*
X150331157Y-122612578D02*
X150288300Y-122698292D01*
X150288300Y-122698292D02*
X150245442Y-122741150D01*
X150245442Y-122741150D02*
X150159728Y-122784007D01*
X150159728Y-122784007D02*
X150074014Y-122784007D01*
X150074014Y-122784007D02*
X149988300Y-122741150D01*
X149988300Y-122741150D02*
X149945442Y-122698292D01*
X149945442Y-122698292D02*
X149902585Y-122612578D01*
X149902585Y-122612578D02*
X149859728Y-122441150D01*
X149859728Y-122441150D02*
X149859728Y-122226864D01*
X149859728Y-122226864D02*
X149902585Y-122055435D01*
X149902585Y-122055435D02*
X149945442Y-121969721D01*
X149945442Y-121969721D02*
X149988300Y-121926864D01*
X149988300Y-121926864D02*
X150074014Y-121884007D01*
X150759728Y-122698292D02*
X150802585Y-122741150D01*
X150802585Y-122741150D02*
X150759728Y-122784007D01*
X150759728Y-122784007D02*
X150716871Y-122741150D01*
X150716871Y-122741150D02*
X150759728Y-122698292D01*
X150759728Y-122698292D02*
X150759728Y-122784007D01*
X151659728Y-122784007D02*
X151145442Y-122784007D01*
X151402585Y-122784007D02*
X151402585Y-121884007D01*
X151402585Y-121884007D02*
X151316871Y-122012578D01*
X151316871Y-122012578D02*
X151231156Y-122098292D01*
X151231156Y-122098292D02*
X151145442Y-122141150D01*
D11*
X157019048Y-122585404D02*
X157495238Y-122585404D01*
X156923810Y-122871119D02*
X157257143Y-121871119D01*
X157257143Y-121871119D02*
X157590476Y-122871119D01*
X157923810Y-121871119D02*
X157923810Y-122680642D01*
X157923810Y-122680642D02*
X157971429Y-122775880D01*
X157971429Y-122775880D02*
X158019048Y-122823500D01*
X158019048Y-122823500D02*
X158114286Y-122871119D01*
X158114286Y-122871119D02*
X158304762Y-122871119D01*
X158304762Y-122871119D02*
X158400000Y-122823500D01*
X158400000Y-122823500D02*
X158447619Y-122775880D01*
X158447619Y-122775880D02*
X158495238Y-122680642D01*
X158495238Y-122680642D02*
X158495238Y-121871119D01*
X158876191Y-121871119D02*
X159542857Y-122871119D01*
X159542857Y-121871119D02*
X158876191Y-122871119D01*
X161209524Y-121918738D02*
X161114286Y-121871119D01*
X161114286Y-121871119D02*
X160971429Y-121871119D01*
X160971429Y-121871119D02*
X160828572Y-121918738D01*
X160828572Y-121918738D02*
X160733334Y-122013976D01*
X160733334Y-122013976D02*
X160685715Y-122109214D01*
X160685715Y-122109214D02*
X160638096Y-122299690D01*
X160638096Y-122299690D02*
X160638096Y-122442547D01*
X160638096Y-122442547D02*
X160685715Y-122633023D01*
X160685715Y-122633023D02*
X160733334Y-122728261D01*
X160733334Y-122728261D02*
X160828572Y-122823500D01*
X160828572Y-122823500D02*
X160971429Y-122871119D01*
X160971429Y-122871119D02*
X161066667Y-122871119D01*
X161066667Y-122871119D02*
X161209524Y-122823500D01*
X161209524Y-122823500D02*
X161257143Y-122775880D01*
X161257143Y-122775880D02*
X161257143Y-122442547D01*
X161257143Y-122442547D02*
X161066667Y-122442547D01*
X161685715Y-122871119D02*
X161685715Y-121871119D01*
X161685715Y-121871119D02*
X162066667Y-121871119D01*
X162066667Y-121871119D02*
X162161905Y-121918738D01*
X162161905Y-121918738D02*
X162209524Y-121966357D01*
X162209524Y-121966357D02*
X162257143Y-122061595D01*
X162257143Y-122061595D02*
X162257143Y-122204452D01*
X162257143Y-122204452D02*
X162209524Y-122299690D01*
X162209524Y-122299690D02*
X162161905Y-122347309D01*
X162161905Y-122347309D02*
X162066667Y-122394928D01*
X162066667Y-122394928D02*
X161685715Y-122394928D01*
X162685715Y-122871119D02*
X162685715Y-121871119D01*
X163352381Y-121871119D02*
X163542857Y-121871119D01*
X163542857Y-121871119D02*
X163638095Y-121918738D01*
X163638095Y-121918738D02*
X163733333Y-122013976D01*
X163733333Y-122013976D02*
X163780952Y-122204452D01*
X163780952Y-122204452D02*
X163780952Y-122537785D01*
X163780952Y-122537785D02*
X163733333Y-122728261D01*
X163733333Y-122728261D02*
X163638095Y-122823500D01*
X163638095Y-122823500D02*
X163542857Y-122871119D01*
X163542857Y-122871119D02*
X163352381Y-122871119D01*
X163352381Y-122871119D02*
X163257143Y-122823500D01*
X163257143Y-122823500D02*
X163161905Y-122728261D01*
X163161905Y-122728261D02*
X163114286Y-122537785D01*
X163114286Y-122537785D02*
X163114286Y-122204452D01*
X163114286Y-122204452D02*
X163161905Y-122013976D01*
X163161905Y-122013976D02*
X163257143Y-121918738D01*
X163257143Y-121918738D02*
X163352381Y-121871119D01*
D12*
X155180548Y-117667219D02*
X155180548Y-116667219D01*
X155180548Y-116667219D02*
X155418643Y-116667219D01*
X155418643Y-116667219D02*
X155561500Y-116714838D01*
X155561500Y-116714838D02*
X155656738Y-116810076D01*
X155656738Y-116810076D02*
X155704357Y-116905314D01*
X155704357Y-116905314D02*
X155751976Y-117095790D01*
X155751976Y-117095790D02*
X155751976Y-117238647D01*
X155751976Y-117238647D02*
X155704357Y-117429123D01*
X155704357Y-117429123D02*
X155656738Y-117524361D01*
X155656738Y-117524361D02*
X155561500Y-117619600D01*
X155561500Y-117619600D02*
X155418643Y-117667219D01*
X155418643Y-117667219D02*
X155180548Y-117667219D01*
X156609119Y-117667219D02*
X156609119Y-117143409D01*
X156609119Y-117143409D02*
X156561500Y-117048171D01*
X156561500Y-117048171D02*
X156466262Y-117000552D01*
X156466262Y-117000552D02*
X156275786Y-117000552D01*
X156275786Y-117000552D02*
X156180548Y-117048171D01*
X156609119Y-117619600D02*
X156513881Y-117667219D01*
X156513881Y-117667219D02*
X156275786Y-117667219D01*
X156275786Y-117667219D02*
X156180548Y-117619600D01*
X156180548Y-117619600D02*
X156132929Y-117524361D01*
X156132929Y-117524361D02*
X156132929Y-117429123D01*
X156132929Y-117429123D02*
X156180548Y-117333885D01*
X156180548Y-117333885D02*
X156275786Y-117286266D01*
X156275786Y-117286266D02*
X156513881Y-117286266D01*
X156513881Y-117286266D02*
X156609119Y-117238647D01*
X157513881Y-117000552D02*
X157513881Y-117667219D01*
X157085310Y-117000552D02*
X157085310Y-117524361D01*
X157085310Y-117524361D02*
X157132929Y-117619600D01*
X157132929Y-117619600D02*
X157228167Y-117667219D01*
X157228167Y-117667219D02*
X157371024Y-117667219D01*
X157371024Y-117667219D02*
X157466262Y-117619600D01*
X157466262Y-117619600D02*
X157513881Y-117571980D01*
X158418643Y-117000552D02*
X158418643Y-117810076D01*
X158418643Y-117810076D02*
X158371024Y-117905314D01*
X158371024Y-117905314D02*
X158323405Y-117952933D01*
X158323405Y-117952933D02*
X158228167Y-118000552D01*
X158228167Y-118000552D02*
X158085310Y-118000552D01*
X158085310Y-118000552D02*
X157990072Y-117952933D01*
X158418643Y-117619600D02*
X158323405Y-117667219D01*
X158323405Y-117667219D02*
X158132929Y-117667219D01*
X158132929Y-117667219D02*
X158037691Y-117619600D01*
X158037691Y-117619600D02*
X157990072Y-117571980D01*
X157990072Y-117571980D02*
X157942453Y-117476742D01*
X157942453Y-117476742D02*
X157942453Y-117191028D01*
X157942453Y-117191028D02*
X157990072Y-117095790D01*
X157990072Y-117095790D02*
X158037691Y-117048171D01*
X158037691Y-117048171D02*
X158132929Y-117000552D01*
X158132929Y-117000552D02*
X158323405Y-117000552D01*
X158323405Y-117000552D02*
X158418643Y-117048171D01*
X158894834Y-117667219D02*
X158894834Y-116667219D01*
X159323405Y-117667219D02*
X159323405Y-117143409D01*
X159323405Y-117143409D02*
X159275786Y-117048171D01*
X159275786Y-117048171D02*
X159180548Y-117000552D01*
X159180548Y-117000552D02*
X159037691Y-117000552D01*
X159037691Y-117000552D02*
X158942453Y-117048171D01*
X158942453Y-117048171D02*
X158894834Y-117095790D01*
X159656739Y-117000552D02*
X160037691Y-117000552D01*
X159799596Y-116667219D02*
X159799596Y-117524361D01*
X159799596Y-117524361D02*
X159847215Y-117619600D01*
X159847215Y-117619600D02*
X159942453Y-117667219D01*
X159942453Y-117667219D02*
X160037691Y-117667219D01*
X160751977Y-117619600D02*
X160656739Y-117667219D01*
X160656739Y-117667219D02*
X160466263Y-117667219D01*
X160466263Y-117667219D02*
X160371025Y-117619600D01*
X160371025Y-117619600D02*
X160323406Y-117524361D01*
X160323406Y-117524361D02*
X160323406Y-117143409D01*
X160323406Y-117143409D02*
X160371025Y-117048171D01*
X160371025Y-117048171D02*
X160466263Y-117000552D01*
X160466263Y-117000552D02*
X160656739Y-117000552D01*
X160656739Y-117000552D02*
X160751977Y-117048171D01*
X160751977Y-117048171D02*
X160799596Y-117143409D01*
X160799596Y-117143409D02*
X160799596Y-117238647D01*
X160799596Y-117238647D02*
X160323406Y-117333885D01*
X161228168Y-117667219D02*
X161228168Y-117000552D01*
X161228168Y-117191028D02*
X161275787Y-117095790D01*
X161275787Y-117095790D02*
X161323406Y-117048171D01*
X161323406Y-117048171D02*
X161418644Y-117000552D01*
X161418644Y-117000552D02*
X161513882Y-117000552D01*
X161847216Y-117667219D02*
X161847216Y-116667219D01*
X161847216Y-117048171D02*
X161942454Y-117000552D01*
X161942454Y-117000552D02*
X162132930Y-117000552D01*
X162132930Y-117000552D02*
X162228168Y-117048171D01*
X162228168Y-117048171D02*
X162275787Y-117095790D01*
X162275787Y-117095790D02*
X162323406Y-117191028D01*
X162323406Y-117191028D02*
X162323406Y-117476742D01*
X162323406Y-117476742D02*
X162275787Y-117571980D01*
X162275787Y-117571980D02*
X162228168Y-117619600D01*
X162228168Y-117619600D02*
X162132930Y-117667219D01*
X162132930Y-117667219D02*
X161942454Y-117667219D01*
X161942454Y-117667219D02*
X161847216Y-117619600D01*
X162894835Y-117667219D02*
X162799597Y-117619600D01*
X162799597Y-117619600D02*
X162751978Y-117571980D01*
X162751978Y-117571980D02*
X162704359Y-117476742D01*
X162704359Y-117476742D02*
X162704359Y-117191028D01*
X162704359Y-117191028D02*
X162751978Y-117095790D01*
X162751978Y-117095790D02*
X162799597Y-117048171D01*
X162799597Y-117048171D02*
X162894835Y-117000552D01*
X162894835Y-117000552D02*
X163037692Y-117000552D01*
X163037692Y-117000552D02*
X163132930Y-117048171D01*
X163132930Y-117048171D02*
X163180549Y-117095790D01*
X163180549Y-117095790D02*
X163228168Y-117191028D01*
X163228168Y-117191028D02*
X163228168Y-117476742D01*
X163228168Y-117476742D02*
X163180549Y-117571980D01*
X163180549Y-117571980D02*
X163132930Y-117619600D01*
X163132930Y-117619600D02*
X163037692Y-117667219D01*
X163037692Y-117667219D02*
X162894835Y-117667219D01*
X164085311Y-117667219D02*
X164085311Y-117143409D01*
X164085311Y-117143409D02*
X164037692Y-117048171D01*
X164037692Y-117048171D02*
X163942454Y-117000552D01*
X163942454Y-117000552D02*
X163751978Y-117000552D01*
X163751978Y-117000552D02*
X163656740Y-117048171D01*
X164085311Y-117619600D02*
X163990073Y-117667219D01*
X163990073Y-117667219D02*
X163751978Y-117667219D01*
X163751978Y-117667219D02*
X163656740Y-117619600D01*
X163656740Y-117619600D02*
X163609121Y-117524361D01*
X163609121Y-117524361D02*
X163609121Y-117429123D01*
X163609121Y-117429123D02*
X163656740Y-117333885D01*
X163656740Y-117333885D02*
X163751978Y-117286266D01*
X163751978Y-117286266D02*
X163990073Y-117286266D01*
X163990073Y-117286266D02*
X164085311Y-117238647D01*
X164561502Y-117667219D02*
X164561502Y-117000552D01*
X164561502Y-117191028D02*
X164609121Y-117095790D01*
X164609121Y-117095790D02*
X164656740Y-117048171D01*
X164656740Y-117048171D02*
X164751978Y-117000552D01*
X164751978Y-117000552D02*
X164847216Y-117000552D01*
X165609121Y-117667219D02*
X165609121Y-116667219D01*
X165609121Y-117619600D02*
X165513883Y-117667219D01*
X165513883Y-117667219D02*
X165323407Y-117667219D01*
X165323407Y-117667219D02*
X165228169Y-117619600D01*
X165228169Y-117619600D02*
X165180550Y-117571980D01*
X165180550Y-117571980D02*
X165132931Y-117476742D01*
X165132931Y-117476742D02*
X165132931Y-117191028D01*
X165132931Y-117191028D02*
X165180550Y-117095790D01*
X165180550Y-117095790D02*
X165228169Y-117048171D01*
X165228169Y-117048171D02*
X165323407Y-117000552D01*
X165323407Y-117000552D02*
X165513883Y-117000552D01*
X165513883Y-117000552D02*
X165609121Y-117048171D01*
D13*
X166500000Y-118400000D02*
G75*
G02*
X167300000Y-119200000I0J-800000D01*
G01*
X153500000Y-119200000D02*
G75*
G02*
X154300000Y-118400000I800000J0D01*
G01*
X167300000Y-119200000D02*
X167300000Y-123500000D01*
X154300000Y-118400000D02*
X166500000Y-118400000D01*
X153500000Y-123500000D02*
X153500000Y-119200000D01*
X167299122Y-113463561D02*
X167299122Y-113996895D01*
X167108646Y-113158800D02*
X166918169Y-113730228D01*
X166918169Y-113730228D02*
X167413408Y-113730228D01*
X167832455Y-113539752D02*
X167756265Y-113501657D01*
X167756265Y-113501657D02*
X167718170Y-113463561D01*
X167718170Y-113463561D02*
X167680074Y-113387371D01*
X167680074Y-113387371D02*
X167680074Y-113349276D01*
X167680074Y-113349276D02*
X167718170Y-113273085D01*
X167718170Y-113273085D02*
X167756265Y-113234990D01*
X167756265Y-113234990D02*
X167832455Y-113196895D01*
X167832455Y-113196895D02*
X167984836Y-113196895D01*
X167984836Y-113196895D02*
X168061027Y-113234990D01*
X168061027Y-113234990D02*
X168099122Y-113273085D01*
X168099122Y-113273085D02*
X168137217Y-113349276D01*
X168137217Y-113349276D02*
X168137217Y-113387371D01*
X168137217Y-113387371D02*
X168099122Y-113463561D01*
X168099122Y-113463561D02*
X168061027Y-113501657D01*
X168061027Y-113501657D02*
X167984836Y-113539752D01*
X167984836Y-113539752D02*
X167832455Y-113539752D01*
X167832455Y-113539752D02*
X167756265Y-113577847D01*
X167756265Y-113577847D02*
X167718170Y-113615942D01*
X167718170Y-113615942D02*
X167680074Y-113692133D01*
X167680074Y-113692133D02*
X167680074Y-113844514D01*
X167680074Y-113844514D02*
X167718170Y-113920704D01*
X167718170Y-113920704D02*
X167756265Y-113958800D01*
X167756265Y-113958800D02*
X167832455Y-113996895D01*
X167832455Y-113996895D02*
X167984836Y-113996895D01*
X167984836Y-113996895D02*
X168061027Y-113958800D01*
X168061027Y-113958800D02*
X168099122Y-113920704D01*
X168099122Y-113920704D02*
X168137217Y-113844514D01*
X168137217Y-113844514D02*
X168137217Y-113692133D01*
X168137217Y-113692133D02*
X168099122Y-113615942D01*
X168099122Y-113615942D02*
X168061027Y-113577847D01*
X168061027Y-113577847D02*
X167984836Y-113539752D01*
X168480075Y-113996895D02*
X168480075Y-113196895D01*
X168556265Y-113692133D02*
X168784837Y-113996895D01*
X168784837Y-113463561D02*
X168480075Y-113768323D01*
X169127694Y-113996895D02*
X169127694Y-113196895D01*
X169127694Y-113577847D02*
X169584837Y-113577847D01*
X169584837Y-113996895D02*
X169584837Y-113196895D01*
X169889598Y-113463561D02*
X170308646Y-113463561D01*
X170308646Y-113463561D02*
X169889598Y-113996895D01*
X169889598Y-113996895D02*
X170308646Y-113996895D01*
X171641979Y-113996895D02*
X171184836Y-113996895D01*
X171413408Y-113996895D02*
X171413408Y-113196895D01*
X171413408Y-113196895D02*
X171337217Y-113311180D01*
X171337217Y-113311180D02*
X171261027Y-113387371D01*
X171261027Y-113387371D02*
X171184836Y-113425466D01*
X172327694Y-113196895D02*
X172175313Y-113196895D01*
X172175313Y-113196895D02*
X172099122Y-113234990D01*
X172099122Y-113234990D02*
X172061027Y-113273085D01*
X172061027Y-113273085D02*
X171984837Y-113387371D01*
X171984837Y-113387371D02*
X171946741Y-113539752D01*
X171946741Y-113539752D02*
X171946741Y-113844514D01*
X171946741Y-113844514D02*
X171984837Y-113920704D01*
X171984837Y-113920704D02*
X172022932Y-113958800D01*
X172022932Y-113958800D02*
X172099122Y-113996895D01*
X172099122Y-113996895D02*
X172251503Y-113996895D01*
X172251503Y-113996895D02*
X172327694Y-113958800D01*
X172327694Y-113958800D02*
X172365789Y-113920704D01*
X172365789Y-113920704D02*
X172403884Y-113844514D01*
X172403884Y-113844514D02*
X172403884Y-113654038D01*
X172403884Y-113654038D02*
X172365789Y-113577847D01*
X172365789Y-113577847D02*
X172327694Y-113539752D01*
X172327694Y-113539752D02*
X172251503Y-113501657D01*
X172251503Y-113501657D02*
X172099122Y-113501657D01*
X172099122Y-113501657D02*
X172022932Y-113539752D01*
X172022932Y-113539752D02*
X171984837Y-113577847D01*
X171984837Y-113577847D02*
X171946741Y-113654038D01*
X172746742Y-113692133D02*
X173356266Y-113692133D01*
X173737218Y-113996895D02*
X173737218Y-113196895D01*
X173737218Y-113501657D02*
X173813408Y-113463561D01*
X173813408Y-113463561D02*
X173965789Y-113463561D01*
X173965789Y-113463561D02*
X174041980Y-113501657D01*
X174041980Y-113501657D02*
X174080075Y-113539752D01*
X174080075Y-113539752D02*
X174118170Y-113615942D01*
X174118170Y-113615942D02*
X174118170Y-113844514D01*
X174118170Y-113844514D02*
X174080075Y-113920704D01*
X174080075Y-113920704D02*
X174041980Y-113958800D01*
X174041980Y-113958800D02*
X173965789Y-113996895D01*
X173965789Y-113996895D02*
X173813408Y-113996895D01*
X173813408Y-113996895D02*
X173737218Y-113958800D01*
X174461028Y-113996895D02*
X174461028Y-113463561D01*
X174461028Y-113196895D02*
X174422932Y-113234990D01*
X174422932Y-113234990D02*
X174461028Y-113273085D01*
X174461028Y-113273085D02*
X174499123Y-113234990D01*
X174499123Y-113234990D02*
X174461028Y-113196895D01*
X174461028Y-113196895D02*
X174461028Y-113273085D01*
X174727694Y-113463561D02*
X175032456Y-113463561D01*
X174841980Y-113196895D02*
X174841980Y-113882609D01*
X174841980Y-113882609D02*
X174880075Y-113958800D01*
X174880075Y-113958800D02*
X174956265Y-113996895D01*
X174956265Y-113996895D02*
X175032456Y-113996895D01*
D12*
X143304761Y-115467219D02*
X143304761Y-116276742D01*
X143304761Y-116276742D02*
X143352380Y-116371980D01*
X143352380Y-116371980D02*
X143399999Y-116419600D01*
X143399999Y-116419600D02*
X143495237Y-116467219D01*
X143495237Y-116467219D02*
X143685713Y-116467219D01*
X143685713Y-116467219D02*
X143780951Y-116419600D01*
X143780951Y-116419600D02*
X143828570Y-116371980D01*
X143828570Y-116371980D02*
X143876189Y-116276742D01*
X143876189Y-116276742D02*
X143876189Y-115467219D01*
X144304761Y-116419600D02*
X144447618Y-116467219D01*
X144447618Y-116467219D02*
X144685713Y-116467219D01*
X144685713Y-116467219D02*
X144780951Y-116419600D01*
X144780951Y-116419600D02*
X144828570Y-116371980D01*
X144828570Y-116371980D02*
X144876189Y-116276742D01*
X144876189Y-116276742D02*
X144876189Y-116181504D01*
X144876189Y-116181504D02*
X144828570Y-116086266D01*
X144828570Y-116086266D02*
X144780951Y-116038647D01*
X144780951Y-116038647D02*
X144685713Y-115991028D01*
X144685713Y-115991028D02*
X144495237Y-115943409D01*
X144495237Y-115943409D02*
X144399999Y-115895790D01*
X144399999Y-115895790D02*
X144352380Y-115848171D01*
X144352380Y-115848171D02*
X144304761Y-115752933D01*
X144304761Y-115752933D02*
X144304761Y-115657695D01*
X144304761Y-115657695D02*
X144352380Y-115562457D01*
X144352380Y-115562457D02*
X144399999Y-115514838D01*
X144399999Y-115514838D02*
X144495237Y-115467219D01*
X144495237Y-115467219D02*
X144733332Y-115467219D01*
X144733332Y-115467219D02*
X144876189Y-115514838D01*
X145638094Y-115943409D02*
X145780951Y-115991028D01*
X145780951Y-115991028D02*
X145828570Y-116038647D01*
X145828570Y-116038647D02*
X145876189Y-116133885D01*
X145876189Y-116133885D02*
X145876189Y-116276742D01*
X145876189Y-116276742D02*
X145828570Y-116371980D01*
X145828570Y-116371980D02*
X145780951Y-116419600D01*
X145780951Y-116419600D02*
X145685713Y-116467219D01*
X145685713Y-116467219D02*
X145304761Y-116467219D01*
X145304761Y-116467219D02*
X145304761Y-115467219D01*
X145304761Y-115467219D02*
X145638094Y-115467219D01*
X145638094Y-115467219D02*
X145733332Y-115514838D01*
X145733332Y-115514838D02*
X145780951Y-115562457D01*
X145780951Y-115562457D02*
X145828570Y-115657695D01*
X145828570Y-115657695D02*
X145828570Y-115752933D01*
X145828570Y-115752933D02*
X145780951Y-115848171D01*
X145780951Y-115848171D02*
X145733332Y-115895790D01*
X145733332Y-115895790D02*
X145638094Y-115943409D01*
X145638094Y-115943409D02*
X145304761Y-115943409D01*
X146923809Y-115800552D02*
X147304761Y-115800552D01*
X147066666Y-115467219D02*
X147066666Y-116324361D01*
X147066666Y-116324361D02*
X147114285Y-116419600D01*
X147114285Y-116419600D02*
X147209523Y-116467219D01*
X147209523Y-116467219D02*
X147304761Y-116467219D01*
X147780952Y-116467219D02*
X147685714Y-116419600D01*
X147685714Y-116419600D02*
X147638095Y-116371980D01*
X147638095Y-116371980D02*
X147590476Y-116276742D01*
X147590476Y-116276742D02*
X147590476Y-115991028D01*
X147590476Y-115991028D02*
X147638095Y-115895790D01*
X147638095Y-115895790D02*
X147685714Y-115848171D01*
X147685714Y-115848171D02*
X147780952Y-115800552D01*
X147780952Y-115800552D02*
X147923809Y-115800552D01*
X147923809Y-115800552D02*
X148019047Y-115848171D01*
X148019047Y-115848171D02*
X148066666Y-115895790D01*
X148066666Y-115895790D02*
X148114285Y-115991028D01*
X148114285Y-115991028D02*
X148114285Y-116276742D01*
X148114285Y-116276742D02*
X148066666Y-116371980D01*
X148066666Y-116371980D02*
X148019047Y-116419600D01*
X148019047Y-116419600D02*
X147923809Y-116467219D01*
X147923809Y-116467219D02*
X147780952Y-116467219D01*
X149304762Y-115467219D02*
X149304762Y-116276742D01*
X149304762Y-116276742D02*
X149352381Y-116371980D01*
X149352381Y-116371980D02*
X149400000Y-116419600D01*
X149400000Y-116419600D02*
X149495238Y-116467219D01*
X149495238Y-116467219D02*
X149685714Y-116467219D01*
X149685714Y-116467219D02*
X149780952Y-116419600D01*
X149780952Y-116419600D02*
X149828571Y-116371980D01*
X149828571Y-116371980D02*
X149876190Y-116276742D01*
X149876190Y-116276742D02*
X149876190Y-115467219D01*
X150304762Y-116181504D02*
X150780952Y-116181504D01*
X150209524Y-116467219D02*
X150542857Y-115467219D01*
X150542857Y-115467219D02*
X150876190Y-116467219D01*
X151780952Y-116467219D02*
X151447619Y-115991028D01*
X151209524Y-116467219D02*
X151209524Y-115467219D01*
X151209524Y-115467219D02*
X151590476Y-115467219D01*
X151590476Y-115467219D02*
X151685714Y-115514838D01*
X151685714Y-115514838D02*
X151733333Y-115562457D01*
X151733333Y-115562457D02*
X151780952Y-115657695D01*
X151780952Y-115657695D02*
X151780952Y-115800552D01*
X151780952Y-115800552D02*
X151733333Y-115895790D01*
X151733333Y-115895790D02*
X151685714Y-115943409D01*
X151685714Y-115943409D02*
X151590476Y-115991028D01*
X151590476Y-115991028D02*
X151209524Y-115991028D01*
X152066667Y-115467219D02*
X152638095Y-115467219D01*
X152352381Y-116467219D02*
X152352381Y-115467219D01*
D13*
X166000000Y-97400000D02*
G75*
G02*
X166800000Y-96600000I800000J0D01*
G01*
X166800000Y-112700000D02*
G75*
G02*
X166000000Y-111900000I0J800000D01*
G01*
D12*
X167022054Y-95681504D02*
X167498244Y-95681504D01*
X166926816Y-95967219D02*
X167260149Y-94967219D01*
X167260149Y-94967219D02*
X167593482Y-95967219D01*
X167926816Y-95300552D02*
X167926816Y-95967219D01*
X167926816Y-95395790D02*
X167974435Y-95348171D01*
X167974435Y-95348171D02*
X168069673Y-95300552D01*
X168069673Y-95300552D02*
X168212530Y-95300552D01*
X168212530Y-95300552D02*
X168307768Y-95348171D01*
X168307768Y-95348171D02*
X168355387Y-95443409D01*
X168355387Y-95443409D02*
X168355387Y-95967219D01*
X169260149Y-95967219D02*
X169260149Y-95443409D01*
X169260149Y-95443409D02*
X169212530Y-95348171D01*
X169212530Y-95348171D02*
X169117292Y-95300552D01*
X169117292Y-95300552D02*
X168926816Y-95300552D01*
X168926816Y-95300552D02*
X168831578Y-95348171D01*
X169260149Y-95919600D02*
X169164911Y-95967219D01*
X169164911Y-95967219D02*
X168926816Y-95967219D01*
X168926816Y-95967219D02*
X168831578Y-95919600D01*
X168831578Y-95919600D02*
X168783959Y-95824361D01*
X168783959Y-95824361D02*
X168783959Y-95729123D01*
X168783959Y-95729123D02*
X168831578Y-95633885D01*
X168831578Y-95633885D02*
X168926816Y-95586266D01*
X168926816Y-95586266D02*
X169164911Y-95586266D01*
X169164911Y-95586266D02*
X169260149Y-95538647D01*
X169879197Y-95967219D02*
X169783959Y-95919600D01*
X169783959Y-95919600D02*
X169736340Y-95824361D01*
X169736340Y-95824361D02*
X169736340Y-94967219D01*
X170403007Y-95967219D02*
X170307769Y-95919600D01*
X170307769Y-95919600D02*
X170260150Y-95871980D01*
X170260150Y-95871980D02*
X170212531Y-95776742D01*
X170212531Y-95776742D02*
X170212531Y-95491028D01*
X170212531Y-95491028D02*
X170260150Y-95395790D01*
X170260150Y-95395790D02*
X170307769Y-95348171D01*
X170307769Y-95348171D02*
X170403007Y-95300552D01*
X170403007Y-95300552D02*
X170545864Y-95300552D01*
X170545864Y-95300552D02*
X170641102Y-95348171D01*
X170641102Y-95348171D02*
X170688721Y-95395790D01*
X170688721Y-95395790D02*
X170736340Y-95491028D01*
X170736340Y-95491028D02*
X170736340Y-95776742D01*
X170736340Y-95776742D02*
X170688721Y-95871980D01*
X170688721Y-95871980D02*
X170641102Y-95919600D01*
X170641102Y-95919600D02*
X170545864Y-95967219D01*
X170545864Y-95967219D02*
X170403007Y-95967219D01*
X171593483Y-95300552D02*
X171593483Y-96110076D01*
X171593483Y-96110076D02*
X171545864Y-96205314D01*
X171545864Y-96205314D02*
X171498245Y-96252933D01*
X171498245Y-96252933D02*
X171403007Y-96300552D01*
X171403007Y-96300552D02*
X171260150Y-96300552D01*
X171260150Y-96300552D02*
X171164912Y-96252933D01*
X171593483Y-95919600D02*
X171498245Y-95967219D01*
X171498245Y-95967219D02*
X171307769Y-95967219D01*
X171307769Y-95967219D02*
X171212531Y-95919600D01*
X171212531Y-95919600D02*
X171164912Y-95871980D01*
X171164912Y-95871980D02*
X171117293Y-95776742D01*
X171117293Y-95776742D02*
X171117293Y-95491028D01*
X171117293Y-95491028D02*
X171164912Y-95395790D01*
X171164912Y-95395790D02*
X171212531Y-95348171D01*
X171212531Y-95348171D02*
X171307769Y-95300552D01*
X171307769Y-95300552D02*
X171498245Y-95300552D01*
X171498245Y-95300552D02*
X171593483Y-95348171D01*
X173022055Y-94967219D02*
X173212531Y-94967219D01*
X173212531Y-94967219D02*
X173307769Y-95014838D01*
X173307769Y-95014838D02*
X173403007Y-95110076D01*
X173403007Y-95110076D02*
X173450626Y-95300552D01*
X173450626Y-95300552D02*
X173450626Y-95633885D01*
X173450626Y-95633885D02*
X173403007Y-95824361D01*
X173403007Y-95824361D02*
X173307769Y-95919600D01*
X173307769Y-95919600D02*
X173212531Y-95967219D01*
X173212531Y-95967219D02*
X173022055Y-95967219D01*
X173022055Y-95967219D02*
X172926817Y-95919600D01*
X172926817Y-95919600D02*
X172831579Y-95824361D01*
X172831579Y-95824361D02*
X172783960Y-95633885D01*
X172783960Y-95633885D02*
X172783960Y-95300552D01*
X172783960Y-95300552D02*
X172831579Y-95110076D01*
X172831579Y-95110076D02*
X172926817Y-95014838D01*
X172926817Y-95014838D02*
X173022055Y-94967219D01*
X174307769Y-95300552D02*
X174307769Y-95967219D01*
X173879198Y-95300552D02*
X173879198Y-95824361D01*
X173879198Y-95824361D02*
X173926817Y-95919600D01*
X173926817Y-95919600D02*
X174022055Y-95967219D01*
X174022055Y-95967219D02*
X174164912Y-95967219D01*
X174164912Y-95967219D02*
X174260150Y-95919600D01*
X174260150Y-95919600D02*
X174307769Y-95871980D01*
X174641103Y-95300552D02*
X175022055Y-95300552D01*
X174783960Y-94967219D02*
X174783960Y-95824361D01*
X174783960Y-95824361D02*
X174831579Y-95919600D01*
X174831579Y-95919600D02*
X174926817Y-95967219D01*
X174926817Y-95967219D02*
X175022055Y-95967219D01*
D13*
X166800000Y-112700000D02*
X169900000Y-112700000D01*
X166000000Y-97400000D02*
X166000000Y-111900000D01*
X169900000Y-96600000D02*
X166800000Y-96600000D01*
D14*
X129314286Y-114078280D02*
X130685715Y-114078280D01*
X126814286Y-114078280D02*
X128185715Y-114078280D01*
X127500000Y-114763994D02*
X127500000Y-113392565D01*
D15*
X170338095Y-92752438D02*
X170242857Y-92704819D01*
X170242857Y-92704819D02*
X170100000Y-92704819D01*
X170100000Y-92704819D02*
X169957143Y-92752438D01*
X169957143Y-92752438D02*
X169861905Y-92847676D01*
X169861905Y-92847676D02*
X169814286Y-92942914D01*
X169814286Y-92942914D02*
X169766667Y-93133390D01*
X169766667Y-93133390D02*
X169766667Y-93276247D01*
X169766667Y-93276247D02*
X169814286Y-93466723D01*
X169814286Y-93466723D02*
X169861905Y-93561961D01*
X169861905Y-93561961D02*
X169957143Y-93657200D01*
X169957143Y-93657200D02*
X170100000Y-93704819D01*
X170100000Y-93704819D02*
X170195238Y-93704819D01*
X170195238Y-93704819D02*
X170338095Y-93657200D01*
X170338095Y-93657200D02*
X170385714Y-93609580D01*
X170385714Y-93609580D02*
X170385714Y-93276247D01*
X170385714Y-93276247D02*
X170195238Y-93276247D01*
X170814286Y-93704819D02*
X170814286Y-92704819D01*
X170814286Y-92704819D02*
X171385714Y-93704819D01*
X171385714Y-93704819D02*
X171385714Y-92704819D01*
X171861905Y-93704819D02*
X171861905Y-92704819D01*
X171861905Y-92704819D02*
X172100000Y-92704819D01*
X172100000Y-92704819D02*
X172242857Y-92752438D01*
X172242857Y-92752438D02*
X172338095Y-92847676D01*
X172338095Y-92847676D02*
X172385714Y-92942914D01*
X172385714Y-92942914D02*
X172433333Y-93133390D01*
X172433333Y-93133390D02*
X172433333Y-93276247D01*
X172433333Y-93276247D02*
X172385714Y-93466723D01*
X172385714Y-93466723D02*
X172338095Y-93561961D01*
X172338095Y-93561961D02*
X172242857Y-93657200D01*
X172242857Y-93657200D02*
X172100000Y-93704819D01*
X172100000Y-93704819D02*
X171861905Y-93704819D01*
D13*
X139688704Y-91233332D02*
X139726800Y-91271428D01*
X139726800Y-91271428D02*
X139764895Y-91385713D01*
X139764895Y-91385713D02*
X139764895Y-91461904D01*
X139764895Y-91461904D02*
X139726800Y-91576190D01*
X139726800Y-91576190D02*
X139650609Y-91652380D01*
X139650609Y-91652380D02*
X139574419Y-91690475D01*
X139574419Y-91690475D02*
X139422038Y-91728571D01*
X139422038Y-91728571D02*
X139307752Y-91728571D01*
X139307752Y-91728571D02*
X139155371Y-91690475D01*
X139155371Y-91690475D02*
X139079180Y-91652380D01*
X139079180Y-91652380D02*
X139002990Y-91576190D01*
X139002990Y-91576190D02*
X138964895Y-91461904D01*
X138964895Y-91461904D02*
X138964895Y-91385713D01*
X138964895Y-91385713D02*
X139002990Y-91271428D01*
X139002990Y-91271428D02*
X139041085Y-91233332D01*
X138964895Y-90547618D02*
X138964895Y-90699999D01*
X138964895Y-90699999D02*
X139002990Y-90776190D01*
X139002990Y-90776190D02*
X139041085Y-90814285D01*
X139041085Y-90814285D02*
X139155371Y-90890475D01*
X139155371Y-90890475D02*
X139307752Y-90928571D01*
X139307752Y-90928571D02*
X139612514Y-90928571D01*
X139612514Y-90928571D02*
X139688704Y-90890475D01*
X139688704Y-90890475D02*
X139726800Y-90852380D01*
X139726800Y-90852380D02*
X139764895Y-90776190D01*
X139764895Y-90776190D02*
X139764895Y-90623809D01*
X139764895Y-90623809D02*
X139726800Y-90547618D01*
X139726800Y-90547618D02*
X139688704Y-90509523D01*
X139688704Y-90509523D02*
X139612514Y-90471428D01*
X139612514Y-90471428D02*
X139422038Y-90471428D01*
X139422038Y-90471428D02*
X139345847Y-90509523D01*
X139345847Y-90509523D02*
X139307752Y-90547618D01*
X139307752Y-90547618D02*
X139269657Y-90623809D01*
X139269657Y-90623809D02*
X139269657Y-90776190D01*
X139269657Y-90776190D02*
X139307752Y-90852380D01*
X139307752Y-90852380D02*
X139345847Y-90890475D01*
X139345847Y-90890475D02*
X139422038Y-90928571D01*
X168466667Y-97688704D02*
X168428571Y-97726800D01*
X168428571Y-97726800D02*
X168314286Y-97764895D01*
X168314286Y-97764895D02*
X168238095Y-97764895D01*
X168238095Y-97764895D02*
X168123809Y-97726800D01*
X168123809Y-97726800D02*
X168047619Y-97650609D01*
X168047619Y-97650609D02*
X168009524Y-97574419D01*
X168009524Y-97574419D02*
X167971428Y-97422038D01*
X167971428Y-97422038D02*
X167971428Y-97307752D01*
X167971428Y-97307752D02*
X168009524Y-97155371D01*
X168009524Y-97155371D02*
X168047619Y-97079180D01*
X168047619Y-97079180D02*
X168123809Y-97002990D01*
X168123809Y-97002990D02*
X168238095Y-96964895D01*
X168238095Y-96964895D02*
X168314286Y-96964895D01*
X168314286Y-96964895D02*
X168428571Y-97002990D01*
X168428571Y-97002990D02*
X168466667Y-97041085D01*
X169190476Y-96964895D02*
X168809524Y-96964895D01*
X168809524Y-96964895D02*
X168771428Y-97345847D01*
X168771428Y-97345847D02*
X168809524Y-97307752D01*
X168809524Y-97307752D02*
X168885714Y-97269657D01*
X168885714Y-97269657D02*
X169076190Y-97269657D01*
X169076190Y-97269657D02*
X169152381Y-97307752D01*
X169152381Y-97307752D02*
X169190476Y-97345847D01*
X169190476Y-97345847D02*
X169228571Y-97422038D01*
X169228571Y-97422038D02*
X169228571Y-97612514D01*
X169228571Y-97612514D02*
X169190476Y-97688704D01*
X169190476Y-97688704D02*
X169152381Y-97726800D01*
X169152381Y-97726800D02*
X169076190Y-97764895D01*
X169076190Y-97764895D02*
X168885714Y-97764895D01*
X168885714Y-97764895D02*
X168809524Y-97726800D01*
X168809524Y-97726800D02*
X168771428Y-97688704D01*
X168588704Y-104433332D02*
X168626800Y-104471428D01*
X168626800Y-104471428D02*
X168664895Y-104585713D01*
X168664895Y-104585713D02*
X168664895Y-104661904D01*
X168664895Y-104661904D02*
X168626800Y-104776190D01*
X168626800Y-104776190D02*
X168550609Y-104852380D01*
X168550609Y-104852380D02*
X168474419Y-104890475D01*
X168474419Y-104890475D02*
X168322038Y-104928571D01*
X168322038Y-104928571D02*
X168207752Y-104928571D01*
X168207752Y-104928571D02*
X168055371Y-104890475D01*
X168055371Y-104890475D02*
X167979180Y-104852380D01*
X167979180Y-104852380D02*
X167902990Y-104776190D01*
X167902990Y-104776190D02*
X167864895Y-104661904D01*
X167864895Y-104661904D02*
X167864895Y-104585713D01*
X167864895Y-104585713D02*
X167902990Y-104471428D01*
X167902990Y-104471428D02*
X167941085Y-104433332D01*
X168131561Y-103747618D02*
X168664895Y-103747618D01*
X167826800Y-103938094D02*
X168398228Y-104128571D01*
X168398228Y-104128571D02*
X168398228Y-103633332D01*
D15*
X167038095Y-110054819D02*
X167038095Y-110864342D01*
X167038095Y-110864342D02*
X167085714Y-110959580D01*
X167085714Y-110959580D02*
X167133333Y-111007200D01*
X167133333Y-111007200D02*
X167228571Y-111054819D01*
X167228571Y-111054819D02*
X167419047Y-111054819D01*
X167419047Y-111054819D02*
X167514285Y-111007200D01*
X167514285Y-111007200D02*
X167561904Y-110959580D01*
X167561904Y-110959580D02*
X167609523Y-110864342D01*
X167609523Y-110864342D02*
X167609523Y-110054819D01*
X168038095Y-110150057D02*
X168085714Y-110102438D01*
X168085714Y-110102438D02*
X168180952Y-110054819D01*
X168180952Y-110054819D02*
X168419047Y-110054819D01*
X168419047Y-110054819D02*
X168514285Y-110102438D01*
X168514285Y-110102438D02*
X168561904Y-110150057D01*
X168561904Y-110150057D02*
X168609523Y-110245295D01*
X168609523Y-110245295D02*
X168609523Y-110340533D01*
X168609523Y-110340533D02*
X168561904Y-110483390D01*
X168561904Y-110483390D02*
X167990476Y-111054819D01*
X167990476Y-111054819D02*
X168609523Y-111054819D01*
X167038095Y-101954819D02*
X167038095Y-102764342D01*
X167038095Y-102764342D02*
X167085714Y-102859580D01*
X167085714Y-102859580D02*
X167133333Y-102907200D01*
X167133333Y-102907200D02*
X167228571Y-102954819D01*
X167228571Y-102954819D02*
X167419047Y-102954819D01*
X167419047Y-102954819D02*
X167514285Y-102907200D01*
X167514285Y-102907200D02*
X167561904Y-102859580D01*
X167561904Y-102859580D02*
X167609523Y-102764342D01*
X167609523Y-102764342D02*
X167609523Y-101954819D01*
X168609523Y-102954819D02*
X168038095Y-102954819D01*
X168323809Y-102954819D02*
X168323809Y-101954819D01*
X168323809Y-101954819D02*
X168228571Y-102097676D01*
X168228571Y-102097676D02*
X168133333Y-102192914D01*
X168133333Y-102192914D02*
X168038095Y-102240533D01*
X134361905Y-91254819D02*
X134361905Y-90254819D01*
X134361905Y-90254819D02*
X134600000Y-90254819D01*
X134600000Y-90254819D02*
X134742857Y-90302438D01*
X134742857Y-90302438D02*
X134838095Y-90397676D01*
X134838095Y-90397676D02*
X134885714Y-90492914D01*
X134885714Y-90492914D02*
X134933333Y-90683390D01*
X134933333Y-90683390D02*
X134933333Y-90826247D01*
X134933333Y-90826247D02*
X134885714Y-91016723D01*
X134885714Y-91016723D02*
X134838095Y-91111961D01*
X134838095Y-91111961D02*
X134742857Y-91207200D01*
X134742857Y-91207200D02*
X134600000Y-91254819D01*
X134600000Y-91254819D02*
X134361905Y-91254819D01*
X135314286Y-90350057D02*
X135361905Y-90302438D01*
X135361905Y-90302438D02*
X135457143Y-90254819D01*
X135457143Y-90254819D02*
X135695238Y-90254819D01*
X135695238Y-90254819D02*
X135790476Y-90302438D01*
X135790476Y-90302438D02*
X135838095Y-90350057D01*
X135838095Y-90350057D02*
X135885714Y-90445295D01*
X135885714Y-90445295D02*
X135885714Y-90540533D01*
X135885714Y-90540533D02*
X135838095Y-90683390D01*
X135838095Y-90683390D02*
X135266667Y-91254819D01*
X135266667Y-91254819D02*
X135885714Y-91254819D01*
X141244819Y-112186904D02*
X142054342Y-112186904D01*
X142054342Y-112186904D02*
X142149580Y-112139285D01*
X142149580Y-112139285D02*
X142197200Y-112091666D01*
X142197200Y-112091666D02*
X142244819Y-111996428D01*
X142244819Y-111996428D02*
X142244819Y-111805952D01*
X142244819Y-111805952D02*
X142197200Y-111710714D01*
X142197200Y-111710714D02*
X142149580Y-111663095D01*
X142149580Y-111663095D02*
X142054342Y-111615476D01*
X142054342Y-111615476D02*
X141244819Y-111615476D01*
X141578152Y-110710714D02*
X142244819Y-110710714D01*
X141197200Y-110948809D02*
X141911485Y-111186904D01*
X141911485Y-111186904D02*
X141911485Y-110567857D01*
X157292857Y-106831009D02*
X157435714Y-106878628D01*
X157435714Y-106878628D02*
X157483333Y-106926247D01*
X157483333Y-106926247D02*
X157530952Y-107021485D01*
X157530952Y-107021485D02*
X157530952Y-107164342D01*
X157530952Y-107164342D02*
X157483333Y-107259580D01*
X157483333Y-107259580D02*
X157435714Y-107307200D01*
X157435714Y-107307200D02*
X157340476Y-107354819D01*
X157340476Y-107354819D02*
X156959524Y-107354819D01*
X156959524Y-107354819D02*
X156959524Y-106354819D01*
X156959524Y-106354819D02*
X157292857Y-106354819D01*
X157292857Y-106354819D02*
X157388095Y-106402438D01*
X157388095Y-106402438D02*
X157435714Y-106450057D01*
X157435714Y-106450057D02*
X157483333Y-106545295D01*
X157483333Y-106545295D02*
X157483333Y-106640533D01*
X157483333Y-106640533D02*
X157435714Y-106735771D01*
X157435714Y-106735771D02*
X157388095Y-106783390D01*
X157388095Y-106783390D02*
X157292857Y-106831009D01*
X157292857Y-106831009D02*
X156959524Y-106831009D01*
X158150000Y-106354819D02*
X158340476Y-106354819D01*
X158340476Y-106354819D02*
X158435714Y-106402438D01*
X158435714Y-106402438D02*
X158530952Y-106497676D01*
X158530952Y-106497676D02*
X158578571Y-106688152D01*
X158578571Y-106688152D02*
X158578571Y-107021485D01*
X158578571Y-107021485D02*
X158530952Y-107211961D01*
X158530952Y-107211961D02*
X158435714Y-107307200D01*
X158435714Y-107307200D02*
X158340476Y-107354819D01*
X158340476Y-107354819D02*
X158150000Y-107354819D01*
X158150000Y-107354819D02*
X158054762Y-107307200D01*
X158054762Y-107307200D02*
X157959524Y-107211961D01*
X157959524Y-107211961D02*
X157911905Y-107021485D01*
X157911905Y-107021485D02*
X157911905Y-106688152D01*
X157911905Y-106688152D02*
X157959524Y-106497676D01*
X157959524Y-106497676D02*
X158054762Y-106402438D01*
X158054762Y-106402438D02*
X158150000Y-106354819D01*
X159197619Y-106354819D02*
X159388095Y-106354819D01*
X159388095Y-106354819D02*
X159483333Y-106402438D01*
X159483333Y-106402438D02*
X159578571Y-106497676D01*
X159578571Y-106497676D02*
X159626190Y-106688152D01*
X159626190Y-106688152D02*
X159626190Y-107021485D01*
X159626190Y-107021485D02*
X159578571Y-107211961D01*
X159578571Y-107211961D02*
X159483333Y-107307200D01*
X159483333Y-107307200D02*
X159388095Y-107354819D01*
X159388095Y-107354819D02*
X159197619Y-107354819D01*
X159197619Y-107354819D02*
X159102381Y-107307200D01*
X159102381Y-107307200D02*
X159007143Y-107211961D01*
X159007143Y-107211961D02*
X158959524Y-107021485D01*
X158959524Y-107021485D02*
X158959524Y-106688152D01*
X158959524Y-106688152D02*
X159007143Y-106497676D01*
X159007143Y-106497676D02*
X159102381Y-106402438D01*
X159102381Y-106402438D02*
X159197619Y-106354819D01*
X159911905Y-106354819D02*
X160483333Y-106354819D01*
X160197619Y-107354819D02*
X160197619Y-106354819D01*
X169854819Y-100783333D02*
X170569104Y-100783333D01*
X170569104Y-100783333D02*
X170711961Y-100830952D01*
X170711961Y-100830952D02*
X170807200Y-100926190D01*
X170807200Y-100926190D02*
X170854819Y-101069047D01*
X170854819Y-101069047D02*
X170854819Y-101164285D01*
X170854819Y-99783333D02*
X170854819Y-100354761D01*
X170854819Y-100069047D02*
X169854819Y-100069047D01*
X169854819Y-100069047D02*
X169997676Y-100164285D01*
X169997676Y-100164285D02*
X170092914Y-100259523D01*
X170092914Y-100259523D02*
X170140533Y-100354761D01*
X176828571Y-96107200D02*
X176971428Y-96154819D01*
X176971428Y-96154819D02*
X177209523Y-96154819D01*
X177209523Y-96154819D02*
X177304761Y-96107200D01*
X177304761Y-96107200D02*
X177352380Y-96059580D01*
X177352380Y-96059580D02*
X177399999Y-95964342D01*
X177399999Y-95964342D02*
X177399999Y-95869104D01*
X177399999Y-95869104D02*
X177352380Y-95773866D01*
X177352380Y-95773866D02*
X177304761Y-95726247D01*
X177304761Y-95726247D02*
X177209523Y-95678628D01*
X177209523Y-95678628D02*
X177019047Y-95631009D01*
X177019047Y-95631009D02*
X176923809Y-95583390D01*
X176923809Y-95583390D02*
X176876190Y-95535771D01*
X176876190Y-95535771D02*
X176828571Y-95440533D01*
X176828571Y-95440533D02*
X176828571Y-95345295D01*
X176828571Y-95345295D02*
X176876190Y-95250057D01*
X176876190Y-95250057D02*
X176923809Y-95202438D01*
X176923809Y-95202438D02*
X177019047Y-95154819D01*
X177019047Y-95154819D02*
X177257142Y-95154819D01*
X177257142Y-95154819D02*
X177399999Y-95202438D01*
X177828571Y-96154819D02*
X177828571Y-95154819D01*
X177828571Y-95154819D02*
X178209523Y-95154819D01*
X178209523Y-95154819D02*
X178304761Y-95202438D01*
X178304761Y-95202438D02*
X178352380Y-95250057D01*
X178352380Y-95250057D02*
X178399999Y-95345295D01*
X178399999Y-95345295D02*
X178399999Y-95488152D01*
X178399999Y-95488152D02*
X178352380Y-95583390D01*
X178352380Y-95583390D02*
X178304761Y-95631009D01*
X178304761Y-95631009D02*
X178209523Y-95678628D01*
X178209523Y-95678628D02*
X177828571Y-95678628D01*
X178828571Y-96154819D02*
X178828571Y-95154819D01*
X179399999Y-96154819D02*
X178971428Y-95583390D01*
X179399999Y-95154819D02*
X178828571Y-95726247D01*
X179590476Y-96250057D02*
X180352380Y-96250057D01*
X181066666Y-96154819D02*
X180590476Y-96154819D01*
X180590476Y-96154819D02*
X180590476Y-95154819D01*
D13*
X143323809Y-99741085D02*
X143247619Y-99702990D01*
X143247619Y-99702990D02*
X143171428Y-99626800D01*
X143171428Y-99626800D02*
X143057142Y-99512514D01*
X143057142Y-99512514D02*
X142980952Y-99474419D01*
X142980952Y-99474419D02*
X142904761Y-99474419D01*
X142942857Y-99664895D02*
X142866666Y-99626800D01*
X142866666Y-99626800D02*
X142790476Y-99550609D01*
X142790476Y-99550609D02*
X142752380Y-99398228D01*
X142752380Y-99398228D02*
X142752380Y-99131561D01*
X142752380Y-99131561D02*
X142790476Y-98979180D01*
X142790476Y-98979180D02*
X142866666Y-98902990D01*
X142866666Y-98902990D02*
X142942857Y-98864895D01*
X142942857Y-98864895D02*
X143095238Y-98864895D01*
X143095238Y-98864895D02*
X143171428Y-98902990D01*
X143171428Y-98902990D02*
X143247619Y-98979180D01*
X143247619Y-98979180D02*
X143285714Y-99131561D01*
X143285714Y-99131561D02*
X143285714Y-99398228D01*
X143285714Y-99398228D02*
X143247619Y-99550609D01*
X143247619Y-99550609D02*
X143171428Y-99626800D01*
X143171428Y-99626800D02*
X143095238Y-99664895D01*
X143095238Y-99664895D02*
X142942857Y-99664895D01*
X144047618Y-99664895D02*
X143590475Y-99664895D01*
X143819047Y-99664895D02*
X143819047Y-98864895D01*
X143819047Y-98864895D02*
X143742856Y-98979180D01*
X143742856Y-98979180D02*
X143666666Y-99055371D01*
X143666666Y-99055371D02*
X143590475Y-99093466D01*
D15*
X169854819Y-109183333D02*
X170569104Y-109183333D01*
X170569104Y-109183333D02*
X170711961Y-109230952D01*
X170711961Y-109230952D02*
X170807200Y-109326190D01*
X170807200Y-109326190D02*
X170854819Y-109469047D01*
X170854819Y-109469047D02*
X170854819Y-109564285D01*
X169950057Y-108754761D02*
X169902438Y-108707142D01*
X169902438Y-108707142D02*
X169854819Y-108611904D01*
X169854819Y-108611904D02*
X169854819Y-108373809D01*
X169854819Y-108373809D02*
X169902438Y-108278571D01*
X169902438Y-108278571D02*
X169950057Y-108230952D01*
X169950057Y-108230952D02*
X170045295Y-108183333D01*
X170045295Y-108183333D02*
X170140533Y-108183333D01*
X170140533Y-108183333D02*
X170283390Y-108230952D01*
X170283390Y-108230952D02*
X170854819Y-108802380D01*
X170854819Y-108802380D02*
X170854819Y-108183333D01*
X176733333Y-114107200D02*
X176876190Y-114154819D01*
X176876190Y-114154819D02*
X177114285Y-114154819D01*
X177114285Y-114154819D02*
X177209523Y-114107200D01*
X177209523Y-114107200D02*
X177257142Y-114059580D01*
X177257142Y-114059580D02*
X177304761Y-113964342D01*
X177304761Y-113964342D02*
X177304761Y-113869104D01*
X177304761Y-113869104D02*
X177257142Y-113773866D01*
X177257142Y-113773866D02*
X177209523Y-113726247D01*
X177209523Y-113726247D02*
X177114285Y-113678628D01*
X177114285Y-113678628D02*
X176923809Y-113631009D01*
X176923809Y-113631009D02*
X176828571Y-113583390D01*
X176828571Y-113583390D02*
X176780952Y-113535771D01*
X176780952Y-113535771D02*
X176733333Y-113440533D01*
X176733333Y-113440533D02*
X176733333Y-113345295D01*
X176733333Y-113345295D02*
X176780952Y-113250057D01*
X176780952Y-113250057D02*
X176828571Y-113202438D01*
X176828571Y-113202438D02*
X176923809Y-113154819D01*
X176923809Y-113154819D02*
X177161904Y-113154819D01*
X177161904Y-113154819D02*
X177304761Y-113202438D01*
X177733333Y-114154819D02*
X177733333Y-113154819D01*
X177733333Y-113154819D02*
X178114285Y-113154819D01*
X178114285Y-113154819D02*
X178209523Y-113202438D01*
X178209523Y-113202438D02*
X178257142Y-113250057D01*
X178257142Y-113250057D02*
X178304761Y-113345295D01*
X178304761Y-113345295D02*
X178304761Y-113488152D01*
X178304761Y-113488152D02*
X178257142Y-113583390D01*
X178257142Y-113583390D02*
X178209523Y-113631009D01*
X178209523Y-113631009D02*
X178114285Y-113678628D01*
X178114285Y-113678628D02*
X177733333Y-113678628D01*
X178733333Y-114154819D02*
X178733333Y-113154819D01*
X179304761Y-114154819D02*
X178876190Y-113583390D01*
X179304761Y-113154819D02*
X178733333Y-113726247D01*
X179495238Y-114250057D02*
X180257142Y-114250057D01*
X181066666Y-114154819D02*
X180733333Y-113678628D01*
X180495238Y-114154819D02*
X180495238Y-113154819D01*
X180495238Y-113154819D02*
X180876190Y-113154819D01*
X180876190Y-113154819D02*
X180971428Y-113202438D01*
X180971428Y-113202438D02*
X181019047Y-113250057D01*
X181019047Y-113250057D02*
X181066666Y-113345295D01*
X181066666Y-113345295D02*
X181066666Y-113488152D01*
X181066666Y-113488152D02*
X181019047Y-113583390D01*
X181019047Y-113583390D02*
X180971428Y-113631009D01*
X180971428Y-113631009D02*
X180876190Y-113678628D01*
X180876190Y-113678628D02*
X180495238Y-113678628D01*
D13*
X146988704Y-90383332D02*
X147026800Y-90421428D01*
X147026800Y-90421428D02*
X147064895Y-90535713D01*
X147064895Y-90535713D02*
X147064895Y-90611904D01*
X147064895Y-90611904D02*
X147026800Y-90726190D01*
X147026800Y-90726190D02*
X146950609Y-90802380D01*
X146950609Y-90802380D02*
X146874419Y-90840475D01*
X146874419Y-90840475D02*
X146722038Y-90878571D01*
X146722038Y-90878571D02*
X146607752Y-90878571D01*
X146607752Y-90878571D02*
X146455371Y-90840475D01*
X146455371Y-90840475D02*
X146379180Y-90802380D01*
X146379180Y-90802380D02*
X146302990Y-90726190D01*
X146302990Y-90726190D02*
X146264895Y-90611904D01*
X146264895Y-90611904D02*
X146264895Y-90535713D01*
X146264895Y-90535713D02*
X146302990Y-90421428D01*
X146302990Y-90421428D02*
X146341085Y-90383332D01*
X147064895Y-89621428D02*
X147064895Y-90078571D01*
X147064895Y-89849999D02*
X146264895Y-89849999D01*
X146264895Y-89849999D02*
X146379180Y-89926190D01*
X146379180Y-89926190D02*
X146455371Y-90002380D01*
X146455371Y-90002380D02*
X146493466Y-90078571D01*
X146066667Y-96034895D02*
X145800000Y-95653942D01*
X145609524Y-96034895D02*
X145609524Y-95234895D01*
X145609524Y-95234895D02*
X145914286Y-95234895D01*
X145914286Y-95234895D02*
X145990476Y-95272990D01*
X145990476Y-95272990D02*
X146028571Y-95311085D01*
X146028571Y-95311085D02*
X146066667Y-95387276D01*
X146066667Y-95387276D02*
X146066667Y-95501561D01*
X146066667Y-95501561D02*
X146028571Y-95577752D01*
X146028571Y-95577752D02*
X145990476Y-95615847D01*
X145990476Y-95615847D02*
X145914286Y-95653942D01*
X145914286Y-95653942D02*
X145609524Y-95653942D01*
X146752381Y-95234895D02*
X146600000Y-95234895D01*
X146600000Y-95234895D02*
X146523809Y-95272990D01*
X146523809Y-95272990D02*
X146485714Y-95311085D01*
X146485714Y-95311085D02*
X146409524Y-95425371D01*
X146409524Y-95425371D02*
X146371428Y-95577752D01*
X146371428Y-95577752D02*
X146371428Y-95882514D01*
X146371428Y-95882514D02*
X146409524Y-95958704D01*
X146409524Y-95958704D02*
X146447619Y-95996800D01*
X146447619Y-95996800D02*
X146523809Y-96034895D01*
X146523809Y-96034895D02*
X146676190Y-96034895D01*
X146676190Y-96034895D02*
X146752381Y-95996800D01*
X146752381Y-95996800D02*
X146790476Y-95958704D01*
X146790476Y-95958704D02*
X146828571Y-95882514D01*
X146828571Y-95882514D02*
X146828571Y-95692038D01*
X146828571Y-95692038D02*
X146790476Y-95615847D01*
X146790476Y-95615847D02*
X146752381Y-95577752D01*
X146752381Y-95577752D02*
X146676190Y-95539657D01*
X146676190Y-95539657D02*
X146523809Y-95539657D01*
X146523809Y-95539657D02*
X146447619Y-95577752D01*
X146447619Y-95577752D02*
X146409524Y-95615847D01*
X146409524Y-95615847D02*
X146371428Y-95692038D01*
D15*
X138661905Y-104431009D02*
X138995238Y-104431009D01*
X139138095Y-104954819D02*
X138661905Y-104954819D01*
X138661905Y-104954819D02*
X138661905Y-103954819D01*
X138661905Y-103954819D02*
X139138095Y-103954819D01*
X139566667Y-104954819D02*
X139566667Y-103954819D01*
X139566667Y-103954819D02*
X140138095Y-104954819D01*
X140138095Y-104954819D02*
X140138095Y-103954819D01*
X133616667Y-98354819D02*
X133950000Y-99354819D01*
X133950000Y-99354819D02*
X134283333Y-98354819D01*
X135188095Y-99259580D02*
X135140476Y-99307200D01*
X135140476Y-99307200D02*
X134997619Y-99354819D01*
X134997619Y-99354819D02*
X134902381Y-99354819D01*
X134902381Y-99354819D02*
X134759524Y-99307200D01*
X134759524Y-99307200D02*
X134664286Y-99211961D01*
X134664286Y-99211961D02*
X134616667Y-99116723D01*
X134616667Y-99116723D02*
X134569048Y-98926247D01*
X134569048Y-98926247D02*
X134569048Y-98783390D01*
X134569048Y-98783390D02*
X134616667Y-98592914D01*
X134616667Y-98592914D02*
X134664286Y-98497676D01*
X134664286Y-98497676D02*
X134759524Y-98402438D01*
X134759524Y-98402438D02*
X134902381Y-98354819D01*
X134902381Y-98354819D02*
X134997619Y-98354819D01*
X134997619Y-98354819D02*
X135140476Y-98402438D01*
X135140476Y-98402438D02*
X135188095Y-98450057D01*
X136188095Y-99259580D02*
X136140476Y-99307200D01*
X136140476Y-99307200D02*
X135997619Y-99354819D01*
X135997619Y-99354819D02*
X135902381Y-99354819D01*
X135902381Y-99354819D02*
X135759524Y-99307200D01*
X135759524Y-99307200D02*
X135664286Y-99211961D01*
X135664286Y-99211961D02*
X135616667Y-99116723D01*
X135616667Y-99116723D02*
X135569048Y-98926247D01*
X135569048Y-98926247D02*
X135569048Y-98783390D01*
X135569048Y-98783390D02*
X135616667Y-98592914D01*
X135616667Y-98592914D02*
X135664286Y-98497676D01*
X135664286Y-98497676D02*
X135759524Y-98402438D01*
X135759524Y-98402438D02*
X135902381Y-98354819D01*
X135902381Y-98354819D02*
X135997619Y-98354819D01*
X135997619Y-98354819D02*
X136140476Y-98402438D01*
X136140476Y-98402438D02*
X136188095Y-98450057D01*
D13*
X147064895Y-99583332D02*
X146683942Y-99849999D01*
X147064895Y-100040475D02*
X146264895Y-100040475D01*
X146264895Y-100040475D02*
X146264895Y-99735713D01*
X146264895Y-99735713D02*
X146302990Y-99659523D01*
X146302990Y-99659523D02*
X146341085Y-99621428D01*
X146341085Y-99621428D02*
X146417276Y-99583332D01*
X146417276Y-99583332D02*
X146531561Y-99583332D01*
X146531561Y-99583332D02*
X146607752Y-99621428D01*
X146607752Y-99621428D02*
X146645847Y-99659523D01*
X146645847Y-99659523D02*
X146683942Y-99735713D01*
X146683942Y-99735713D02*
X146683942Y-100040475D01*
X146531561Y-98897618D02*
X147064895Y-98897618D01*
X146226800Y-99088094D02*
X146798228Y-99278571D01*
X146798228Y-99278571D02*
X146798228Y-98783332D01*
D15*
X128416666Y-99054819D02*
X128416666Y-99769104D01*
X128416666Y-99769104D02*
X128369047Y-99911961D01*
X128369047Y-99911961D02*
X128273809Y-100007200D01*
X128273809Y-100007200D02*
X128130952Y-100054819D01*
X128130952Y-100054819D02*
X128035714Y-100054819D01*
X129321428Y-99054819D02*
X129130952Y-99054819D01*
X129130952Y-99054819D02*
X129035714Y-99102438D01*
X129035714Y-99102438D02*
X128988095Y-99150057D01*
X128988095Y-99150057D02*
X128892857Y-99292914D01*
X128892857Y-99292914D02*
X128845238Y-99483390D01*
X128845238Y-99483390D02*
X128845238Y-99864342D01*
X128845238Y-99864342D02*
X128892857Y-99959580D01*
X128892857Y-99959580D02*
X128940476Y-100007200D01*
X128940476Y-100007200D02*
X129035714Y-100054819D01*
X129035714Y-100054819D02*
X129226190Y-100054819D01*
X129226190Y-100054819D02*
X129321428Y-100007200D01*
X129321428Y-100007200D02*
X129369047Y-99959580D01*
X129369047Y-99959580D02*
X129416666Y-99864342D01*
X129416666Y-99864342D02*
X129416666Y-99626247D01*
X129416666Y-99626247D02*
X129369047Y-99531009D01*
X129369047Y-99531009D02*
X129321428Y-99483390D01*
X129321428Y-99483390D02*
X129226190Y-99435771D01*
X129226190Y-99435771D02*
X129035714Y-99435771D01*
X129035714Y-99435771D02*
X128940476Y-99483390D01*
X128940476Y-99483390D02*
X128892857Y-99531009D01*
X128892857Y-99531009D02*
X128845238Y-99626247D01*
X127630952Y-111931009D02*
X127773809Y-111978628D01*
X127773809Y-111978628D02*
X127821428Y-112026247D01*
X127821428Y-112026247D02*
X127869047Y-112121485D01*
X127869047Y-112121485D02*
X127869047Y-112264342D01*
X127869047Y-112264342D02*
X127821428Y-112359580D01*
X127821428Y-112359580D02*
X127773809Y-112407200D01*
X127773809Y-112407200D02*
X127678571Y-112454819D01*
X127678571Y-112454819D02*
X127297619Y-112454819D01*
X127297619Y-112454819D02*
X127297619Y-111454819D01*
X127297619Y-111454819D02*
X127630952Y-111454819D01*
X127630952Y-111454819D02*
X127726190Y-111502438D01*
X127726190Y-111502438D02*
X127773809Y-111550057D01*
X127773809Y-111550057D02*
X127821428Y-111645295D01*
X127821428Y-111645295D02*
X127821428Y-111740533D01*
X127821428Y-111740533D02*
X127773809Y-111835771D01*
X127773809Y-111835771D02*
X127726190Y-111883390D01*
X127726190Y-111883390D02*
X127630952Y-111931009D01*
X127630952Y-111931009D02*
X127297619Y-111931009D01*
X128250000Y-112169104D02*
X128726190Y-112169104D01*
X128154762Y-112454819D02*
X128488095Y-111454819D01*
X128488095Y-111454819D02*
X128821428Y-112454819D01*
X129011905Y-111454819D02*
X129583333Y-111454819D01*
X129297619Y-112454819D02*
X129297619Y-111454819D01*
X129773810Y-111454819D02*
X130345238Y-111454819D01*
X130059524Y-112454819D02*
X130059524Y-111454819D01*
X133554819Y-115906666D02*
X133078628Y-116239999D01*
X133554819Y-116478094D02*
X132554819Y-116478094D01*
X132554819Y-116478094D02*
X132554819Y-116097142D01*
X132554819Y-116097142D02*
X132602438Y-116001904D01*
X132602438Y-116001904D02*
X132650057Y-115954285D01*
X132650057Y-115954285D02*
X132745295Y-115906666D01*
X132745295Y-115906666D02*
X132888152Y-115906666D01*
X132888152Y-115906666D02*
X132983390Y-115954285D01*
X132983390Y-115954285D02*
X133031009Y-116001904D01*
X133031009Y-116001904D02*
X133078628Y-116097142D01*
X133078628Y-116097142D02*
X133078628Y-116478094D01*
X132554819Y-115573332D02*
X132554819Y-114954285D01*
X132554819Y-114954285D02*
X132935771Y-115287618D01*
X132935771Y-115287618D02*
X132935771Y-115144761D01*
X132935771Y-115144761D02*
X132983390Y-115049523D01*
X132983390Y-115049523D02*
X133031009Y-115001904D01*
X133031009Y-115001904D02*
X133126247Y-114954285D01*
X133126247Y-114954285D02*
X133364342Y-114954285D01*
X133364342Y-114954285D02*
X133459580Y-115001904D01*
X133459580Y-115001904D02*
X133507200Y-115049523D01*
X133507200Y-115049523D02*
X133554819Y-115144761D01*
X133554819Y-115144761D02*
X133554819Y-115430475D01*
X133554819Y-115430475D02*
X133507200Y-115525713D01*
X133507200Y-115525713D02*
X133459580Y-115573332D01*
X161754819Y-93083333D02*
X162469104Y-93083333D01*
X162469104Y-93083333D02*
X162611961Y-93130952D01*
X162611961Y-93130952D02*
X162707200Y-93226190D01*
X162707200Y-93226190D02*
X162754819Y-93369047D01*
X162754819Y-93369047D02*
X162754819Y-93464285D01*
X162754819Y-92607142D02*
X161754819Y-92607142D01*
X161754819Y-92607142D02*
X161754819Y-92226190D01*
X161754819Y-92226190D02*
X161802438Y-92130952D01*
X161802438Y-92130952D02*
X161850057Y-92083333D01*
X161850057Y-92083333D02*
X161945295Y-92035714D01*
X161945295Y-92035714D02*
X162088152Y-92035714D01*
X162088152Y-92035714D02*
X162183390Y-92083333D01*
X162183390Y-92083333D02*
X162231009Y-92130952D01*
X162231009Y-92130952D02*
X162278628Y-92226190D01*
X162278628Y-92226190D02*
X162278628Y-92607142D01*
X162754819Y-91083333D02*
X162754819Y-91654761D01*
X162754819Y-91369047D02*
X161754819Y-91369047D01*
X161754819Y-91369047D02*
X161897676Y-91464285D01*
X161897676Y-91464285D02*
X161992914Y-91559523D01*
X161992914Y-91559523D02*
X162040533Y-91654761D01*
X162133333Y-98004819D02*
X161800000Y-97528628D01*
X161561905Y-98004819D02*
X161561905Y-97004819D01*
X161561905Y-97004819D02*
X161942857Y-97004819D01*
X161942857Y-97004819D02*
X162038095Y-97052438D01*
X162038095Y-97052438D02*
X162085714Y-97100057D01*
X162085714Y-97100057D02*
X162133333Y-97195295D01*
X162133333Y-97195295D02*
X162133333Y-97338152D01*
X162133333Y-97338152D02*
X162085714Y-97433390D01*
X162085714Y-97433390D02*
X162038095Y-97481009D01*
X162038095Y-97481009D02*
X161942857Y-97528628D01*
X161942857Y-97528628D02*
X161561905Y-97528628D01*
X162466667Y-97004819D02*
X163133333Y-98004819D01*
X163133333Y-97004819D02*
X162466667Y-98004819D01*
D13*
X139286309Y-99741085D02*
X139210119Y-99702990D01*
X139210119Y-99702990D02*
X139133928Y-99626800D01*
X139133928Y-99626800D02*
X139019642Y-99512514D01*
X139019642Y-99512514D02*
X138943452Y-99474419D01*
X138943452Y-99474419D02*
X138867261Y-99474419D01*
X138905357Y-99664895D02*
X138829166Y-99626800D01*
X138829166Y-99626800D02*
X138752976Y-99550609D01*
X138752976Y-99550609D02*
X138714880Y-99398228D01*
X138714880Y-99398228D02*
X138714880Y-99131561D01*
X138714880Y-99131561D02*
X138752976Y-98979180D01*
X138752976Y-98979180D02*
X138829166Y-98902990D01*
X138829166Y-98902990D02*
X138905357Y-98864895D01*
X138905357Y-98864895D02*
X139057738Y-98864895D01*
X139057738Y-98864895D02*
X139133928Y-98902990D01*
X139133928Y-98902990D02*
X139210119Y-98979180D01*
X139210119Y-98979180D02*
X139248214Y-99131561D01*
X139248214Y-99131561D02*
X139248214Y-99398228D01*
X139248214Y-99398228D02*
X139210119Y-99550609D01*
X139210119Y-99550609D02*
X139133928Y-99626800D01*
X139133928Y-99626800D02*
X139057738Y-99664895D01*
X139057738Y-99664895D02*
X138905357Y-99664895D01*
X139552975Y-98941085D02*
X139591071Y-98902990D01*
X139591071Y-98902990D02*
X139667261Y-98864895D01*
X139667261Y-98864895D02*
X139857737Y-98864895D01*
X139857737Y-98864895D02*
X139933928Y-98902990D01*
X139933928Y-98902990D02*
X139972023Y-98941085D01*
X139972023Y-98941085D02*
X140010118Y-99017276D01*
X140010118Y-99017276D02*
X140010118Y-99093466D01*
X140010118Y-99093466D02*
X139972023Y-99207752D01*
X139972023Y-99207752D02*
X139514880Y-99664895D01*
X139514880Y-99664895D02*
X140010118Y-99664895D01*
D15*
X164254819Y-93083333D02*
X164969104Y-93083333D01*
X164969104Y-93083333D02*
X165111961Y-93130952D01*
X165111961Y-93130952D02*
X165207200Y-93226190D01*
X165207200Y-93226190D02*
X165254819Y-93369047D01*
X165254819Y-93369047D02*
X165254819Y-93464285D01*
X165254819Y-92607142D02*
X164254819Y-92607142D01*
X164254819Y-92607142D02*
X164254819Y-92226190D01*
X164254819Y-92226190D02*
X164302438Y-92130952D01*
X164302438Y-92130952D02*
X164350057Y-92083333D01*
X164350057Y-92083333D02*
X164445295Y-92035714D01*
X164445295Y-92035714D02*
X164588152Y-92035714D01*
X164588152Y-92035714D02*
X164683390Y-92083333D01*
X164683390Y-92083333D02*
X164731009Y-92130952D01*
X164731009Y-92130952D02*
X164778628Y-92226190D01*
X164778628Y-92226190D02*
X164778628Y-92607142D01*
X164350057Y-91654761D02*
X164302438Y-91607142D01*
X164302438Y-91607142D02*
X164254819Y-91511904D01*
X164254819Y-91511904D02*
X164254819Y-91273809D01*
X164254819Y-91273809D02*
X164302438Y-91178571D01*
X164302438Y-91178571D02*
X164350057Y-91130952D01*
X164350057Y-91130952D02*
X164445295Y-91083333D01*
X164445295Y-91083333D02*
X164540533Y-91083333D01*
X164540533Y-91083333D02*
X164683390Y-91130952D01*
X164683390Y-91130952D02*
X165254819Y-91702380D01*
X165254819Y-91702380D02*
X165254819Y-91083333D01*
X164038095Y-97004819D02*
X164609523Y-97004819D01*
X164323809Y-98004819D02*
X164323809Y-97004819D01*
X164847619Y-97004819D02*
X165514285Y-98004819D01*
X165514285Y-97004819D02*
X164847619Y-98004819D01*
D13*
X140888704Y-91233332D02*
X140926800Y-91271428D01*
X140926800Y-91271428D02*
X140964895Y-91385713D01*
X140964895Y-91385713D02*
X140964895Y-91461904D01*
X140964895Y-91461904D02*
X140926800Y-91576190D01*
X140926800Y-91576190D02*
X140850609Y-91652380D01*
X140850609Y-91652380D02*
X140774419Y-91690475D01*
X140774419Y-91690475D02*
X140622038Y-91728571D01*
X140622038Y-91728571D02*
X140507752Y-91728571D01*
X140507752Y-91728571D02*
X140355371Y-91690475D01*
X140355371Y-91690475D02*
X140279180Y-91652380D01*
X140279180Y-91652380D02*
X140202990Y-91576190D01*
X140202990Y-91576190D02*
X140164895Y-91461904D01*
X140164895Y-91461904D02*
X140164895Y-91385713D01*
X140164895Y-91385713D02*
X140202990Y-91271428D01*
X140202990Y-91271428D02*
X140241085Y-91233332D01*
X140241085Y-90928571D02*
X140202990Y-90890475D01*
X140202990Y-90890475D02*
X140164895Y-90814285D01*
X140164895Y-90814285D02*
X140164895Y-90623809D01*
X140164895Y-90623809D02*
X140202990Y-90547618D01*
X140202990Y-90547618D02*
X140241085Y-90509523D01*
X140241085Y-90509523D02*
X140317276Y-90471428D01*
X140317276Y-90471428D02*
X140393466Y-90471428D01*
X140393466Y-90471428D02*
X140507752Y-90509523D01*
X140507752Y-90509523D02*
X140964895Y-90966666D01*
X140964895Y-90966666D02*
X140964895Y-90471428D01*
X142164895Y-115583332D02*
X141783942Y-115849999D01*
X142164895Y-116040475D02*
X141364895Y-116040475D01*
X141364895Y-116040475D02*
X141364895Y-115735713D01*
X141364895Y-115735713D02*
X141402990Y-115659523D01*
X141402990Y-115659523D02*
X141441085Y-115621428D01*
X141441085Y-115621428D02*
X141517276Y-115583332D01*
X141517276Y-115583332D02*
X141631561Y-115583332D01*
X141631561Y-115583332D02*
X141707752Y-115621428D01*
X141707752Y-115621428D02*
X141745847Y-115659523D01*
X141745847Y-115659523D02*
X141783942Y-115735713D01*
X141783942Y-115735713D02*
X141783942Y-116040475D01*
X141441085Y-115278571D02*
X141402990Y-115240475D01*
X141402990Y-115240475D02*
X141364895Y-115164285D01*
X141364895Y-115164285D02*
X141364895Y-114973809D01*
X141364895Y-114973809D02*
X141402990Y-114897618D01*
X141402990Y-114897618D02*
X141441085Y-114859523D01*
X141441085Y-114859523D02*
X141517276Y-114821428D01*
X141517276Y-114821428D02*
X141593466Y-114821428D01*
X141593466Y-114821428D02*
X141707752Y-114859523D01*
X141707752Y-114859523D02*
X142164895Y-115316666D01*
X142164895Y-115316666D02*
X142164895Y-114821428D01*
D15*
X133961905Y-103104819D02*
X133961905Y-102104819D01*
X133961905Y-102104819D02*
X134200000Y-102104819D01*
X134200000Y-102104819D02*
X134342857Y-102152438D01*
X134342857Y-102152438D02*
X134438095Y-102247676D01*
X134438095Y-102247676D02*
X134485714Y-102342914D01*
X134485714Y-102342914D02*
X134533333Y-102533390D01*
X134533333Y-102533390D02*
X134533333Y-102676247D01*
X134533333Y-102676247D02*
X134485714Y-102866723D01*
X134485714Y-102866723D02*
X134438095Y-102961961D01*
X134438095Y-102961961D02*
X134342857Y-103057200D01*
X134342857Y-103057200D02*
X134200000Y-103104819D01*
X134200000Y-103104819D02*
X133961905Y-103104819D01*
X135485714Y-103104819D02*
X134914286Y-103104819D01*
X135200000Y-103104819D02*
X135200000Y-102104819D01*
X135200000Y-102104819D02*
X135104762Y-102247676D01*
X135104762Y-102247676D02*
X135009524Y-102342914D01*
X135009524Y-102342914D02*
X134914286Y-102390533D01*
X139961905Y-108954819D02*
X140580952Y-108954819D01*
X140580952Y-108954819D02*
X140247619Y-109335771D01*
X140247619Y-109335771D02*
X140390476Y-109335771D01*
X140390476Y-109335771D02*
X140485714Y-109383390D01*
X140485714Y-109383390D02*
X140533333Y-109431009D01*
X140533333Y-109431009D02*
X140580952Y-109526247D01*
X140580952Y-109526247D02*
X140580952Y-109764342D01*
X140580952Y-109764342D02*
X140533333Y-109859580D01*
X140533333Y-109859580D02*
X140485714Y-109907200D01*
X140485714Y-109907200D02*
X140390476Y-109954819D01*
X140390476Y-109954819D02*
X140104762Y-109954819D01*
X140104762Y-109954819D02*
X140009524Y-109907200D01*
X140009524Y-109907200D02*
X139961905Y-109859580D01*
X140866667Y-108954819D02*
X141200000Y-109954819D01*
X141200000Y-109954819D02*
X141533333Y-108954819D01*
X141771429Y-108954819D02*
X142390476Y-108954819D01*
X142390476Y-108954819D02*
X142057143Y-109335771D01*
X142057143Y-109335771D02*
X142200000Y-109335771D01*
X142200000Y-109335771D02*
X142295238Y-109383390D01*
X142295238Y-109383390D02*
X142342857Y-109431009D01*
X142342857Y-109431009D02*
X142390476Y-109526247D01*
X142390476Y-109526247D02*
X142390476Y-109764342D01*
X142390476Y-109764342D02*
X142342857Y-109859580D01*
X142342857Y-109859580D02*
X142295238Y-109907200D01*
X142295238Y-109907200D02*
X142200000Y-109954819D01*
X142200000Y-109954819D02*
X141914286Y-109954819D01*
X141914286Y-109954819D02*
X141819048Y-109907200D01*
X141819048Y-109907200D02*
X141771429Y-109859580D01*
X161914286Y-102157200D02*
X162057143Y-102204819D01*
X162057143Y-102204819D02*
X162295238Y-102204819D01*
X162295238Y-102204819D02*
X162390476Y-102157200D01*
X162390476Y-102157200D02*
X162438095Y-102109580D01*
X162438095Y-102109580D02*
X162485714Y-102014342D01*
X162485714Y-102014342D02*
X162485714Y-101919104D01*
X162485714Y-101919104D02*
X162438095Y-101823866D01*
X162438095Y-101823866D02*
X162390476Y-101776247D01*
X162390476Y-101776247D02*
X162295238Y-101728628D01*
X162295238Y-101728628D02*
X162104762Y-101681009D01*
X162104762Y-101681009D02*
X162009524Y-101633390D01*
X162009524Y-101633390D02*
X161961905Y-101585771D01*
X161961905Y-101585771D02*
X161914286Y-101490533D01*
X161914286Y-101490533D02*
X161914286Y-101395295D01*
X161914286Y-101395295D02*
X161961905Y-101300057D01*
X161961905Y-101300057D02*
X162009524Y-101252438D01*
X162009524Y-101252438D02*
X162104762Y-101204819D01*
X162104762Y-101204819D02*
X162342857Y-101204819D01*
X162342857Y-101204819D02*
X162485714Y-101252438D01*
X162914286Y-102204819D02*
X162914286Y-101204819D01*
X162914286Y-101204819D02*
X163152381Y-101204819D01*
X163152381Y-101204819D02*
X163295238Y-101252438D01*
X163295238Y-101252438D02*
X163390476Y-101347676D01*
X163390476Y-101347676D02*
X163438095Y-101442914D01*
X163438095Y-101442914D02*
X163485714Y-101633390D01*
X163485714Y-101633390D02*
X163485714Y-101776247D01*
X163485714Y-101776247D02*
X163438095Y-101966723D01*
X163438095Y-101966723D02*
X163390476Y-102061961D01*
X163390476Y-102061961D02*
X163295238Y-102157200D01*
X163295238Y-102157200D02*
X163152381Y-102204819D01*
X163152381Y-102204819D02*
X162914286Y-102204819D01*
X142400595Y-90604819D02*
X142400595Y-91414342D01*
X142400595Y-91414342D02*
X142448214Y-91509580D01*
X142448214Y-91509580D02*
X142495833Y-91557200D01*
X142495833Y-91557200D02*
X142591071Y-91604819D01*
X142591071Y-91604819D02*
X142781547Y-91604819D01*
X142781547Y-91604819D02*
X142876785Y-91557200D01*
X142876785Y-91557200D02*
X142924404Y-91509580D01*
X142924404Y-91509580D02*
X142972023Y-91414342D01*
X142972023Y-91414342D02*
X142972023Y-90604819D01*
X143924404Y-90604819D02*
X143448214Y-90604819D01*
X143448214Y-90604819D02*
X143400595Y-91081009D01*
X143400595Y-91081009D02*
X143448214Y-91033390D01*
X143448214Y-91033390D02*
X143543452Y-90985771D01*
X143543452Y-90985771D02*
X143781547Y-90985771D01*
X143781547Y-90985771D02*
X143876785Y-91033390D01*
X143876785Y-91033390D02*
X143924404Y-91081009D01*
X143924404Y-91081009D02*
X143972023Y-91176247D01*
X143972023Y-91176247D02*
X143972023Y-91414342D01*
X143972023Y-91414342D02*
X143924404Y-91509580D01*
X143924404Y-91509580D02*
X143876785Y-91557200D01*
X143876785Y-91557200D02*
X143781547Y-91604819D01*
X143781547Y-91604819D02*
X143543452Y-91604819D01*
X143543452Y-91604819D02*
X143448214Y-91557200D01*
X143448214Y-91557200D02*
X143400595Y-91509580D01*
D13*
X145988704Y-99583332D02*
X146026800Y-99621428D01*
X146026800Y-99621428D02*
X146064895Y-99735713D01*
X146064895Y-99735713D02*
X146064895Y-99811904D01*
X146064895Y-99811904D02*
X146026800Y-99926190D01*
X146026800Y-99926190D02*
X145950609Y-100002380D01*
X145950609Y-100002380D02*
X145874419Y-100040475D01*
X145874419Y-100040475D02*
X145722038Y-100078571D01*
X145722038Y-100078571D02*
X145607752Y-100078571D01*
X145607752Y-100078571D02*
X145455371Y-100040475D01*
X145455371Y-100040475D02*
X145379180Y-100002380D01*
X145379180Y-100002380D02*
X145302990Y-99926190D01*
X145302990Y-99926190D02*
X145264895Y-99811904D01*
X145264895Y-99811904D02*
X145264895Y-99735713D01*
X145264895Y-99735713D02*
X145302990Y-99621428D01*
X145302990Y-99621428D02*
X145341085Y-99583332D01*
X145264895Y-99316666D02*
X145264895Y-98821428D01*
X145264895Y-98821428D02*
X145569657Y-99088094D01*
X145569657Y-99088094D02*
X145569657Y-98973809D01*
X145569657Y-98973809D02*
X145607752Y-98897618D01*
X145607752Y-98897618D02*
X145645847Y-98859523D01*
X145645847Y-98859523D02*
X145722038Y-98821428D01*
X145722038Y-98821428D02*
X145912514Y-98821428D01*
X145912514Y-98821428D02*
X145988704Y-98859523D01*
X145988704Y-98859523D02*
X146026800Y-98897618D01*
X146026800Y-98897618D02*
X146064895Y-98973809D01*
X146064895Y-98973809D02*
X146064895Y-99202380D01*
X146064895Y-99202380D02*
X146026800Y-99278571D01*
X146026800Y-99278571D02*
X145988704Y-99316666D01*
D15*
X137666666Y-109654819D02*
X137666666Y-110369104D01*
X137666666Y-110369104D02*
X137619047Y-110511961D01*
X137619047Y-110511961D02*
X137523809Y-110607200D01*
X137523809Y-110607200D02*
X137380952Y-110654819D01*
X137380952Y-110654819D02*
X137285714Y-110654819D01*
X138047619Y-109654819D02*
X138666666Y-109654819D01*
X138666666Y-109654819D02*
X138333333Y-110035771D01*
X138333333Y-110035771D02*
X138476190Y-110035771D01*
X138476190Y-110035771D02*
X138571428Y-110083390D01*
X138571428Y-110083390D02*
X138619047Y-110131009D01*
X138619047Y-110131009D02*
X138666666Y-110226247D01*
X138666666Y-110226247D02*
X138666666Y-110464342D01*
X138666666Y-110464342D02*
X138619047Y-110559580D01*
X138619047Y-110559580D02*
X138571428Y-110607200D01*
X138571428Y-110607200D02*
X138476190Y-110654819D01*
X138476190Y-110654819D02*
X138190476Y-110654819D01*
X138190476Y-110654819D02*
X138095238Y-110607200D01*
X138095238Y-110607200D02*
X138047619Y-110559580D01*
X136838095Y-120254819D02*
X136838095Y-121064342D01*
X136838095Y-121064342D02*
X136885714Y-121159580D01*
X136885714Y-121159580D02*
X136933333Y-121207200D01*
X136933333Y-121207200D02*
X137028571Y-121254819D01*
X137028571Y-121254819D02*
X137219047Y-121254819D01*
X137219047Y-121254819D02*
X137314285Y-121207200D01*
X137314285Y-121207200D02*
X137361904Y-121159580D01*
X137361904Y-121159580D02*
X137409523Y-121064342D01*
X137409523Y-121064342D02*
X137409523Y-120254819D01*
X137838095Y-121207200D02*
X137980952Y-121254819D01*
X137980952Y-121254819D02*
X138219047Y-121254819D01*
X138219047Y-121254819D02*
X138314285Y-121207200D01*
X138314285Y-121207200D02*
X138361904Y-121159580D01*
X138361904Y-121159580D02*
X138409523Y-121064342D01*
X138409523Y-121064342D02*
X138409523Y-120969104D01*
X138409523Y-120969104D02*
X138361904Y-120873866D01*
X138361904Y-120873866D02*
X138314285Y-120826247D01*
X138314285Y-120826247D02*
X138219047Y-120778628D01*
X138219047Y-120778628D02*
X138028571Y-120731009D01*
X138028571Y-120731009D02*
X137933333Y-120683390D01*
X137933333Y-120683390D02*
X137885714Y-120635771D01*
X137885714Y-120635771D02*
X137838095Y-120540533D01*
X137838095Y-120540533D02*
X137838095Y-120445295D01*
X137838095Y-120445295D02*
X137885714Y-120350057D01*
X137885714Y-120350057D02*
X137933333Y-120302438D01*
X137933333Y-120302438D02*
X138028571Y-120254819D01*
X138028571Y-120254819D02*
X138266666Y-120254819D01*
X138266666Y-120254819D02*
X138409523Y-120302438D01*
X139171428Y-120731009D02*
X139314285Y-120778628D01*
X139314285Y-120778628D02*
X139361904Y-120826247D01*
X139361904Y-120826247D02*
X139409523Y-120921485D01*
X139409523Y-120921485D02*
X139409523Y-121064342D01*
X139409523Y-121064342D02*
X139361904Y-121159580D01*
X139361904Y-121159580D02*
X139314285Y-121207200D01*
X139314285Y-121207200D02*
X139219047Y-121254819D01*
X139219047Y-121254819D02*
X138838095Y-121254819D01*
X138838095Y-121254819D02*
X138838095Y-120254819D01*
X138838095Y-120254819D02*
X139171428Y-120254819D01*
X139171428Y-120254819D02*
X139266666Y-120302438D01*
X139266666Y-120302438D02*
X139314285Y-120350057D01*
X139314285Y-120350057D02*
X139361904Y-120445295D01*
X139361904Y-120445295D02*
X139361904Y-120540533D01*
X139361904Y-120540533D02*
X139314285Y-120635771D01*
X139314285Y-120635771D02*
X139266666Y-120683390D01*
X139266666Y-120683390D02*
X139171428Y-120731009D01*
X139171428Y-120731009D02*
X138838095Y-120731009D01*
D13*
X145964895Y-92183332D02*
X145583942Y-92449999D01*
X145964895Y-92640475D02*
X145164895Y-92640475D01*
X145164895Y-92640475D02*
X145164895Y-92335713D01*
X145164895Y-92335713D02*
X145202990Y-92259523D01*
X145202990Y-92259523D02*
X145241085Y-92221428D01*
X145241085Y-92221428D02*
X145317276Y-92183332D01*
X145317276Y-92183332D02*
X145431561Y-92183332D01*
X145431561Y-92183332D02*
X145507752Y-92221428D01*
X145507752Y-92221428D02*
X145545847Y-92259523D01*
X145545847Y-92259523D02*
X145583942Y-92335713D01*
X145583942Y-92335713D02*
X145583942Y-92640475D01*
X145164895Y-91459523D02*
X145164895Y-91840475D01*
X145164895Y-91840475D02*
X145545847Y-91878571D01*
X145545847Y-91878571D02*
X145507752Y-91840475D01*
X145507752Y-91840475D02*
X145469657Y-91764285D01*
X145469657Y-91764285D02*
X145469657Y-91573809D01*
X145469657Y-91573809D02*
X145507752Y-91497618D01*
X145507752Y-91497618D02*
X145545847Y-91459523D01*
X145545847Y-91459523D02*
X145622038Y-91421428D01*
X145622038Y-91421428D02*
X145812514Y-91421428D01*
X145812514Y-91421428D02*
X145888704Y-91459523D01*
X145888704Y-91459523D02*
X145926800Y-91497618D01*
X145926800Y-91497618D02*
X145964895Y-91573809D01*
X145964895Y-91573809D02*
X145964895Y-91764285D01*
X145964895Y-91764285D02*
X145926800Y-91840475D01*
X145926800Y-91840475D02*
X145888704Y-91878571D01*
X167564895Y-104433332D02*
X167183942Y-104699999D01*
X167564895Y-104890475D02*
X166764895Y-104890475D01*
X166764895Y-104890475D02*
X166764895Y-104585713D01*
X166764895Y-104585713D02*
X166802990Y-104509523D01*
X166802990Y-104509523D02*
X166841085Y-104471428D01*
X166841085Y-104471428D02*
X166917276Y-104433332D01*
X166917276Y-104433332D02*
X167031561Y-104433332D01*
X167031561Y-104433332D02*
X167107752Y-104471428D01*
X167107752Y-104471428D02*
X167145847Y-104509523D01*
X167145847Y-104509523D02*
X167183942Y-104585713D01*
X167183942Y-104585713D02*
X167183942Y-104890475D01*
X167564895Y-103671428D02*
X167564895Y-104128571D01*
X167564895Y-103899999D02*
X166764895Y-103899999D01*
X166764895Y-103899999D02*
X166879180Y-103976190D01*
X166879180Y-103976190D02*
X166955371Y-104052380D01*
X166955371Y-104052380D02*
X166993466Y-104128571D01*
D15*
X161254819Y-90611904D02*
X162064342Y-90611904D01*
X162064342Y-90611904D02*
X162159580Y-90564285D01*
X162159580Y-90564285D02*
X162207200Y-90516666D01*
X162207200Y-90516666D02*
X162254819Y-90421428D01*
X162254819Y-90421428D02*
X162254819Y-90230952D01*
X162254819Y-90230952D02*
X162207200Y-90135714D01*
X162207200Y-90135714D02*
X162159580Y-90088095D01*
X162159580Y-90088095D02*
X162064342Y-90040476D01*
X162064342Y-90040476D02*
X161254819Y-90040476D01*
X161254819Y-89659523D02*
X161254819Y-89040476D01*
X161254819Y-89040476D02*
X161635771Y-89373809D01*
X161635771Y-89373809D02*
X161635771Y-89230952D01*
X161635771Y-89230952D02*
X161683390Y-89135714D01*
X161683390Y-89135714D02*
X161731009Y-89088095D01*
X161731009Y-89088095D02*
X161826247Y-89040476D01*
X161826247Y-89040476D02*
X162064342Y-89040476D01*
X162064342Y-89040476D02*
X162159580Y-89088095D01*
X162159580Y-89088095D02*
X162207200Y-89135714D01*
X162207200Y-89135714D02*
X162254819Y-89230952D01*
X162254819Y-89230952D02*
X162254819Y-89516666D01*
X162254819Y-89516666D02*
X162207200Y-89611904D01*
X162207200Y-89611904D02*
X162159580Y-89659523D01*
D12*
X147557143Y-103778409D02*
X147890476Y-103778409D01*
X148033333Y-104302219D02*
X147557143Y-104302219D01*
X147557143Y-104302219D02*
X147557143Y-103302219D01*
X147557143Y-103302219D02*
X148033333Y-103302219D01*
X148414286Y-104254600D02*
X148557143Y-104302219D01*
X148557143Y-104302219D02*
X148795238Y-104302219D01*
X148795238Y-104302219D02*
X148890476Y-104254600D01*
X148890476Y-104254600D02*
X148938095Y-104206980D01*
X148938095Y-104206980D02*
X148985714Y-104111742D01*
X148985714Y-104111742D02*
X148985714Y-104016504D01*
X148985714Y-104016504D02*
X148938095Y-103921266D01*
X148938095Y-103921266D02*
X148890476Y-103873647D01*
X148890476Y-103873647D02*
X148795238Y-103826028D01*
X148795238Y-103826028D02*
X148604762Y-103778409D01*
X148604762Y-103778409D02*
X148509524Y-103730790D01*
X148509524Y-103730790D02*
X148461905Y-103683171D01*
X148461905Y-103683171D02*
X148414286Y-103587933D01*
X148414286Y-103587933D02*
X148414286Y-103492695D01*
X148414286Y-103492695D02*
X148461905Y-103397457D01*
X148461905Y-103397457D02*
X148509524Y-103349838D01*
X148509524Y-103349838D02*
X148604762Y-103302219D01*
X148604762Y-103302219D02*
X148842857Y-103302219D01*
X148842857Y-103302219D02*
X148985714Y-103349838D01*
X149414286Y-104302219D02*
X149414286Y-103302219D01*
X149414286Y-103302219D02*
X149795238Y-103302219D01*
X149795238Y-103302219D02*
X149890476Y-103349838D01*
X149890476Y-103349838D02*
X149938095Y-103397457D01*
X149938095Y-103397457D02*
X149985714Y-103492695D01*
X149985714Y-103492695D02*
X149985714Y-103635552D01*
X149985714Y-103635552D02*
X149938095Y-103730790D01*
X149938095Y-103730790D02*
X149890476Y-103778409D01*
X149890476Y-103778409D02*
X149795238Y-103826028D01*
X149795238Y-103826028D02*
X149414286Y-103826028D01*
X150319048Y-103302219D02*
X150938095Y-103302219D01*
X150938095Y-103302219D02*
X150604762Y-103683171D01*
X150604762Y-103683171D02*
X150747619Y-103683171D01*
X150747619Y-103683171D02*
X150842857Y-103730790D01*
X150842857Y-103730790D02*
X150890476Y-103778409D01*
X150890476Y-103778409D02*
X150938095Y-103873647D01*
X150938095Y-103873647D02*
X150938095Y-104111742D01*
X150938095Y-104111742D02*
X150890476Y-104206980D01*
X150890476Y-104206980D02*
X150842857Y-104254600D01*
X150842857Y-104254600D02*
X150747619Y-104302219D01*
X150747619Y-104302219D02*
X150461905Y-104302219D01*
X150461905Y-104302219D02*
X150366667Y-104254600D01*
X150366667Y-104254600D02*
X150319048Y-104206980D01*
X151319048Y-103397457D02*
X151366667Y-103349838D01*
X151366667Y-103349838D02*
X151461905Y-103302219D01*
X151461905Y-103302219D02*
X151700000Y-103302219D01*
X151700000Y-103302219D02*
X151795238Y-103349838D01*
X151795238Y-103349838D02*
X151842857Y-103397457D01*
X151842857Y-103397457D02*
X151890476Y-103492695D01*
X151890476Y-103492695D02*
X151890476Y-103587933D01*
X151890476Y-103587933D02*
X151842857Y-103730790D01*
X151842857Y-103730790D02*
X151271429Y-104302219D01*
X151271429Y-104302219D02*
X151890476Y-104302219D01*
D15*
X149338094Y-86169104D02*
X149814284Y-86169104D01*
X149242856Y-86454819D02*
X149576189Y-85454819D01*
X149576189Y-85454819D02*
X149909522Y-86454819D01*
X150242856Y-85788152D02*
X150242856Y-86454819D01*
X150242856Y-85883390D02*
X150290475Y-85835771D01*
X150290475Y-85835771D02*
X150385713Y-85788152D01*
X150385713Y-85788152D02*
X150528570Y-85788152D01*
X150528570Y-85788152D02*
X150623808Y-85835771D01*
X150623808Y-85835771D02*
X150671427Y-85931009D01*
X150671427Y-85931009D02*
X150671427Y-86454819D01*
X151004761Y-85788152D02*
X151385713Y-85788152D01*
X151147618Y-85454819D02*
X151147618Y-86311961D01*
X151147618Y-86311961D02*
X151195237Y-86407200D01*
X151195237Y-86407200D02*
X151290475Y-86454819D01*
X151290475Y-86454819D02*
X151385713Y-86454819D01*
X152099999Y-86407200D02*
X152004761Y-86454819D01*
X152004761Y-86454819D02*
X151814285Y-86454819D01*
X151814285Y-86454819D02*
X151719047Y-86407200D01*
X151719047Y-86407200D02*
X151671428Y-86311961D01*
X151671428Y-86311961D02*
X151671428Y-85931009D01*
X151671428Y-85931009D02*
X151719047Y-85835771D01*
X151719047Y-85835771D02*
X151814285Y-85788152D01*
X151814285Y-85788152D02*
X152004761Y-85788152D01*
X152004761Y-85788152D02*
X152099999Y-85835771D01*
X152099999Y-85835771D02*
X152147618Y-85931009D01*
X152147618Y-85931009D02*
X152147618Y-86026247D01*
X152147618Y-86026247D02*
X151671428Y-86121485D01*
X152576190Y-85788152D02*
X152576190Y-86454819D01*
X152576190Y-85883390D02*
X152623809Y-85835771D01*
X152623809Y-85835771D02*
X152719047Y-85788152D01*
X152719047Y-85788152D02*
X152861904Y-85788152D01*
X152861904Y-85788152D02*
X152957142Y-85835771D01*
X152957142Y-85835771D02*
X153004761Y-85931009D01*
X153004761Y-85931009D02*
X153004761Y-86454819D01*
X153480952Y-85788152D02*
X153480952Y-86454819D01*
X153480952Y-85883390D02*
X153528571Y-85835771D01*
X153528571Y-85835771D02*
X153623809Y-85788152D01*
X153623809Y-85788152D02*
X153766666Y-85788152D01*
X153766666Y-85788152D02*
X153861904Y-85835771D01*
X153861904Y-85835771D02*
X153909523Y-85931009D01*
X153909523Y-85931009D02*
X153909523Y-86454819D01*
X154814285Y-86454819D02*
X154814285Y-85931009D01*
X154814285Y-85931009D02*
X154766666Y-85835771D01*
X154766666Y-85835771D02*
X154671428Y-85788152D01*
X154671428Y-85788152D02*
X154480952Y-85788152D01*
X154480952Y-85788152D02*
X154385714Y-85835771D01*
X154814285Y-86407200D02*
X154719047Y-86454819D01*
X154719047Y-86454819D02*
X154480952Y-86454819D01*
X154480952Y-86454819D02*
X154385714Y-86407200D01*
X154385714Y-86407200D02*
X154338095Y-86311961D01*
X154338095Y-86311961D02*
X154338095Y-86216723D01*
X154338095Y-86216723D02*
X154385714Y-86121485D01*
X154385714Y-86121485D02*
X154480952Y-86073866D01*
X154480952Y-86073866D02*
X154719047Y-86073866D01*
X154719047Y-86073866D02*
X154814285Y-86026247D01*
X156004762Y-86169104D02*
X156480952Y-86169104D01*
X155909524Y-86454819D02*
X156242857Y-85454819D01*
X156242857Y-85454819D02*
X156576190Y-86454819D01*
X156909524Y-86454819D02*
X156909524Y-85788152D01*
X156909524Y-85978628D02*
X156957143Y-85883390D01*
X156957143Y-85883390D02*
X157004762Y-85835771D01*
X157004762Y-85835771D02*
X157100000Y-85788152D01*
X157100000Y-85788152D02*
X157195238Y-85788152D01*
X157909524Y-86407200D02*
X157814286Y-86454819D01*
X157814286Y-86454819D02*
X157623810Y-86454819D01*
X157623810Y-86454819D02*
X157528572Y-86407200D01*
X157528572Y-86407200D02*
X157480953Y-86311961D01*
X157480953Y-86311961D02*
X157480953Y-85931009D01*
X157480953Y-85931009D02*
X157528572Y-85835771D01*
X157528572Y-85835771D02*
X157623810Y-85788152D01*
X157623810Y-85788152D02*
X157814286Y-85788152D01*
X157814286Y-85788152D02*
X157909524Y-85835771D01*
X157909524Y-85835771D02*
X157957143Y-85931009D01*
X157957143Y-85931009D02*
X157957143Y-86026247D01*
X157957143Y-86026247D02*
X157480953Y-86121485D01*
X158814286Y-86454819D02*
X158814286Y-85931009D01*
X158814286Y-85931009D02*
X158766667Y-85835771D01*
X158766667Y-85835771D02*
X158671429Y-85788152D01*
X158671429Y-85788152D02*
X158480953Y-85788152D01*
X158480953Y-85788152D02*
X158385715Y-85835771D01*
X158814286Y-86407200D02*
X158719048Y-86454819D01*
X158719048Y-86454819D02*
X158480953Y-86454819D01*
X158480953Y-86454819D02*
X158385715Y-86407200D01*
X158385715Y-86407200D02*
X158338096Y-86311961D01*
X158338096Y-86311961D02*
X158338096Y-86216723D01*
X158338096Y-86216723D02*
X158385715Y-86121485D01*
X158385715Y-86121485D02*
X158480953Y-86073866D01*
X158480953Y-86073866D02*
X158719048Y-86073866D01*
X158719048Y-86073866D02*
X158814286Y-86026247D01*
D16*
%TO.C,TP6*%
X172300000Y-91200000D02*
G75*
G02*
X169900000Y-91200000I-1200000J0D01*
G01*
X169900000Y-91200000D02*
G75*
G02*
X172300000Y-91200000I1200000J0D01*
G01*
%TO.C,C6*%
X139910000Y-93159420D02*
X139910000Y-93440580D01*
X138890000Y-93159420D02*
X138890000Y-93440580D01*
%TO.C,C5*%
X168492164Y-98140000D02*
X168707836Y-98140000D01*
X168492164Y-98860000D02*
X168707836Y-98860000D01*
%TO.C,C4*%
X167940000Y-106307836D02*
X167940000Y-106092164D01*
X168660000Y-106307836D02*
X168660000Y-106092164D01*
%TO.C,U2*%
X166956000Y-109684000D02*
X166956000Y-108378000D01*
X167318000Y-108016000D02*
X168644000Y-108016000D01*
X168644000Y-108016000D02*
X168644000Y-109684000D01*
X168644000Y-109684000D02*
X166956000Y-109684000D01*
X166956000Y-108016000D02*
X166456000Y-108016000D01*
X166956000Y-107516000D01*
X166956000Y-108016000D01*
G36*
X166956000Y-108016000D02*
G01*
X166456000Y-108016000D01*
X166956000Y-107516000D01*
X166956000Y-108016000D01*
G37*
%TO.C,U1*%
X166956000Y-101534000D02*
X166956000Y-100228000D01*
X167318000Y-99866000D02*
X168644000Y-99866000D01*
X168644000Y-99866000D02*
X168644000Y-101534000D01*
X168644000Y-101534000D02*
X166956000Y-101534000D01*
X166956000Y-99866000D02*
X166456000Y-99866000D01*
X166956000Y-99366000D01*
X166956000Y-99866000D01*
G36*
X166956000Y-99866000D02*
G01*
X166456000Y-99866000D01*
X166956000Y-99366000D01*
X166956000Y-99866000D01*
G37*
%TO.C,D2*%
X138610000Y-95050000D02*
X138610000Y-91750000D01*
X138610000Y-95050000D02*
X133100000Y-95050000D01*
X138610000Y-91750000D02*
X133100000Y-91750000D01*
%TO.C,U4*%
X142885000Y-111400000D02*
X142885000Y-109450000D01*
X142885000Y-111400000D02*
X142885000Y-113350000D01*
X153005000Y-111400000D02*
X153005000Y-109450000D01*
X153005000Y-111400000D02*
X153005000Y-113350000D01*
X142940000Y-114100000D02*
X142610000Y-114340000D01*
X142610000Y-113860000D01*
X142940000Y-114100000D01*
G36*
X142940000Y-114100000D02*
G01*
X142610000Y-114340000D01*
X142610000Y-113860000D01*
X142940000Y-114100000D01*
G37*
%TO.C,TP2*%
X159850000Y-104750000D02*
G75*
G02*
X157450000Y-104750000I-1200000J0D01*
G01*
X157450000Y-104750000D02*
G75*
G02*
X159850000Y-104750000I1200000J0D01*
G01*
%TO.C,J1*%
X169940000Y-96640000D02*
X169940000Y-98060000D01*
X169940000Y-98060000D02*
X174440000Y-98060000D01*
X169940000Y-102840000D02*
X174440000Y-102840000D01*
X169940000Y-104260000D02*
X169940000Y-102840000D01*
X170250000Y-101400000D02*
X170850000Y-101700000D01*
X170250000Y-102000000D02*
X170250000Y-101400000D01*
X170850000Y-101700000D02*
X170250000Y-102000000D01*
X174440000Y-98060000D02*
X174440000Y-100450000D01*
X174440000Y-102840000D02*
X174440000Y-100450000D01*
X175550000Y-98950000D02*
X175550000Y-99450000D01*
X175550000Y-99450000D02*
X181050000Y-99450000D01*
X175550000Y-101450000D02*
X175550000Y-101950000D01*
X175550000Y-101950000D02*
X181050000Y-101950000D01*
X181050000Y-98950000D02*
X175550000Y-98950000D01*
X181050000Y-99450000D02*
X181050000Y-98950000D01*
X181050000Y-101450000D02*
X175550000Y-101450000D01*
X181050000Y-101950000D02*
X181050000Y-101450000D01*
X181660000Y-96640000D02*
X169940000Y-96640000D01*
X181660000Y-100450000D02*
X181660000Y-96640000D01*
X181660000Y-100450000D02*
X181660000Y-104260000D01*
X181660000Y-104260000D02*
X169940000Y-104260000D01*
%TO.C,Q1*%
X143262500Y-95390000D02*
X142612500Y-95390000D01*
X143262500Y-95390000D02*
X143912500Y-95390000D01*
X143262500Y-98510000D02*
X142612500Y-98510000D01*
X143262500Y-98510000D02*
X143912500Y-98510000D01*
X142100000Y-95440000D02*
X141860000Y-95110000D01*
X142340000Y-95110000D01*
X142100000Y-95440000D01*
G36*
X142100000Y-95440000D02*
G01*
X141860000Y-95110000D01*
X142340000Y-95110000D01*
X142100000Y-95440000D01*
G37*
%TO.C,J2*%
X169940000Y-105040000D02*
X169940000Y-106460000D01*
X169940000Y-106460000D02*
X174440000Y-106460000D01*
X169940000Y-111240000D02*
X174440000Y-111240000D01*
X169940000Y-112660000D02*
X169940000Y-111240000D01*
X170250000Y-109800000D02*
X170850000Y-110100000D01*
X170250000Y-110400000D02*
X170250000Y-109800000D01*
X170850000Y-110100000D02*
X170250000Y-110400000D01*
X174440000Y-106460000D02*
X174440000Y-108850000D01*
X174440000Y-111240000D02*
X174440000Y-108850000D01*
X175550000Y-107350000D02*
X175550000Y-107850000D01*
X175550000Y-107850000D02*
X181050000Y-107850000D01*
X175550000Y-109850000D02*
X175550000Y-110350000D01*
X175550000Y-110350000D02*
X181050000Y-110350000D01*
X181050000Y-107350000D02*
X175550000Y-107350000D01*
X181050000Y-107850000D02*
X181050000Y-107350000D01*
X181050000Y-109850000D02*
X175550000Y-109850000D01*
X181050000Y-110350000D02*
X181050000Y-109850000D01*
X181660000Y-105040000D02*
X169940000Y-105040000D01*
X181660000Y-108850000D02*
X181660000Y-105040000D01*
X181660000Y-108850000D02*
X181660000Y-112660000D01*
X181660000Y-112660000D02*
X169940000Y-112660000D01*
%TO.C,C1*%
X146340000Y-92207836D02*
X146340000Y-91992164D01*
X147060000Y-92207836D02*
X147060000Y-91992164D01*
%TO.C,R6*%
X146353641Y-94120000D02*
X146046359Y-94120000D01*
X146353641Y-94880000D02*
X146046359Y-94880000D01*
%TO.C,TP3*%
X140600000Y-102350000D02*
G75*
G02*
X138200000Y-102350000I-1200000J0D01*
G01*
X138200000Y-102350000D02*
G75*
G02*
X140600000Y-102350000I1200000J0D01*
G01*
%TO.C,TP5*%
X136150000Y-96700000D02*
G75*
G02*
X133750000Y-96700000I-1200000J0D01*
G01*
X133750000Y-96700000D02*
G75*
G02*
X136150000Y-96700000I1200000J0D01*
G01*
%TO.C,R4*%
X147080000Y-97296359D02*
X147080000Y-97603641D01*
X146320000Y-97296359D02*
X146320000Y-97603641D01*
%TO.C,J6*%
X124940000Y-99190000D02*
X126360000Y-99190000D01*
X124940000Y-110910000D02*
X124940000Y-99190000D01*
X126360000Y-99190000D02*
X126360000Y-103690000D01*
X126360000Y-103690000D02*
X128750000Y-103690000D01*
X127200000Y-99500000D02*
X127800000Y-99500000D01*
X127250000Y-104800000D02*
X127250000Y-110300000D01*
X127250000Y-110300000D02*
X127750000Y-110300000D01*
X127500000Y-100100000D02*
X127200000Y-99500000D01*
X127750000Y-104800000D02*
X127250000Y-104800000D01*
X127750000Y-110300000D02*
X127750000Y-104800000D01*
X127800000Y-99500000D02*
X127500000Y-100100000D01*
X128750000Y-110910000D02*
X124940000Y-110910000D01*
X128750000Y-110910000D02*
X132560000Y-110910000D01*
X129750000Y-104800000D02*
X129750000Y-110300000D01*
X129750000Y-110300000D02*
X130250000Y-110300000D01*
X130250000Y-104800000D02*
X129750000Y-104800000D01*
X130250000Y-110300000D02*
X130250000Y-104800000D01*
X131140000Y-99190000D02*
X131140000Y-103690000D01*
X131140000Y-103690000D02*
X128750000Y-103690000D01*
X132560000Y-99190000D02*
X131140000Y-99190000D01*
X132560000Y-110910000D02*
X132560000Y-99190000D01*
%TO.C,R3*%
X133920000Y-115696359D02*
X133920000Y-116003641D01*
X134680000Y-115696359D02*
X134680000Y-116003641D01*
%TO.C,JP1*%
X161300000Y-95950000D02*
X161300000Y-94550000D01*
X162000000Y-93850000D02*
X162600000Y-93850000D01*
X162600000Y-96650000D02*
X162000000Y-96650000D01*
X163300000Y-94550000D02*
X163300000Y-95950000D01*
X161300000Y-94550000D02*
G75*
G02*
X162000000Y-93850000I700000J0D01*
G01*
X162000000Y-96650000D02*
G75*
G02*
X161300000Y-95950000I-1J699999D01*
G01*
X162600000Y-93850000D02*
G75*
G02*
X163300000Y-94550000I0J-700000D01*
G01*
X163300000Y-95950000D02*
G75*
G02*
X162600000Y-96650000I-699999J-1D01*
G01*
%TO.C,Q2*%
X139362500Y-95390000D02*
X138712500Y-95390000D01*
X139362500Y-95390000D02*
X140012500Y-95390000D01*
X139362500Y-98510000D02*
X138712500Y-98510000D01*
X139362500Y-98510000D02*
X140012500Y-98510000D01*
X140765000Y-98790000D02*
X140285000Y-98790000D01*
X140525000Y-98460000D01*
X140765000Y-98790000D01*
G36*
X140765000Y-98790000D02*
G01*
X140285000Y-98790000D01*
X140525000Y-98460000D01*
X140765000Y-98790000D01*
G37*
%TO.C,JP2*%
X164500000Y-93850000D02*
X165100000Y-93850000D01*
X165800000Y-94550000D02*
X165800000Y-95950000D01*
X163800000Y-95950000D02*
X163800000Y-94550000D01*
X165100000Y-96650000D02*
X164500000Y-96650000D01*
X165100000Y-93850000D02*
G75*
G02*
X165800000Y-94550000I1J-699999D01*
G01*
X163800000Y-94550000D02*
G75*
G02*
X164500000Y-93850000I699999J1D01*
G01*
X165800000Y-95950000D02*
G75*
G02*
X165100000Y-96650000I-700000J0D01*
G01*
X164500000Y-96650000D02*
G75*
G02*
X163800000Y-95950000I0J700000D01*
G01*
%TO.C,C2*%
X140240000Y-93012164D02*
X140240000Y-93227836D01*
X140960000Y-93012164D02*
X140960000Y-93227836D01*
%TO.C,R2*%
X141420000Y-113406359D02*
X141420000Y-113713641D01*
X142180000Y-113406359D02*
X142180000Y-113713641D01*
%TO.C,D1*%
X133050000Y-103390000D02*
X133050000Y-108900000D01*
X136350000Y-103390000D02*
X133050000Y-103390000D01*
X136350000Y-103390000D02*
X136350000Y-108900000D01*
%TO.C,TP4*%
X142400000Y-107450000D02*
G75*
G02*
X140000000Y-107450000I-1200000J0D01*
G01*
X140000000Y-107450000D02*
G75*
G02*
X142400000Y-107450000I1200000J0D01*
G01*
%TO.C,TP1*%
X163900000Y-99600000D02*
G75*
G02*
X161500000Y-99600000I-1200000J0D01*
G01*
X161500000Y-99600000D02*
G75*
G02*
X163900000Y-99600000I1200000J0D01*
G01*
%TO.C,U5*%
X143162500Y-91990000D02*
X142362500Y-91990000D01*
X143162500Y-91990000D02*
X143962500Y-91990000D01*
X143162500Y-95110000D02*
X142362500Y-95110000D01*
X143162500Y-95110000D02*
X143962500Y-95110000D01*
X141862500Y-92040000D02*
X141622500Y-91710000D01*
X142102500Y-91710000D01*
X141862500Y-92040000D01*
G36*
X141862500Y-92040000D02*
G01*
X141622500Y-91710000D01*
X142102500Y-91710000D01*
X141862500Y-92040000D01*
G37*
%TO.C,C3*%
X146060000Y-97342164D02*
X146060000Y-97557836D01*
X145340000Y-97342164D02*
X145340000Y-97557836D01*
%TO.C,J3*%
X136030000Y-111180000D02*
X136030000Y-111980000D01*
X136030000Y-111180000D02*
X136930000Y-111180000D01*
X136030000Y-119720000D02*
X136030000Y-118920000D01*
X136030000Y-119720000D02*
X136930000Y-119720000D01*
X140070000Y-111180000D02*
X139170000Y-111180000D01*
X140070000Y-111180000D02*
X140070000Y-111980000D01*
X140070000Y-119720000D02*
X139170000Y-119720000D01*
X140070000Y-119720000D02*
X140070000Y-118920000D01*
X140220000Y-111030000D02*
X139720000Y-111030000D01*
X140220000Y-111030000D02*
X140220000Y-111530000D01*
%TO.C,R5*%
X146046359Y-93120000D02*
X146353641Y-93120000D01*
X146046359Y-93880000D02*
X146353641Y-93880000D01*
%TO.C,R1*%
X166820000Y-105986359D02*
X166820000Y-106293641D01*
X167580000Y-105986359D02*
X167580000Y-106293641D01*
%TO.C,U3*%
X147200000Y-102050000D02*
X147200000Y-102850000D01*
X147200000Y-102850000D02*
X148000000Y-102850000D01*
X147500000Y-83550000D02*
X160700000Y-83550000D01*
X147500000Y-88950000D02*
X160700000Y-88950000D01*
X147500000Y-102550000D02*
X147500000Y-83550000D01*
X148175000Y-83250000D02*
X147200000Y-83250000D01*
X160250000Y-83250000D02*
X161000000Y-83250000D01*
X160700000Y-83550000D02*
X160700000Y-102550000D01*
X160700000Y-102550000D02*
X147500000Y-102550000D01*
X161000000Y-83250000D02*
X161000000Y-83850000D01*
X161000000Y-102050000D02*
X161000000Y-102850000D01*
X161000000Y-102850000D02*
X160200000Y-102850000D01*
%TD*%
%LPC*%
D17*
%TO.C,TP6*%
X171100000Y-91200000D03*
%TD*%
D18*
%TO.C,C6*%
X139400000Y-92525000D03*
X139400000Y-94075000D03*
%TD*%
D19*
%TO.C,C5*%
X168120000Y-98500000D03*
X169080000Y-98500000D03*
%TD*%
D20*
%TO.C,C4*%
X168300000Y-106680000D03*
X168300000Y-105720000D03*
%TD*%
D21*
%TO.C,U2*%
X167400000Y-108450000D03*
X167800000Y-108450000D03*
X168200000Y-108450000D03*
X167400000Y-108850000D03*
X167800000Y-108850000D03*
X168200000Y-108850000D03*
X167400000Y-109250000D03*
X167800000Y-109250000D03*
X168200000Y-109250000D03*
%TD*%
%TO.C,U1*%
X167400000Y-100300000D03*
X167800000Y-100300000D03*
X168200000Y-100300000D03*
X167400000Y-100700000D03*
X167800000Y-100700000D03*
X168200000Y-100700000D03*
X167400000Y-101100000D03*
X167800000Y-101100000D03*
X168200000Y-101100000D03*
%TD*%
D22*
%TO.C,D2*%
X137100000Y-93400000D03*
X133100000Y-93400000D03*
%TD*%
D23*
%TO.C,U4*%
X143500000Y-113875000D03*
X144770000Y-113875000D03*
X146040000Y-113875000D03*
X147310000Y-113875000D03*
X148580000Y-113875000D03*
X149850000Y-113875000D03*
X151120000Y-113875000D03*
X152390000Y-113875000D03*
X152390000Y-108925000D03*
X151120000Y-108925000D03*
X149850000Y-108925000D03*
X148580000Y-108925000D03*
X147310000Y-108925000D03*
X146040000Y-108925000D03*
X144770000Y-108925000D03*
X143500000Y-108925000D03*
%TD*%
D17*
%TO.C,TP2*%
X158650000Y-104750000D03*
%TD*%
D24*
%TO.C,J1*%
X172350000Y-101700000D03*
D25*
X172350000Y-99200000D03*
%TD*%
D26*
%TO.C,Q1*%
X142325000Y-96000000D03*
X142325000Y-97900000D03*
X144200000Y-96950000D03*
%TD*%
D27*
%TO.C,H3*%
X128100000Y-120100000D03*
%TD*%
D24*
%TO.C,J2*%
X172350000Y-110100000D03*
D25*
X172350000Y-107600000D03*
%TD*%
D20*
%TO.C,C1*%
X146700000Y-92580000D03*
X146700000Y-91620000D03*
%TD*%
D28*
%TO.C,J4*%
X127560000Y-97000000D03*
D29*
X130100000Y-97000000D03*
%TD*%
D30*
%TO.C,R6*%
X146710000Y-94500000D03*
X145690000Y-94500000D03*
%TD*%
D17*
%TO.C,TP3*%
X139400000Y-102350000D03*
%TD*%
%TO.C,TP5*%
X134950000Y-96700000D03*
%TD*%
D31*
%TO.C,R4*%
X146700000Y-97960000D03*
X146700000Y-96940000D03*
%TD*%
D32*
%TO.C,J6*%
X127500000Y-101600000D03*
D33*
X130000000Y-101600000D03*
%TD*%
D29*
%TO.C,J5*%
X165485000Y-120150000D03*
X162945000Y-120150000D03*
X160405000Y-120150000D03*
X157865000Y-120150000D03*
D28*
X155325000Y-120150000D03*
%TD*%
D31*
%TO.C,R3*%
X134300000Y-115340000D03*
X134300000Y-116360000D03*
%TD*%
D34*
%TO.C,JP1*%
X162300000Y-95900000D03*
D35*
X162300000Y-94600000D03*
%TD*%
D27*
%TO.C,H1*%
X128100000Y-92100000D03*
%TD*%
D36*
%TO.C,Q2*%
X140300000Y-97900000D03*
X140300000Y-96000000D03*
X138425000Y-96950000D03*
%TD*%
D37*
%TO.C,JP2*%
X164800000Y-94600000D03*
D38*
X164800000Y-95900000D03*
%TD*%
D39*
%TO.C,C2*%
X140600000Y-92640000D03*
X140600000Y-93600000D03*
%TD*%
D31*
%TO.C,R2*%
X141800000Y-113050000D03*
X141800000Y-114070000D03*
%TD*%
D40*
%TO.C,D1*%
X134700000Y-104900000D03*
X134700000Y-108900000D03*
%TD*%
D17*
%TO.C,TP4*%
X141200000Y-107450000D03*
%TD*%
%TO.C,TP1*%
X162700000Y-99600000D03*
%TD*%
D41*
%TO.C,U5*%
X142025000Y-92600000D03*
X142025000Y-93550000D03*
X142025000Y-94500000D03*
X144300000Y-94500000D03*
X144300000Y-92600000D03*
%TD*%
D27*
%TO.C,H4*%
X178100000Y-120100000D03*
%TD*%
D39*
%TO.C,C3*%
X145700000Y-97930000D03*
X145700000Y-96970000D03*
%TD*%
D27*
%TO.C,H2*%
X178100000Y-92100000D03*
%TD*%
D42*
%TO.C,J3*%
X138050000Y-111700000D03*
D43*
X138050000Y-119200000D03*
D44*
X138810000Y-112670000D03*
X138810000Y-113460000D03*
X138810000Y-114250000D03*
X138810000Y-115040000D03*
X138810000Y-115830000D03*
X138810000Y-116620000D03*
X138810000Y-117410000D03*
X138810000Y-118200000D03*
X137290000Y-118200000D03*
X137290000Y-117410000D03*
X137290000Y-116620000D03*
X137290000Y-115830000D03*
X137290000Y-115040000D03*
X137290000Y-114250000D03*
X137290000Y-113460000D03*
X137290000Y-112670000D03*
D45*
X140200000Y-113050000D03*
X135900000Y-113050000D03*
X140200000Y-117850000D03*
X135900000Y-117850000D03*
%TD*%
D46*
%TO.C,R5*%
X145690000Y-93500000D03*
X146710000Y-93500000D03*
%TD*%
D31*
%TO.C,R1*%
X167200000Y-105630000D03*
X167200000Y-106650000D03*
%TD*%
D47*
%TO.C,U3*%
X148200000Y-90950000D03*
X148200000Y-91750000D03*
X148200000Y-92550000D03*
X148200000Y-93350000D03*
X148200000Y-94150000D03*
X148200000Y-94950000D03*
X148200000Y-95750000D03*
X148200000Y-96550000D03*
X148200000Y-97350000D03*
X148200000Y-98150000D03*
X148200000Y-98950000D03*
X148200000Y-99750000D03*
X148200000Y-100550000D03*
D48*
X148900000Y-101800000D03*
X149700000Y-101800000D03*
X150500000Y-101800000D03*
X151300000Y-101800000D03*
X152100000Y-101800000D03*
X152900000Y-101800000D03*
X153700000Y-101800000D03*
X154500000Y-101800000D03*
X155300000Y-101800000D03*
X156100000Y-101800000D03*
X156900000Y-101800000D03*
X157700000Y-101800000D03*
X158500000Y-101800000D03*
X159300000Y-101800000D03*
D47*
X160000000Y-100550000D03*
X160000000Y-99750000D03*
X160000000Y-98950000D03*
X160000000Y-98150000D03*
X160000000Y-97350000D03*
X160000000Y-96550000D03*
X160000000Y-95750000D03*
X160000000Y-94950000D03*
X160000000Y-94150000D03*
X160000000Y-93350000D03*
X160000000Y-92550000D03*
X160000000Y-91750000D03*
X160000000Y-90950000D03*
D48*
X159300000Y-89700000D03*
X158500000Y-89700000D03*
X157700000Y-89700000D03*
X156900000Y-89700000D03*
X156100000Y-89700000D03*
X155300000Y-89700000D03*
X154500000Y-89700000D03*
X153700000Y-89700000D03*
X152900000Y-89700000D03*
X152100000Y-89700000D03*
X151300000Y-89700000D03*
X150500000Y-89700000D03*
X149700000Y-89700000D03*
X148900000Y-89700000D03*
D49*
X152600000Y-94250000D03*
D50*
X152600000Y-95750000D03*
X152600000Y-97250000D03*
X154100000Y-94250000D03*
X154100000Y-95750000D03*
X154100000Y-97250000D03*
X155600000Y-94250000D03*
X155600000Y-95750000D03*
X155600000Y-97250000D03*
%TD*%
D17*
%TO.C,SW1*%
X143900000Y-100900000D03*
X137400000Y-100900000D03*
X143900000Y-105400000D03*
X137400000Y-105400000D03*
%TD*%
%TO.C,SW2*%
X161000000Y-104200000D03*
X154500000Y-104200000D03*
X161000000Y-108700000D03*
X154500000Y-108700000D03*
%TD*%
%LPD*%
M02*
