%TF.GenerationSoftware,KiCad,Pcbnew,8.0.1*%
%TF.CreationDate,2025-02-14T15:05:20+08:00*%
%TF.ProjectId,SpeakerDriver,53706561-6b65-4724-9472-697665722e6b,rev?*%
%TF.SameCoordinates,Original*%
%TF.FileFunction,Paste,Top*%
%TF.FilePolarity,Positive*%
%FSLAX46Y46*%
G04 Gerber Fmt 4.6, Leading zero omitted, Abs format (unit mm)*
G04 Created by KiCad (PCBNEW 8.0.1) date 2025-02-14 15:05:20*
%MOMM*%
%LPD*%
G01*
G04 APERTURE LIST*
G04 Aperture macros list*
%AMRoundRect*
0 Rectangle with rounded corners*
0 $1 Rounding radius*
0 $2 $3 $4 $5 $6 $7 $8 $9 X,Y pos of 4 corners*
0 Add a 4 corners polygon primitive as box body*
4,1,4,$2,$3,$4,$5,$6,$7,$8,$9,$2,$3,0*
0 Add four circle primitives for the rounded corners*
1,1,$1+$1,$2,$3*
1,1,$1+$1,$4,$5*
1,1,$1+$1,$6,$7*
1,1,$1+$1,$8,$9*
0 Add four rect primitives between the rounded corners*
20,1,$1+$1,$2,$3,$4,$5,0*
20,1,$1+$1,$4,$5,$6,$7,0*
20,1,$1+$1,$6,$7,$8,$9,0*
20,1,$1+$1,$8,$9,$2,$3,0*%
%AMFreePoly0*
4,1,6,0.500000,-0.100000,0.500000,-0.500000,-0.500000,-0.500000,-0.500000,0.500000,-0.100000,0.500000,0.500000,-0.100000,0.500000,-0.100000,$1*%
G04 Aperture macros list end*
%ADD10RoundRect,0.225000X-0.250000X0.225000X-0.250000X-0.225000X0.250000X-0.225000X0.250000X0.225000X0*%
%ADD11RoundRect,0.140000X-0.140000X-0.170000X0.140000X-0.170000X0.140000X0.170000X-0.140000X0.170000X0*%
%ADD12RoundRect,0.140000X0.170000X-0.140000X0.170000X0.140000X-0.170000X0.140000X-0.170000X-0.140000X0*%
%ADD13C,0.270002*%
%ADD14RoundRect,0.250000X1.000000X0.650000X-1.000000X0.650000X-1.000000X-0.650000X1.000000X-0.650000X0*%
%ADD15RoundRect,0.150000X0.150000X-0.825000X0.150000X0.825000X-0.150000X0.825000X-0.150000X-0.825000X0*%
%ADD16RoundRect,0.150000X-0.587500X-0.150000X0.587500X-0.150000X0.587500X0.150000X-0.587500X0.150000X0*%
%ADD17RoundRect,0.135000X0.135000X0.185000X-0.135000X0.185000X-0.135000X-0.185000X0.135000X-0.185000X0*%
%ADD18RoundRect,0.135000X-0.185000X0.135000X-0.185000X-0.135000X0.185000X-0.135000X0.185000X0.135000X0*%
%ADD19RoundRect,0.150000X0.587500X0.150000X-0.587500X0.150000X-0.587500X-0.150000X0.587500X-0.150000X0*%
%ADD20RoundRect,0.140000X-0.170000X0.140000X-0.170000X-0.140000X0.170000X-0.140000X0.170000X0.140000X0*%
%ADD21RoundRect,0.250000X-0.650000X1.000000X-0.650000X-1.000000X0.650000X-1.000000X0.650000X1.000000X0*%
%ADD22RoundRect,0.150000X-0.512500X-0.150000X0.512500X-0.150000X0.512500X0.150000X-0.512500X0.150000X0*%
%ADD23RoundRect,0.075000X-0.425000X0.075000X-0.425000X-0.075000X0.425000X-0.075000X0.425000X0.075000X0*%
%ADD24C,1.100000*%
%ADD25RoundRect,0.135000X-0.135000X-0.185000X0.135000X-0.185000X0.135000X0.185000X-0.135000X0.185000X0*%
%ADD26R,0.800000X0.400000*%
%ADD27R,0.400000X0.800000*%
%ADD28FreePoly0,90.000000*%
%ADD29R,1.000000X1.000000*%
G04 APERTURE END LIST*
D10*
%TO.C,C6*%
X139400000Y-92525000D03*
X139400000Y-94075000D03*
%TD*%
D11*
%TO.C,C5*%
X168120000Y-98500000D03*
X169080000Y-98500000D03*
%TD*%
D12*
%TO.C,C4*%
X168300000Y-106680000D03*
X168300000Y-105720000D03*
%TD*%
D13*
%TO.C,U2*%
X167400000Y-108450000D03*
X167800000Y-108450000D03*
X168200000Y-108450000D03*
X167400000Y-108850000D03*
X167800000Y-108850000D03*
X168200000Y-108850000D03*
X167400000Y-109250000D03*
X167800000Y-109250000D03*
X168200000Y-109250000D03*
%TD*%
%TO.C,U1*%
X167400000Y-100300000D03*
X167800000Y-100300000D03*
X168200000Y-100300000D03*
X167400000Y-100700000D03*
X167800000Y-100700000D03*
X168200000Y-100700000D03*
X167400000Y-101100000D03*
X167800000Y-101100000D03*
X168200000Y-101100000D03*
%TD*%
D14*
%TO.C,D2*%
X137100000Y-93400000D03*
X133100000Y-93400000D03*
%TD*%
D15*
%TO.C,U4*%
X143500000Y-113875000D03*
X144770000Y-113875000D03*
X146040000Y-113875000D03*
X147310000Y-113875000D03*
X148580000Y-113875000D03*
X149850000Y-113875000D03*
X151120000Y-113875000D03*
X152390000Y-113875000D03*
X152390000Y-108925000D03*
X151120000Y-108925000D03*
X149850000Y-108925000D03*
X148580000Y-108925000D03*
X147310000Y-108925000D03*
X146040000Y-108925000D03*
X144770000Y-108925000D03*
X143500000Y-108925000D03*
%TD*%
D16*
%TO.C,Q1*%
X142325000Y-96000000D03*
X142325000Y-97900000D03*
X144200000Y-96950000D03*
%TD*%
D12*
%TO.C,C1*%
X146700000Y-92580000D03*
X146700000Y-91620000D03*
%TD*%
D17*
%TO.C,R6*%
X146710000Y-94500000D03*
X145690000Y-94500000D03*
%TD*%
D18*
%TO.C,R4*%
X146700000Y-97960000D03*
X146700000Y-96940000D03*
%TD*%
%TO.C,R3*%
X134300000Y-115340000D03*
X134300000Y-116360000D03*
%TD*%
D19*
%TO.C,Q2*%
X140300000Y-97900000D03*
X140300000Y-96000000D03*
X138425000Y-96950000D03*
%TD*%
D20*
%TO.C,C2*%
X140600000Y-92640000D03*
X140600000Y-93600000D03*
%TD*%
D18*
%TO.C,R2*%
X141800000Y-113050000D03*
X141800000Y-114070000D03*
%TD*%
D21*
%TO.C,D1*%
X134700000Y-104900000D03*
X134700000Y-108900000D03*
%TD*%
D22*
%TO.C,U5*%
X142025000Y-92600000D03*
X142025000Y-93550000D03*
X142025000Y-94500000D03*
X144300000Y-94500000D03*
X144300000Y-92600000D03*
%TD*%
D20*
%TO.C,C3*%
X145700000Y-97930000D03*
X145700000Y-96970000D03*
%TD*%
D23*
%TO.C,J3*%
X138810000Y-112670000D03*
X138810000Y-113460000D03*
X138810000Y-114250000D03*
X138810000Y-115040000D03*
X138810000Y-115830000D03*
X138810000Y-116620000D03*
X138810000Y-117410000D03*
X138810000Y-118200000D03*
X137290000Y-118200000D03*
X137290000Y-117410000D03*
X137290000Y-116620000D03*
X137290000Y-115830000D03*
X137290000Y-115040000D03*
X137290000Y-114250000D03*
X137290000Y-113460000D03*
X137290000Y-112670000D03*
D24*
X140200000Y-113050000D03*
X135900000Y-113050000D03*
X140200000Y-117850000D03*
X135900000Y-117850000D03*
%TD*%
D25*
%TO.C,R5*%
X145690000Y-93500000D03*
X146710000Y-93500000D03*
%TD*%
D18*
%TO.C,R1*%
X167200000Y-105630000D03*
X167200000Y-106650000D03*
%TD*%
D26*
%TO.C,U3*%
X148200000Y-90950000D03*
X148200000Y-91750000D03*
X148200000Y-92550000D03*
X148200000Y-93350000D03*
X148200000Y-94150000D03*
X148200000Y-94950000D03*
X148200000Y-95750000D03*
X148200000Y-96550000D03*
X148200000Y-97350000D03*
X148200000Y-98150000D03*
X148200000Y-98950000D03*
X148200000Y-99750000D03*
X148200000Y-100550000D03*
D27*
X148900000Y-101800000D03*
X149700000Y-101800000D03*
X150500000Y-101800000D03*
X151300000Y-101800000D03*
X152100000Y-101800000D03*
X152900000Y-101800000D03*
X153700000Y-101800000D03*
X154500000Y-101800000D03*
X155300000Y-101800000D03*
X156100000Y-101800000D03*
X156900000Y-101800000D03*
X157700000Y-101800000D03*
X158500000Y-101800000D03*
X159300000Y-101800000D03*
D26*
X160000000Y-100550000D03*
X160000000Y-99750000D03*
X160000000Y-98950000D03*
X160000000Y-98150000D03*
X160000000Y-97350000D03*
X160000000Y-96550000D03*
X160000000Y-95750000D03*
X160000000Y-94950000D03*
X160000000Y-94150000D03*
X160000000Y-93350000D03*
X160000000Y-92550000D03*
X160000000Y-91750000D03*
X160000000Y-90950000D03*
D27*
X159300000Y-89700000D03*
X158500000Y-89700000D03*
X157700000Y-89700000D03*
X156900000Y-89700000D03*
X156100000Y-89700000D03*
X155300000Y-89700000D03*
X154500000Y-89700000D03*
X153700000Y-89700000D03*
X152900000Y-89700000D03*
X152100000Y-89700000D03*
X151300000Y-89700000D03*
X150500000Y-89700000D03*
X149700000Y-89700000D03*
X148900000Y-89700000D03*
D28*
X152600000Y-94250000D03*
D29*
X152600000Y-95750000D03*
X152600000Y-97250000D03*
X154100000Y-94250000D03*
X154100000Y-95750000D03*
X154100000Y-97250000D03*
X155600000Y-94250000D03*
X155600000Y-95750000D03*
X155600000Y-97250000D03*
%TD*%
M02*
