%TF.GenerationSoftware,KiCad,Pcbnew,8.0.1*%
%TF.CreationDate,2025-02-14T15:05:20+08:00*%
%TF.ProjectId,SpeakerDriver,53706561-6b65-4724-9472-697665722e6b,rev?*%
%TF.SameCoordinates,Original*%
%TF.FileFunction,Legend,Bot*%
%TF.FilePolarity,Positive*%
%FSLAX46Y46*%
G04 Gerber Fmt 4.6, Leading zero omitted, Abs format (unit mm)*
G04 Created by KiCad (PCBNEW 8.0.1) date 2025-02-14 15:05:20*
%MOMM*%
%LPD*%
G01*
G04 APERTURE LIST*
G04 Aperture macros list*
%AMRoundRect*
0 Rectangle with rounded corners*
0 $1 Rounding radius*
0 $2 $3 $4 $5 $6 $7 $8 $9 X,Y pos of 4 corners*
0 Add a 4 corners polygon primitive as box body*
4,1,4,$2,$3,$4,$5,$6,$7,$8,$9,$2,$3,0*
0 Add four circle primitives for the rounded corners*
1,1,$1+$1,$2,$3*
1,1,$1+$1,$4,$5*
1,1,$1+$1,$6,$7*
1,1,$1+$1,$8,$9*
0 Add four rect primitives between the rounded corners*
20,1,$1+$1,$2,$3,$4,$5,0*
20,1,$1+$1,$4,$5,$6,$7,0*
20,1,$1+$1,$6,$7,$8,$9,0*
20,1,$1+$1,$8,$9,$2,$3,0*%
G04 Aperture macros list end*
%ADD10C,0.100000*%
%ADD11C,0.360000*%
%ADD12C,0.250000*%
%ADD13C,0.400000*%
%ADD14C,0.150000*%
%ADD15C,0.120000*%
%ADD16RoundRect,0.250000X0.750000X-0.600000X0.750000X0.600000X-0.750000X0.600000X-0.750000X-0.600000X0*%
%ADD17O,2.000000X1.700000*%
%ADD18C,5.600000*%
%ADD19R,1.700000X1.700000*%
%ADD20O,1.700000X1.700000*%
%ADD21RoundRect,0.250000X-0.600000X-0.750000X0.600000X-0.750000X0.600000X0.750000X-0.600000X0.750000X0*%
%ADD22O,1.700000X2.000000*%
%ADD23C,0.660000*%
%ADD24O,0.580000X1.000000*%
%ADD25C,1.100000*%
%ADD26C,2.000000*%
G04 APERTURE END LIST*
D10*
X180596895Y-95995237D02*
X179796895Y-95995237D01*
X179796895Y-95995237D02*
X179796895Y-96185713D01*
X179796895Y-96185713D02*
X179834990Y-96299999D01*
X179834990Y-96299999D02*
X179911180Y-96376189D01*
X179911180Y-96376189D02*
X179987371Y-96414284D01*
X179987371Y-96414284D02*
X180139752Y-96452380D01*
X180139752Y-96452380D02*
X180254038Y-96452380D01*
X180254038Y-96452380D02*
X180406419Y-96414284D01*
X180406419Y-96414284D02*
X180482609Y-96376189D01*
X180482609Y-96376189D02*
X180558800Y-96299999D01*
X180558800Y-96299999D02*
X180596895Y-96185713D01*
X180596895Y-96185713D02*
X180596895Y-95995237D01*
X180558800Y-97099999D02*
X180596895Y-97023808D01*
X180596895Y-97023808D02*
X180596895Y-96871427D01*
X180596895Y-96871427D02*
X180558800Y-96795237D01*
X180558800Y-96795237D02*
X180482609Y-96757141D01*
X180482609Y-96757141D02*
X180177847Y-96757141D01*
X180177847Y-96757141D02*
X180101657Y-96795237D01*
X180101657Y-96795237D02*
X180063561Y-96871427D01*
X180063561Y-96871427D02*
X180063561Y-97023808D01*
X180063561Y-97023808D02*
X180101657Y-97099999D01*
X180101657Y-97099999D02*
X180177847Y-97138094D01*
X180177847Y-97138094D02*
X180254038Y-97138094D01*
X180254038Y-97138094D02*
X180330228Y-96757141D01*
X180558800Y-97442855D02*
X180596895Y-97519046D01*
X180596895Y-97519046D02*
X180596895Y-97671427D01*
X180596895Y-97671427D02*
X180558800Y-97747617D01*
X180558800Y-97747617D02*
X180482609Y-97785713D01*
X180482609Y-97785713D02*
X180444514Y-97785713D01*
X180444514Y-97785713D02*
X180368323Y-97747617D01*
X180368323Y-97747617D02*
X180330228Y-97671427D01*
X180330228Y-97671427D02*
X180330228Y-97557141D01*
X180330228Y-97557141D02*
X180292133Y-97480951D01*
X180292133Y-97480951D02*
X180215942Y-97442855D01*
X180215942Y-97442855D02*
X180177847Y-97442855D01*
X180177847Y-97442855D02*
X180101657Y-97480951D01*
X180101657Y-97480951D02*
X180063561Y-97557141D01*
X180063561Y-97557141D02*
X180063561Y-97671427D01*
X180063561Y-97671427D02*
X180101657Y-97747617D01*
X180596895Y-98128570D02*
X180063561Y-98128570D01*
X179796895Y-98128570D02*
X179834990Y-98090474D01*
X179834990Y-98090474D02*
X179873085Y-98128570D01*
X179873085Y-98128570D02*
X179834990Y-98166665D01*
X179834990Y-98166665D02*
X179796895Y-98128570D01*
X179796895Y-98128570D02*
X179873085Y-98128570D01*
X180063561Y-98852379D02*
X180711180Y-98852379D01*
X180711180Y-98852379D02*
X180787371Y-98814284D01*
X180787371Y-98814284D02*
X180825466Y-98776188D01*
X180825466Y-98776188D02*
X180863561Y-98699998D01*
X180863561Y-98699998D02*
X180863561Y-98585712D01*
X180863561Y-98585712D02*
X180825466Y-98509522D01*
X180558800Y-98852379D02*
X180596895Y-98776188D01*
X180596895Y-98776188D02*
X180596895Y-98623807D01*
X180596895Y-98623807D02*
X180558800Y-98547617D01*
X180558800Y-98547617D02*
X180520704Y-98509522D01*
X180520704Y-98509522D02*
X180444514Y-98471426D01*
X180444514Y-98471426D02*
X180215942Y-98471426D01*
X180215942Y-98471426D02*
X180139752Y-98509522D01*
X180139752Y-98509522D02*
X180101657Y-98547617D01*
X180101657Y-98547617D02*
X180063561Y-98623807D01*
X180063561Y-98623807D02*
X180063561Y-98776188D01*
X180063561Y-98776188D02*
X180101657Y-98852379D01*
X180063561Y-99233332D02*
X180596895Y-99233332D01*
X180139752Y-99233332D02*
X180101657Y-99271427D01*
X180101657Y-99271427D02*
X180063561Y-99347617D01*
X180063561Y-99347617D02*
X180063561Y-99461903D01*
X180063561Y-99461903D02*
X180101657Y-99538094D01*
X180101657Y-99538094D02*
X180177847Y-99576189D01*
X180177847Y-99576189D02*
X180596895Y-99576189D01*
X180558800Y-100261904D02*
X180596895Y-100185713D01*
X180596895Y-100185713D02*
X180596895Y-100033332D01*
X180596895Y-100033332D02*
X180558800Y-99957142D01*
X180558800Y-99957142D02*
X180482609Y-99919046D01*
X180482609Y-99919046D02*
X180177847Y-99919046D01*
X180177847Y-99919046D02*
X180101657Y-99957142D01*
X180101657Y-99957142D02*
X180063561Y-100033332D01*
X180063561Y-100033332D02*
X180063561Y-100185713D01*
X180063561Y-100185713D02*
X180101657Y-100261904D01*
X180101657Y-100261904D02*
X180177847Y-100299999D01*
X180177847Y-100299999D02*
X180254038Y-100299999D01*
X180254038Y-100299999D02*
X180330228Y-99919046D01*
X180596895Y-100985713D02*
X179796895Y-100985713D01*
X180558800Y-100985713D02*
X180596895Y-100909522D01*
X180596895Y-100909522D02*
X180596895Y-100757141D01*
X180596895Y-100757141D02*
X180558800Y-100680951D01*
X180558800Y-100680951D02*
X180520704Y-100642856D01*
X180520704Y-100642856D02*
X180444514Y-100604760D01*
X180444514Y-100604760D02*
X180215942Y-100604760D01*
X180215942Y-100604760D02*
X180139752Y-100642856D01*
X180139752Y-100642856D02*
X180101657Y-100680951D01*
X180101657Y-100680951D02*
X180063561Y-100757141D01*
X180063561Y-100757141D02*
X180063561Y-100909522D01*
X180063561Y-100909522D02*
X180101657Y-100985713D01*
X180596895Y-101976190D02*
X179796895Y-101976190D01*
X180101657Y-101976190D02*
X180063561Y-102052380D01*
X180063561Y-102052380D02*
X180063561Y-102204761D01*
X180063561Y-102204761D02*
X180101657Y-102280952D01*
X180101657Y-102280952D02*
X180139752Y-102319047D01*
X180139752Y-102319047D02*
X180215942Y-102357142D01*
X180215942Y-102357142D02*
X180444514Y-102357142D01*
X180444514Y-102357142D02*
X180520704Y-102319047D01*
X180520704Y-102319047D02*
X180558800Y-102280952D01*
X180558800Y-102280952D02*
X180596895Y-102204761D01*
X180596895Y-102204761D02*
X180596895Y-102052380D01*
X180596895Y-102052380D02*
X180558800Y-101976190D01*
X180063561Y-102623809D02*
X180596895Y-102814285D01*
X180063561Y-103004762D02*
X180596895Y-102814285D01*
X180596895Y-102814285D02*
X180787371Y-102738095D01*
X180787371Y-102738095D02*
X180825466Y-102700000D01*
X180825466Y-102700000D02*
X180863561Y-102623809D01*
X180520704Y-103309524D02*
X180558800Y-103347619D01*
X180558800Y-103347619D02*
X180596895Y-103309524D01*
X180596895Y-103309524D02*
X180558800Y-103271428D01*
X180558800Y-103271428D02*
X180520704Y-103309524D01*
X180520704Y-103309524D02*
X180596895Y-103309524D01*
X180101657Y-103309524D02*
X180139752Y-103347619D01*
X180139752Y-103347619D02*
X180177847Y-103309524D01*
X180177847Y-103309524D02*
X180139752Y-103271428D01*
X180139752Y-103271428D02*
X180101657Y-103309524D01*
X180101657Y-103309524D02*
X180177847Y-103309524D01*
X179796895Y-104185714D02*
X180596895Y-104452381D01*
X180596895Y-104452381D02*
X179796895Y-104719047D01*
X180596895Y-104985714D02*
X180063561Y-104985714D01*
X179796895Y-104985714D02*
X179834990Y-104947618D01*
X179834990Y-104947618D02*
X179873085Y-104985714D01*
X179873085Y-104985714D02*
X179834990Y-105023809D01*
X179834990Y-105023809D02*
X179796895Y-104985714D01*
X179796895Y-104985714D02*
X179873085Y-104985714D01*
X180063561Y-105366666D02*
X180596895Y-105366666D01*
X180139752Y-105366666D02*
X180101657Y-105404761D01*
X180101657Y-105404761D02*
X180063561Y-105480951D01*
X180063561Y-105480951D02*
X180063561Y-105595237D01*
X180063561Y-105595237D02*
X180101657Y-105671428D01*
X180101657Y-105671428D02*
X180177847Y-105709523D01*
X180177847Y-105709523D02*
X180596895Y-105709523D01*
X180558800Y-106433333D02*
X180596895Y-106357142D01*
X180596895Y-106357142D02*
X180596895Y-106204761D01*
X180596895Y-106204761D02*
X180558800Y-106128571D01*
X180558800Y-106128571D02*
X180520704Y-106090476D01*
X180520704Y-106090476D02*
X180444514Y-106052380D01*
X180444514Y-106052380D02*
X180215942Y-106052380D01*
X180215942Y-106052380D02*
X180139752Y-106090476D01*
X180139752Y-106090476D02*
X180101657Y-106128571D01*
X180101657Y-106128571D02*
X180063561Y-106204761D01*
X180063561Y-106204761D02*
X180063561Y-106357142D01*
X180063561Y-106357142D02*
X180101657Y-106433333D01*
X180558800Y-107080952D02*
X180596895Y-107004761D01*
X180596895Y-107004761D02*
X180596895Y-106852380D01*
X180596895Y-106852380D02*
X180558800Y-106776190D01*
X180558800Y-106776190D02*
X180482609Y-106738094D01*
X180482609Y-106738094D02*
X180177847Y-106738094D01*
X180177847Y-106738094D02*
X180101657Y-106776190D01*
X180101657Y-106776190D02*
X180063561Y-106852380D01*
X180063561Y-106852380D02*
X180063561Y-107004761D01*
X180063561Y-107004761D02*
X180101657Y-107080952D01*
X180101657Y-107080952D02*
X180177847Y-107119047D01*
X180177847Y-107119047D02*
X180254038Y-107119047D01*
X180254038Y-107119047D02*
X180330228Y-106738094D01*
X180063561Y-107461904D02*
X180596895Y-107461904D01*
X180139752Y-107461904D02*
X180101657Y-107499999D01*
X180101657Y-107499999D02*
X180063561Y-107576189D01*
X180063561Y-107576189D02*
X180063561Y-107690475D01*
X180063561Y-107690475D02*
X180101657Y-107766666D01*
X180101657Y-107766666D02*
X180177847Y-107804761D01*
X180177847Y-107804761D02*
X180596895Y-107804761D01*
X180063561Y-108071428D02*
X180063561Y-108376190D01*
X179796895Y-108185714D02*
X180482609Y-108185714D01*
X180482609Y-108185714D02*
X180558800Y-108223809D01*
X180558800Y-108223809D02*
X180596895Y-108299999D01*
X180596895Y-108299999D02*
X180596895Y-108376190D01*
X180596895Y-109252381D02*
X179796895Y-109252381D01*
X180596895Y-109709524D02*
X180139752Y-109366666D01*
X179796895Y-109709524D02*
X180254038Y-109252381D01*
X180063561Y-109976190D02*
X180596895Y-110128571D01*
X180596895Y-110128571D02*
X180215942Y-110280952D01*
X180215942Y-110280952D02*
X180596895Y-110433333D01*
X180596895Y-110433333D02*
X180063561Y-110585714D01*
X180596895Y-111004761D02*
X180558800Y-110928571D01*
X180558800Y-110928571D02*
X180520704Y-110890476D01*
X180520704Y-110890476D02*
X180444514Y-110852380D01*
X180444514Y-110852380D02*
X180215942Y-110852380D01*
X180215942Y-110852380D02*
X180139752Y-110890476D01*
X180139752Y-110890476D02*
X180101657Y-110928571D01*
X180101657Y-110928571D02*
X180063561Y-111004761D01*
X180063561Y-111004761D02*
X180063561Y-111119047D01*
X180063561Y-111119047D02*
X180101657Y-111195238D01*
X180101657Y-111195238D02*
X180139752Y-111233333D01*
X180139752Y-111233333D02*
X180215942Y-111271428D01*
X180215942Y-111271428D02*
X180444514Y-111271428D01*
X180444514Y-111271428D02*
X180520704Y-111233333D01*
X180520704Y-111233333D02*
X180558800Y-111195238D01*
X180558800Y-111195238D02*
X180596895Y-111119047D01*
X180596895Y-111119047D02*
X180596895Y-111004761D01*
X180596895Y-111614286D02*
X179796895Y-111614286D01*
X180292133Y-111690476D02*
X180596895Y-111919048D01*
X180063561Y-111919048D02*
X180368323Y-111614286D01*
X180901657Y-113100000D02*
X180863561Y-113061905D01*
X180863561Y-113061905D02*
X180749276Y-112985714D01*
X180749276Y-112985714D02*
X180673085Y-112947619D01*
X180673085Y-112947619D02*
X180558800Y-112909524D01*
X180558800Y-112909524D02*
X180368323Y-112871429D01*
X180368323Y-112871429D02*
X180215942Y-112871429D01*
X180215942Y-112871429D02*
X180025466Y-112909524D01*
X180025466Y-112909524D02*
X179911180Y-112947619D01*
X179911180Y-112947619D02*
X179834990Y-112985714D01*
X179834990Y-112985714D02*
X179720704Y-113061905D01*
X179720704Y-113061905D02*
X179682609Y-113100000D01*
X179873085Y-113366666D02*
X179834990Y-113404762D01*
X179834990Y-113404762D02*
X179796895Y-113480952D01*
X179796895Y-113480952D02*
X179796895Y-113671428D01*
X179796895Y-113671428D02*
X179834990Y-113747619D01*
X179834990Y-113747619D02*
X179873085Y-113785714D01*
X179873085Y-113785714D02*
X179949276Y-113823809D01*
X179949276Y-113823809D02*
X180025466Y-113823809D01*
X180025466Y-113823809D02*
X180139752Y-113785714D01*
X180139752Y-113785714D02*
X180596895Y-113328571D01*
X180596895Y-113328571D02*
X180596895Y-113823809D01*
X179796895Y-114319048D02*
X179796895Y-114395238D01*
X179796895Y-114395238D02*
X179834990Y-114471429D01*
X179834990Y-114471429D02*
X179873085Y-114509524D01*
X179873085Y-114509524D02*
X179949276Y-114547619D01*
X179949276Y-114547619D02*
X180101657Y-114585714D01*
X180101657Y-114585714D02*
X180292133Y-114585714D01*
X180292133Y-114585714D02*
X180444514Y-114547619D01*
X180444514Y-114547619D02*
X180520704Y-114509524D01*
X180520704Y-114509524D02*
X180558800Y-114471429D01*
X180558800Y-114471429D02*
X180596895Y-114395238D01*
X180596895Y-114395238D02*
X180596895Y-114319048D01*
X180596895Y-114319048D02*
X180558800Y-114242857D01*
X180558800Y-114242857D02*
X180520704Y-114204762D01*
X180520704Y-114204762D02*
X180444514Y-114166667D01*
X180444514Y-114166667D02*
X180292133Y-114128571D01*
X180292133Y-114128571D02*
X180101657Y-114128571D01*
X180101657Y-114128571D02*
X179949276Y-114166667D01*
X179949276Y-114166667D02*
X179873085Y-114204762D01*
X179873085Y-114204762D02*
X179834990Y-114242857D01*
X179834990Y-114242857D02*
X179796895Y-114319048D01*
X179873085Y-114890476D02*
X179834990Y-114928572D01*
X179834990Y-114928572D02*
X179796895Y-115004762D01*
X179796895Y-115004762D02*
X179796895Y-115195238D01*
X179796895Y-115195238D02*
X179834990Y-115271429D01*
X179834990Y-115271429D02*
X179873085Y-115309524D01*
X179873085Y-115309524D02*
X179949276Y-115347619D01*
X179949276Y-115347619D02*
X180025466Y-115347619D01*
X180025466Y-115347619D02*
X180139752Y-115309524D01*
X180139752Y-115309524D02*
X180596895Y-114852381D01*
X180596895Y-114852381D02*
X180596895Y-115347619D01*
X179796895Y-116071429D02*
X179796895Y-115690477D01*
X179796895Y-115690477D02*
X180177847Y-115652381D01*
X180177847Y-115652381D02*
X180139752Y-115690477D01*
X180139752Y-115690477D02*
X180101657Y-115766667D01*
X180101657Y-115766667D02*
X180101657Y-115957143D01*
X180101657Y-115957143D02*
X180139752Y-116033334D01*
X180139752Y-116033334D02*
X180177847Y-116071429D01*
X180177847Y-116071429D02*
X180254038Y-116109524D01*
X180254038Y-116109524D02*
X180444514Y-116109524D01*
X180444514Y-116109524D02*
X180520704Y-116071429D01*
X180520704Y-116071429D02*
X180558800Y-116033334D01*
X180558800Y-116033334D02*
X180596895Y-115957143D01*
X180596895Y-115957143D02*
X180596895Y-115766667D01*
X180596895Y-115766667D02*
X180558800Y-115690477D01*
X180558800Y-115690477D02*
X180520704Y-115652381D01*
X180901657Y-116376191D02*
X180863561Y-116414286D01*
X180863561Y-116414286D02*
X180749276Y-116490477D01*
X180749276Y-116490477D02*
X180673085Y-116528572D01*
X180673085Y-116528572D02*
X180558800Y-116566667D01*
X180558800Y-116566667D02*
X180368323Y-116604763D01*
X180368323Y-116604763D02*
X180215942Y-116604763D01*
X180215942Y-116604763D02*
X180025466Y-116566667D01*
X180025466Y-116566667D02*
X179911180Y-116528572D01*
X179911180Y-116528572D02*
X179834990Y-116490477D01*
X179834990Y-116490477D02*
X179720704Y-116414286D01*
X179720704Y-116414286D02*
X179682609Y-116376191D01*
X173396115Y-94548609D02*
X173062782Y-94548609D01*
X172919925Y-95072419D02*
X173396115Y-95072419D01*
X173396115Y-95072419D02*
X173396115Y-94072419D01*
X173396115Y-94072419D02*
X172919925Y-94072419D01*
X172586591Y-94405752D02*
X172348496Y-95072419D01*
X172348496Y-95072419D02*
X172110401Y-94405752D01*
X171300877Y-95072419D02*
X171300877Y-94548609D01*
X171300877Y-94548609D02*
X171348496Y-94453371D01*
X171348496Y-94453371D02*
X171443734Y-94405752D01*
X171443734Y-94405752D02*
X171634210Y-94405752D01*
X171634210Y-94405752D02*
X171729448Y-94453371D01*
X171300877Y-95024800D02*
X171396115Y-95072419D01*
X171396115Y-95072419D02*
X171634210Y-95072419D01*
X171634210Y-95072419D02*
X171729448Y-95024800D01*
X171729448Y-95024800D02*
X171777067Y-94929561D01*
X171777067Y-94929561D02*
X171777067Y-94834323D01*
X171777067Y-94834323D02*
X171729448Y-94739085D01*
X171729448Y-94739085D02*
X171634210Y-94691466D01*
X171634210Y-94691466D02*
X171396115Y-94691466D01*
X171396115Y-94691466D02*
X171300877Y-94643847D01*
X170681829Y-95072419D02*
X170777067Y-95024800D01*
X170777067Y-95024800D02*
X170824686Y-94929561D01*
X170824686Y-94929561D02*
X170824686Y-94072419D01*
X169872305Y-94405752D02*
X169872305Y-95072419D01*
X170300876Y-94405752D02*
X170300876Y-94929561D01*
X170300876Y-94929561D02*
X170253257Y-95024800D01*
X170253257Y-95024800D02*
X170158019Y-95072419D01*
X170158019Y-95072419D02*
X170015162Y-95072419D01*
X170015162Y-95072419D02*
X169919924Y-95024800D01*
X169919924Y-95024800D02*
X169872305Y-94977180D01*
X168967543Y-95072419D02*
X168967543Y-94548609D01*
X168967543Y-94548609D02*
X169015162Y-94453371D01*
X169015162Y-94453371D02*
X169110400Y-94405752D01*
X169110400Y-94405752D02*
X169300876Y-94405752D01*
X169300876Y-94405752D02*
X169396114Y-94453371D01*
X168967543Y-95024800D02*
X169062781Y-95072419D01*
X169062781Y-95072419D02*
X169300876Y-95072419D01*
X169300876Y-95072419D02*
X169396114Y-95024800D01*
X169396114Y-95024800D02*
X169443733Y-94929561D01*
X169443733Y-94929561D02*
X169443733Y-94834323D01*
X169443733Y-94834323D02*
X169396114Y-94739085D01*
X169396114Y-94739085D02*
X169300876Y-94691466D01*
X169300876Y-94691466D02*
X169062781Y-94691466D01*
X169062781Y-94691466D02*
X168967543Y-94643847D01*
X168634209Y-94405752D02*
X168253257Y-94405752D01*
X168491352Y-94072419D02*
X168491352Y-94929561D01*
X168491352Y-94929561D02*
X168443733Y-95024800D01*
X168443733Y-95024800D02*
X168348495Y-95072419D01*
X168348495Y-95072419D02*
X168253257Y-95072419D01*
X167919923Y-95072419D02*
X167919923Y-94405752D01*
X167919923Y-94072419D02*
X167967542Y-94120038D01*
X167967542Y-94120038D02*
X167919923Y-94167657D01*
X167919923Y-94167657D02*
X167872304Y-94120038D01*
X167872304Y-94120038D02*
X167919923Y-94072419D01*
X167919923Y-94072419D02*
X167919923Y-94167657D01*
X167300876Y-95072419D02*
X167396114Y-95024800D01*
X167396114Y-95024800D02*
X167443733Y-94977180D01*
X167443733Y-94977180D02*
X167491352Y-94881942D01*
X167491352Y-94881942D02*
X167491352Y-94596228D01*
X167491352Y-94596228D02*
X167443733Y-94500990D01*
X167443733Y-94500990D02*
X167396114Y-94453371D01*
X167396114Y-94453371D02*
X167300876Y-94405752D01*
X167300876Y-94405752D02*
X167158019Y-94405752D01*
X167158019Y-94405752D02*
X167062781Y-94453371D01*
X167062781Y-94453371D02*
X167015162Y-94500990D01*
X167015162Y-94500990D02*
X166967543Y-94596228D01*
X166967543Y-94596228D02*
X166967543Y-94881942D01*
X166967543Y-94881942D02*
X167015162Y-94977180D01*
X167015162Y-94977180D02*
X167062781Y-95024800D01*
X167062781Y-95024800D02*
X167158019Y-95072419D01*
X167158019Y-95072419D02*
X167300876Y-95072419D01*
X166538971Y-94405752D02*
X166538971Y-95072419D01*
X166538971Y-94500990D02*
X166491352Y-94453371D01*
X166491352Y-94453371D02*
X166396114Y-94405752D01*
X166396114Y-94405752D02*
X166253257Y-94405752D01*
X166253257Y-94405752D02*
X166158019Y-94453371D01*
X166158019Y-94453371D02*
X166110400Y-94548609D01*
X166110400Y-94548609D02*
X166110400Y-95072419D01*
X164538971Y-94548609D02*
X164396114Y-94596228D01*
X164396114Y-94596228D02*
X164348495Y-94643847D01*
X164348495Y-94643847D02*
X164300876Y-94739085D01*
X164300876Y-94739085D02*
X164300876Y-94881942D01*
X164300876Y-94881942D02*
X164348495Y-94977180D01*
X164348495Y-94977180D02*
X164396114Y-95024800D01*
X164396114Y-95024800D02*
X164491352Y-95072419D01*
X164491352Y-95072419D02*
X164872304Y-95072419D01*
X164872304Y-95072419D02*
X164872304Y-94072419D01*
X164872304Y-94072419D02*
X164538971Y-94072419D01*
X164538971Y-94072419D02*
X164443733Y-94120038D01*
X164443733Y-94120038D02*
X164396114Y-94167657D01*
X164396114Y-94167657D02*
X164348495Y-94262895D01*
X164348495Y-94262895D02*
X164348495Y-94358133D01*
X164348495Y-94358133D02*
X164396114Y-94453371D01*
X164396114Y-94453371D02*
X164443733Y-94500990D01*
X164443733Y-94500990D02*
X164538971Y-94548609D01*
X164538971Y-94548609D02*
X164872304Y-94548609D01*
X163729447Y-95072419D02*
X163824685Y-95024800D01*
X163824685Y-95024800D02*
X163872304Y-94977180D01*
X163872304Y-94977180D02*
X163919923Y-94881942D01*
X163919923Y-94881942D02*
X163919923Y-94596228D01*
X163919923Y-94596228D02*
X163872304Y-94500990D01*
X163872304Y-94500990D02*
X163824685Y-94453371D01*
X163824685Y-94453371D02*
X163729447Y-94405752D01*
X163729447Y-94405752D02*
X163586590Y-94405752D01*
X163586590Y-94405752D02*
X163491352Y-94453371D01*
X163491352Y-94453371D02*
X163443733Y-94500990D01*
X163443733Y-94500990D02*
X163396114Y-94596228D01*
X163396114Y-94596228D02*
X163396114Y-94881942D01*
X163396114Y-94881942D02*
X163443733Y-94977180D01*
X163443733Y-94977180D02*
X163491352Y-95024800D01*
X163491352Y-95024800D02*
X163586590Y-95072419D01*
X163586590Y-95072419D02*
X163729447Y-95072419D01*
X162538971Y-95072419D02*
X162538971Y-94548609D01*
X162538971Y-94548609D02*
X162586590Y-94453371D01*
X162586590Y-94453371D02*
X162681828Y-94405752D01*
X162681828Y-94405752D02*
X162872304Y-94405752D01*
X162872304Y-94405752D02*
X162967542Y-94453371D01*
X162538971Y-95024800D02*
X162634209Y-95072419D01*
X162634209Y-95072419D02*
X162872304Y-95072419D01*
X162872304Y-95072419D02*
X162967542Y-95024800D01*
X162967542Y-95024800D02*
X163015161Y-94929561D01*
X163015161Y-94929561D02*
X163015161Y-94834323D01*
X163015161Y-94834323D02*
X162967542Y-94739085D01*
X162967542Y-94739085D02*
X162872304Y-94691466D01*
X162872304Y-94691466D02*
X162634209Y-94691466D01*
X162634209Y-94691466D02*
X162538971Y-94643847D01*
X162062780Y-95072419D02*
X162062780Y-94405752D01*
X162062780Y-94596228D02*
X162015161Y-94500990D01*
X162015161Y-94500990D02*
X161967542Y-94453371D01*
X161967542Y-94453371D02*
X161872304Y-94405752D01*
X161872304Y-94405752D02*
X161777066Y-94405752D01*
X161015161Y-95072419D02*
X161015161Y-94072419D01*
X161015161Y-95024800D02*
X161110399Y-95072419D01*
X161110399Y-95072419D02*
X161300875Y-95072419D01*
X161300875Y-95072419D02*
X161396113Y-95024800D01*
X161396113Y-95024800D02*
X161443732Y-94977180D01*
X161443732Y-94977180D02*
X161491351Y-94881942D01*
X161491351Y-94881942D02*
X161491351Y-94596228D01*
X161491351Y-94596228D02*
X161443732Y-94500990D01*
X161443732Y-94500990D02*
X161396113Y-94453371D01*
X161396113Y-94453371D02*
X161300875Y-94405752D01*
X161300875Y-94405752D02*
X161110399Y-94405752D01*
X161110399Y-94405752D02*
X161015161Y-94453371D01*
X159872303Y-94405752D02*
X159634208Y-95072419D01*
X159634208Y-95072419D02*
X159396113Y-94405752D01*
X158824684Y-94072419D02*
X158729446Y-94072419D01*
X158729446Y-94072419D02*
X158634208Y-94120038D01*
X158634208Y-94120038D02*
X158586589Y-94167657D01*
X158586589Y-94167657D02*
X158538970Y-94262895D01*
X158538970Y-94262895D02*
X158491351Y-94453371D01*
X158491351Y-94453371D02*
X158491351Y-94691466D01*
X158491351Y-94691466D02*
X158538970Y-94881942D01*
X158538970Y-94881942D02*
X158586589Y-94977180D01*
X158586589Y-94977180D02*
X158634208Y-95024800D01*
X158634208Y-95024800D02*
X158729446Y-95072419D01*
X158729446Y-95072419D02*
X158824684Y-95072419D01*
X158824684Y-95072419D02*
X158919922Y-95024800D01*
X158919922Y-95024800D02*
X158967541Y-94977180D01*
X158967541Y-94977180D02*
X159015160Y-94881942D01*
X159015160Y-94881942D02*
X159062779Y-94691466D01*
X159062779Y-94691466D02*
X159062779Y-94453371D01*
X159062779Y-94453371D02*
X159015160Y-94262895D01*
X159015160Y-94262895D02*
X158967541Y-94167657D01*
X158967541Y-94167657D02*
X158919922Y-94120038D01*
X158919922Y-94120038D02*
X158824684Y-94072419D01*
X158062779Y-94977180D02*
X158015160Y-95024800D01*
X158015160Y-95024800D02*
X158062779Y-95072419D01*
X158062779Y-95072419D02*
X158110398Y-95024800D01*
X158110398Y-95024800D02*
X158062779Y-94977180D01*
X158062779Y-94977180D02*
X158062779Y-95072419D01*
X157062780Y-95072419D02*
X157634208Y-95072419D01*
X157348494Y-95072419D02*
X157348494Y-94072419D01*
X157348494Y-94072419D02*
X157443732Y-94215276D01*
X157443732Y-94215276D02*
X157538970Y-94310514D01*
X157538970Y-94310514D02*
X157634208Y-94358133D01*
D11*
X130685713Y-103828280D02*
X129314285Y-103828280D01*
X128185713Y-103828280D02*
X126814285Y-103828280D01*
X127499999Y-104513994D02*
X127499999Y-103142565D01*
D12*
X151785527Y-90837476D02*
X151964098Y-90742238D01*
X151964098Y-90742238D02*
X152249812Y-90742238D01*
X152249812Y-90742238D02*
X152547431Y-90837476D01*
X152547431Y-90837476D02*
X152761717Y-91027952D01*
X152761717Y-91027952D02*
X152880765Y-91218428D01*
X152880765Y-91218428D02*
X153023622Y-91599380D01*
X153023622Y-91599380D02*
X153059336Y-91885095D01*
X153059336Y-91885095D02*
X153011717Y-92266047D01*
X153011717Y-92266047D02*
X152940288Y-92456523D01*
X152940288Y-92456523D02*
X152773622Y-92647000D01*
X152773622Y-92647000D02*
X152499812Y-92742238D01*
X152499812Y-92742238D02*
X152309336Y-92742238D01*
X152309336Y-92742238D02*
X152011717Y-92647000D01*
X152011717Y-92647000D02*
X151904574Y-92551761D01*
X151904574Y-92551761D02*
X151821241Y-91885095D01*
X151821241Y-91885095D02*
X152202193Y-91885095D01*
X150297431Y-92647000D02*
X150499812Y-92742238D01*
X150499812Y-92742238D02*
X150880765Y-92742238D01*
X150880765Y-92742238D02*
X151059336Y-92647000D01*
X151059336Y-92647000D02*
X151130765Y-92456523D01*
X151130765Y-92456523D02*
X151035527Y-91694619D01*
X151035527Y-91694619D02*
X150916479Y-91504142D01*
X150916479Y-91504142D02*
X150714098Y-91408904D01*
X150714098Y-91408904D02*
X150333146Y-91408904D01*
X150333146Y-91408904D02*
X150154574Y-91504142D01*
X150154574Y-91504142D02*
X150083146Y-91694619D01*
X150083146Y-91694619D02*
X150106955Y-91885095D01*
X150106955Y-91885095D02*
X151083146Y-92075571D01*
X149190288Y-91408904D02*
X149356955Y-92742238D01*
X149214098Y-91599380D02*
X149106955Y-91504142D01*
X149106955Y-91504142D02*
X148904574Y-91408904D01*
X148904574Y-91408904D02*
X148618860Y-91408904D01*
X148618860Y-91408904D02*
X148440288Y-91504142D01*
X148440288Y-91504142D02*
X148368860Y-91694619D01*
X148368860Y-91694619D02*
X148499812Y-92742238D01*
X147416478Y-90932714D02*
X147309336Y-90837476D01*
X147309336Y-90837476D02*
X147106955Y-90742238D01*
X147106955Y-90742238D02*
X146630764Y-90742238D01*
X146630764Y-90742238D02*
X146452193Y-90837476D01*
X146452193Y-90837476D02*
X146368859Y-90932714D01*
X146368859Y-90932714D02*
X146297431Y-91123190D01*
X146297431Y-91123190D02*
X146321240Y-91313666D01*
X146321240Y-91313666D02*
X146452193Y-91599380D01*
X146452193Y-91599380D02*
X147737907Y-92742238D01*
X147737907Y-92742238D02*
X146499812Y-92742238D01*
D13*
X173255890Y-92639200D02*
X172970176Y-92734438D01*
X172970176Y-92734438D02*
X172493985Y-92734438D01*
X172493985Y-92734438D02*
X172303509Y-92639200D01*
X172303509Y-92639200D02*
X172208271Y-92543961D01*
X172208271Y-92543961D02*
X172113033Y-92353485D01*
X172113033Y-92353485D02*
X172113033Y-92163009D01*
X172113033Y-92163009D02*
X172208271Y-91972533D01*
X172208271Y-91972533D02*
X172303509Y-91877295D01*
X172303509Y-91877295D02*
X172493985Y-91782057D01*
X172493985Y-91782057D02*
X172874938Y-91686819D01*
X172874938Y-91686819D02*
X173065414Y-91591580D01*
X173065414Y-91591580D02*
X173160652Y-91496342D01*
X173160652Y-91496342D02*
X173255890Y-91305866D01*
X173255890Y-91305866D02*
X173255890Y-91115390D01*
X173255890Y-91115390D02*
X173160652Y-90924914D01*
X173160652Y-90924914D02*
X173065414Y-90829676D01*
X173065414Y-90829676D02*
X172874938Y-90734438D01*
X172874938Y-90734438D02*
X172398747Y-90734438D01*
X172398747Y-90734438D02*
X172113033Y-90829676D01*
X171255890Y-91401104D02*
X171255890Y-93401104D01*
X171255890Y-91496342D02*
X171065414Y-91401104D01*
X171065414Y-91401104D02*
X170684461Y-91401104D01*
X170684461Y-91401104D02*
X170493985Y-91496342D01*
X170493985Y-91496342D02*
X170398747Y-91591580D01*
X170398747Y-91591580D02*
X170303509Y-91782057D01*
X170303509Y-91782057D02*
X170303509Y-92353485D01*
X170303509Y-92353485D02*
X170398747Y-92543961D01*
X170398747Y-92543961D02*
X170493985Y-92639200D01*
X170493985Y-92639200D02*
X170684461Y-92734438D01*
X170684461Y-92734438D02*
X171065414Y-92734438D01*
X171065414Y-92734438D02*
X171255890Y-92639200D01*
X168684461Y-92639200D02*
X168874937Y-92734438D01*
X168874937Y-92734438D02*
X169255890Y-92734438D01*
X169255890Y-92734438D02*
X169446366Y-92639200D01*
X169446366Y-92639200D02*
X169541604Y-92448723D01*
X169541604Y-92448723D02*
X169541604Y-91686819D01*
X169541604Y-91686819D02*
X169446366Y-91496342D01*
X169446366Y-91496342D02*
X169255890Y-91401104D01*
X169255890Y-91401104D02*
X168874937Y-91401104D01*
X168874937Y-91401104D02*
X168684461Y-91496342D01*
X168684461Y-91496342D02*
X168589223Y-91686819D01*
X168589223Y-91686819D02*
X168589223Y-91877295D01*
X168589223Y-91877295D02*
X169541604Y-92067771D01*
X166874937Y-92734438D02*
X166874937Y-91686819D01*
X166874937Y-91686819D02*
X166970175Y-91496342D01*
X166970175Y-91496342D02*
X167160651Y-91401104D01*
X167160651Y-91401104D02*
X167541604Y-91401104D01*
X167541604Y-91401104D02*
X167732080Y-91496342D01*
X166874937Y-92639200D02*
X167065413Y-92734438D01*
X167065413Y-92734438D02*
X167541604Y-92734438D01*
X167541604Y-92734438D02*
X167732080Y-92639200D01*
X167732080Y-92639200D02*
X167827318Y-92448723D01*
X167827318Y-92448723D02*
X167827318Y-92258247D01*
X167827318Y-92258247D02*
X167732080Y-92067771D01*
X167732080Y-92067771D02*
X167541604Y-91972533D01*
X167541604Y-91972533D02*
X167065413Y-91972533D01*
X167065413Y-91972533D02*
X166874937Y-91877295D01*
X165922556Y-92734438D02*
X165922556Y-90734438D01*
X165732080Y-91972533D02*
X165160651Y-92734438D01*
X165160651Y-91401104D02*
X165922556Y-92163009D01*
X163541603Y-92639200D02*
X163732079Y-92734438D01*
X163732079Y-92734438D02*
X164113032Y-92734438D01*
X164113032Y-92734438D02*
X164303508Y-92639200D01*
X164303508Y-92639200D02*
X164398746Y-92448723D01*
X164398746Y-92448723D02*
X164398746Y-91686819D01*
X164398746Y-91686819D02*
X164303508Y-91496342D01*
X164303508Y-91496342D02*
X164113032Y-91401104D01*
X164113032Y-91401104D02*
X163732079Y-91401104D01*
X163732079Y-91401104D02*
X163541603Y-91496342D01*
X163541603Y-91496342D02*
X163446365Y-91686819D01*
X163446365Y-91686819D02*
X163446365Y-91877295D01*
X163446365Y-91877295D02*
X164398746Y-92067771D01*
X162589222Y-92734438D02*
X162589222Y-91401104D01*
X162589222Y-91782057D02*
X162493984Y-91591580D01*
X162493984Y-91591580D02*
X162398746Y-91496342D01*
X162398746Y-91496342D02*
X162208270Y-91401104D01*
X162208270Y-91401104D02*
X162017793Y-91401104D01*
X159160650Y-91686819D02*
X158874936Y-91782057D01*
X158874936Y-91782057D02*
X158779698Y-91877295D01*
X158779698Y-91877295D02*
X158684460Y-92067771D01*
X158684460Y-92067771D02*
X158684460Y-92353485D01*
X158684460Y-92353485D02*
X158779698Y-92543961D01*
X158779698Y-92543961D02*
X158874936Y-92639200D01*
X158874936Y-92639200D02*
X159065412Y-92734438D01*
X159065412Y-92734438D02*
X159827317Y-92734438D01*
X159827317Y-92734438D02*
X159827317Y-90734438D01*
X159827317Y-90734438D02*
X159160650Y-90734438D01*
X159160650Y-90734438D02*
X158970174Y-90829676D01*
X158970174Y-90829676D02*
X158874936Y-90924914D01*
X158874936Y-90924914D02*
X158779698Y-91115390D01*
X158779698Y-91115390D02*
X158779698Y-91305866D01*
X158779698Y-91305866D02*
X158874936Y-91496342D01*
X158874936Y-91496342D02*
X158970174Y-91591580D01*
X158970174Y-91591580D02*
X159160650Y-91686819D01*
X159160650Y-91686819D02*
X159827317Y-91686819D01*
X157541603Y-92734438D02*
X157732079Y-92639200D01*
X157732079Y-92639200D02*
X157827317Y-92543961D01*
X157827317Y-92543961D02*
X157922555Y-92353485D01*
X157922555Y-92353485D02*
X157922555Y-91782057D01*
X157922555Y-91782057D02*
X157827317Y-91591580D01*
X157827317Y-91591580D02*
X157732079Y-91496342D01*
X157732079Y-91496342D02*
X157541603Y-91401104D01*
X157541603Y-91401104D02*
X157255888Y-91401104D01*
X157255888Y-91401104D02*
X157065412Y-91496342D01*
X157065412Y-91496342D02*
X156970174Y-91591580D01*
X156970174Y-91591580D02*
X156874936Y-91782057D01*
X156874936Y-91782057D02*
X156874936Y-92353485D01*
X156874936Y-92353485D02*
X156970174Y-92543961D01*
X156970174Y-92543961D02*
X157065412Y-92639200D01*
X157065412Y-92639200D02*
X157255888Y-92734438D01*
X157255888Y-92734438D02*
X157541603Y-92734438D01*
X156208269Y-92734438D02*
X155160650Y-91401104D01*
X156208269Y-91401104D02*
X155160650Y-92734438D01*
D10*
X155697009Y-117724687D02*
X155735104Y-117800877D01*
X155735104Y-117800877D02*
X155735104Y-117915163D01*
X155735104Y-117915163D02*
X155697009Y-118029449D01*
X155697009Y-118029449D02*
X155620819Y-118105639D01*
X155620819Y-118105639D02*
X155544628Y-118143734D01*
X155544628Y-118143734D02*
X155392247Y-118181830D01*
X155392247Y-118181830D02*
X155277961Y-118181830D01*
X155277961Y-118181830D02*
X155125580Y-118143734D01*
X155125580Y-118143734D02*
X155049390Y-118105639D01*
X155049390Y-118105639D02*
X154973200Y-118029449D01*
X154973200Y-118029449D02*
X154935104Y-117915163D01*
X154935104Y-117915163D02*
X154935104Y-117838972D01*
X154935104Y-117838972D02*
X154973200Y-117724687D01*
X154973200Y-117724687D02*
X155011295Y-117686591D01*
X155011295Y-117686591D02*
X155277961Y-117686591D01*
X155277961Y-117686591D02*
X155277961Y-117838972D01*
X154935104Y-117343734D02*
X155735104Y-117343734D01*
X155735104Y-117343734D02*
X154935104Y-116886591D01*
X154935104Y-116886591D02*
X155735104Y-116886591D01*
X154935104Y-116505639D02*
X155735104Y-116505639D01*
X155735104Y-116505639D02*
X155735104Y-116315163D01*
X155735104Y-116315163D02*
X155697009Y-116200877D01*
X155697009Y-116200877D02*
X155620819Y-116124687D01*
X155620819Y-116124687D02*
X155544628Y-116086592D01*
X155544628Y-116086592D02*
X155392247Y-116048496D01*
X155392247Y-116048496D02*
X155277961Y-116048496D01*
X155277961Y-116048496D02*
X155125580Y-116086592D01*
X155125580Y-116086592D02*
X155049390Y-116124687D01*
X155049390Y-116124687D02*
X154973200Y-116200877D01*
X154973200Y-116200877D02*
X154935104Y-116315163D01*
X154935104Y-116315163D02*
X154935104Y-116505639D01*
X165897009Y-117724687D02*
X165935104Y-117800877D01*
X165935104Y-117800877D02*
X165935104Y-117915163D01*
X165935104Y-117915163D02*
X165897009Y-118029449D01*
X165897009Y-118029449D02*
X165820819Y-118105639D01*
X165820819Y-118105639D02*
X165744628Y-118143734D01*
X165744628Y-118143734D02*
X165592247Y-118181830D01*
X165592247Y-118181830D02*
X165477961Y-118181830D01*
X165477961Y-118181830D02*
X165325580Y-118143734D01*
X165325580Y-118143734D02*
X165249390Y-118105639D01*
X165249390Y-118105639D02*
X165173200Y-118029449D01*
X165173200Y-118029449D02*
X165135104Y-117915163D01*
X165135104Y-117915163D02*
X165135104Y-117838972D01*
X165135104Y-117838972D02*
X165173200Y-117724687D01*
X165173200Y-117724687D02*
X165211295Y-117686591D01*
X165211295Y-117686591D02*
X165477961Y-117686591D01*
X165477961Y-117686591D02*
X165477961Y-117838972D01*
X165135104Y-117343734D02*
X165935104Y-117343734D01*
X165935104Y-117343734D02*
X165935104Y-117038972D01*
X165935104Y-117038972D02*
X165897009Y-116962782D01*
X165897009Y-116962782D02*
X165858914Y-116924687D01*
X165858914Y-116924687D02*
X165782723Y-116886591D01*
X165782723Y-116886591D02*
X165668438Y-116886591D01*
X165668438Y-116886591D02*
X165592247Y-116924687D01*
X165592247Y-116924687D02*
X165554152Y-116962782D01*
X165554152Y-116962782D02*
X165516057Y-117038972D01*
X165516057Y-117038972D02*
X165516057Y-117343734D01*
X165135104Y-116543734D02*
X165935104Y-116543734D01*
X165935104Y-116010401D02*
X165935104Y-115858020D01*
X165935104Y-115858020D02*
X165897009Y-115781830D01*
X165897009Y-115781830D02*
X165820819Y-115705639D01*
X165820819Y-115705639D02*
X165668438Y-115667544D01*
X165668438Y-115667544D02*
X165401771Y-115667544D01*
X165401771Y-115667544D02*
X165249390Y-115705639D01*
X165249390Y-115705639D02*
X165173200Y-115781830D01*
X165173200Y-115781830D02*
X165135104Y-115858020D01*
X165135104Y-115858020D02*
X165135104Y-116010401D01*
X165135104Y-116010401D02*
X165173200Y-116086592D01*
X165173200Y-116086592D02*
X165249390Y-116162782D01*
X165249390Y-116162782D02*
X165401771Y-116200878D01*
X165401771Y-116200878D02*
X165668438Y-116200878D01*
X165668438Y-116200878D02*
X165820819Y-116162782D01*
X165820819Y-116162782D02*
X165897009Y-116086592D01*
X165897009Y-116086592D02*
X165935104Y-116010401D01*
X165668438Y-114981830D02*
X165135104Y-114981830D01*
X165973200Y-115172306D02*
X165401771Y-115362783D01*
X165401771Y-115362783D02*
X165401771Y-114867544D01*
X163297009Y-117724687D02*
X163335104Y-117800877D01*
X163335104Y-117800877D02*
X163335104Y-117915163D01*
X163335104Y-117915163D02*
X163297009Y-118029449D01*
X163297009Y-118029449D02*
X163220819Y-118105639D01*
X163220819Y-118105639D02*
X163144628Y-118143734D01*
X163144628Y-118143734D02*
X162992247Y-118181830D01*
X162992247Y-118181830D02*
X162877961Y-118181830D01*
X162877961Y-118181830D02*
X162725580Y-118143734D01*
X162725580Y-118143734D02*
X162649390Y-118105639D01*
X162649390Y-118105639D02*
X162573200Y-118029449D01*
X162573200Y-118029449D02*
X162535104Y-117915163D01*
X162535104Y-117915163D02*
X162535104Y-117838972D01*
X162535104Y-117838972D02*
X162573200Y-117724687D01*
X162573200Y-117724687D02*
X162611295Y-117686591D01*
X162611295Y-117686591D02*
X162877961Y-117686591D01*
X162877961Y-117686591D02*
X162877961Y-117838972D01*
X162535104Y-117343734D02*
X163335104Y-117343734D01*
X163335104Y-117343734D02*
X163335104Y-117038972D01*
X163335104Y-117038972D02*
X163297009Y-116962782D01*
X163297009Y-116962782D02*
X163258914Y-116924687D01*
X163258914Y-116924687D02*
X163182723Y-116886591D01*
X163182723Y-116886591D02*
X163068438Y-116886591D01*
X163068438Y-116886591D02*
X162992247Y-116924687D01*
X162992247Y-116924687D02*
X162954152Y-116962782D01*
X162954152Y-116962782D02*
X162916057Y-117038972D01*
X162916057Y-117038972D02*
X162916057Y-117343734D01*
X162535104Y-116543734D02*
X163335104Y-116543734D01*
X163335104Y-116010401D02*
X163335104Y-115858020D01*
X163335104Y-115858020D02*
X163297009Y-115781830D01*
X163297009Y-115781830D02*
X163220819Y-115705639D01*
X163220819Y-115705639D02*
X163068438Y-115667544D01*
X163068438Y-115667544D02*
X162801771Y-115667544D01*
X162801771Y-115667544D02*
X162649390Y-115705639D01*
X162649390Y-115705639D02*
X162573200Y-115781830D01*
X162573200Y-115781830D02*
X162535104Y-115858020D01*
X162535104Y-115858020D02*
X162535104Y-116010401D01*
X162535104Y-116010401D02*
X162573200Y-116086592D01*
X162573200Y-116086592D02*
X162649390Y-116162782D01*
X162649390Y-116162782D02*
X162801771Y-116200878D01*
X162801771Y-116200878D02*
X163068438Y-116200878D01*
X163068438Y-116200878D02*
X163220819Y-116162782D01*
X163220819Y-116162782D02*
X163297009Y-116086592D01*
X163297009Y-116086592D02*
X163335104Y-116010401D01*
X163258914Y-115362783D02*
X163297009Y-115324687D01*
X163297009Y-115324687D02*
X163335104Y-115248497D01*
X163335104Y-115248497D02*
X163335104Y-115058021D01*
X163335104Y-115058021D02*
X163297009Y-114981830D01*
X163297009Y-114981830D02*
X163258914Y-114943735D01*
X163258914Y-114943735D02*
X163182723Y-114905640D01*
X163182723Y-114905640D02*
X163106533Y-114905640D01*
X163106533Y-114905640D02*
X162992247Y-114943735D01*
X162992247Y-114943735D02*
X162535104Y-115400878D01*
X162535104Y-115400878D02*
X162535104Y-114905640D01*
X160797009Y-117724687D02*
X160835104Y-117800877D01*
X160835104Y-117800877D02*
X160835104Y-117915163D01*
X160835104Y-117915163D02*
X160797009Y-118029449D01*
X160797009Y-118029449D02*
X160720819Y-118105639D01*
X160720819Y-118105639D02*
X160644628Y-118143734D01*
X160644628Y-118143734D02*
X160492247Y-118181830D01*
X160492247Y-118181830D02*
X160377961Y-118181830D01*
X160377961Y-118181830D02*
X160225580Y-118143734D01*
X160225580Y-118143734D02*
X160149390Y-118105639D01*
X160149390Y-118105639D02*
X160073200Y-118029449D01*
X160073200Y-118029449D02*
X160035104Y-117915163D01*
X160035104Y-117915163D02*
X160035104Y-117838972D01*
X160035104Y-117838972D02*
X160073200Y-117724687D01*
X160073200Y-117724687D02*
X160111295Y-117686591D01*
X160111295Y-117686591D02*
X160377961Y-117686591D01*
X160377961Y-117686591D02*
X160377961Y-117838972D01*
X160035104Y-117343734D02*
X160835104Y-117343734D01*
X160835104Y-117343734D02*
X160835104Y-117038972D01*
X160835104Y-117038972D02*
X160797009Y-116962782D01*
X160797009Y-116962782D02*
X160758914Y-116924687D01*
X160758914Y-116924687D02*
X160682723Y-116886591D01*
X160682723Y-116886591D02*
X160568438Y-116886591D01*
X160568438Y-116886591D02*
X160492247Y-116924687D01*
X160492247Y-116924687D02*
X160454152Y-116962782D01*
X160454152Y-116962782D02*
X160416057Y-117038972D01*
X160416057Y-117038972D02*
X160416057Y-117343734D01*
X160035104Y-116543734D02*
X160835104Y-116543734D01*
X160835104Y-116010401D02*
X160835104Y-115858020D01*
X160835104Y-115858020D02*
X160797009Y-115781830D01*
X160797009Y-115781830D02*
X160720819Y-115705639D01*
X160720819Y-115705639D02*
X160568438Y-115667544D01*
X160568438Y-115667544D02*
X160301771Y-115667544D01*
X160301771Y-115667544D02*
X160149390Y-115705639D01*
X160149390Y-115705639D02*
X160073200Y-115781830D01*
X160073200Y-115781830D02*
X160035104Y-115858020D01*
X160035104Y-115858020D02*
X160035104Y-116010401D01*
X160035104Y-116010401D02*
X160073200Y-116086592D01*
X160073200Y-116086592D02*
X160149390Y-116162782D01*
X160149390Y-116162782D02*
X160301771Y-116200878D01*
X160301771Y-116200878D02*
X160568438Y-116200878D01*
X160568438Y-116200878D02*
X160720819Y-116162782D01*
X160720819Y-116162782D02*
X160797009Y-116086592D01*
X160797009Y-116086592D02*
X160835104Y-116010401D01*
X160035104Y-114905640D02*
X160035104Y-115362783D01*
X160035104Y-115134211D02*
X160835104Y-115134211D01*
X160835104Y-115134211D02*
X160720819Y-115210402D01*
X160720819Y-115210402D02*
X160644628Y-115286592D01*
X160644628Y-115286592D02*
X160606533Y-115362783D01*
X160835104Y-114638973D02*
X160835104Y-114143735D01*
X160835104Y-114143735D02*
X160530342Y-114410401D01*
X160530342Y-114410401D02*
X160530342Y-114296116D01*
X160530342Y-114296116D02*
X160492247Y-114219925D01*
X160492247Y-114219925D02*
X160454152Y-114181830D01*
X160454152Y-114181830D02*
X160377961Y-114143735D01*
X160377961Y-114143735D02*
X160187485Y-114143735D01*
X160187485Y-114143735D02*
X160111295Y-114181830D01*
X160111295Y-114181830D02*
X160073200Y-114219925D01*
X160073200Y-114219925D02*
X160035104Y-114296116D01*
X160035104Y-114296116D02*
X160035104Y-114524687D01*
X160035104Y-114524687D02*
X160073200Y-114600878D01*
X160073200Y-114600878D02*
X160111295Y-114638973D01*
X158297009Y-117724687D02*
X158335104Y-117800877D01*
X158335104Y-117800877D02*
X158335104Y-117915163D01*
X158335104Y-117915163D02*
X158297009Y-118029449D01*
X158297009Y-118029449D02*
X158220819Y-118105639D01*
X158220819Y-118105639D02*
X158144628Y-118143734D01*
X158144628Y-118143734D02*
X157992247Y-118181830D01*
X157992247Y-118181830D02*
X157877961Y-118181830D01*
X157877961Y-118181830D02*
X157725580Y-118143734D01*
X157725580Y-118143734D02*
X157649390Y-118105639D01*
X157649390Y-118105639D02*
X157573200Y-118029449D01*
X157573200Y-118029449D02*
X157535104Y-117915163D01*
X157535104Y-117915163D02*
X157535104Y-117838972D01*
X157535104Y-117838972D02*
X157573200Y-117724687D01*
X157573200Y-117724687D02*
X157611295Y-117686591D01*
X157611295Y-117686591D02*
X157877961Y-117686591D01*
X157877961Y-117686591D02*
X157877961Y-117838972D01*
X157535104Y-117343734D02*
X158335104Y-117343734D01*
X158335104Y-117343734D02*
X158335104Y-117038972D01*
X158335104Y-117038972D02*
X158297009Y-116962782D01*
X158297009Y-116962782D02*
X158258914Y-116924687D01*
X158258914Y-116924687D02*
X158182723Y-116886591D01*
X158182723Y-116886591D02*
X158068438Y-116886591D01*
X158068438Y-116886591D02*
X157992247Y-116924687D01*
X157992247Y-116924687D02*
X157954152Y-116962782D01*
X157954152Y-116962782D02*
X157916057Y-117038972D01*
X157916057Y-117038972D02*
X157916057Y-117343734D01*
X157535104Y-116543734D02*
X158335104Y-116543734D01*
X158335104Y-116010401D02*
X158335104Y-115858020D01*
X158335104Y-115858020D02*
X158297009Y-115781830D01*
X158297009Y-115781830D02*
X158220819Y-115705639D01*
X158220819Y-115705639D02*
X158068438Y-115667544D01*
X158068438Y-115667544D02*
X157801771Y-115667544D01*
X157801771Y-115667544D02*
X157649390Y-115705639D01*
X157649390Y-115705639D02*
X157573200Y-115781830D01*
X157573200Y-115781830D02*
X157535104Y-115858020D01*
X157535104Y-115858020D02*
X157535104Y-116010401D01*
X157535104Y-116010401D02*
X157573200Y-116086592D01*
X157573200Y-116086592D02*
X157649390Y-116162782D01*
X157649390Y-116162782D02*
X157801771Y-116200878D01*
X157801771Y-116200878D02*
X158068438Y-116200878D01*
X158068438Y-116200878D02*
X158220819Y-116162782D01*
X158220819Y-116162782D02*
X158297009Y-116086592D01*
X158297009Y-116086592D02*
X158335104Y-116010401D01*
X157535104Y-114905640D02*
X157535104Y-115362783D01*
X157535104Y-115134211D02*
X158335104Y-115134211D01*
X158335104Y-115134211D02*
X158220819Y-115210402D01*
X158220819Y-115210402D02*
X158144628Y-115286592D01*
X158144628Y-115286592D02*
X158106533Y-115362783D01*
X158068438Y-114219925D02*
X157535104Y-114219925D01*
X158373200Y-114410401D02*
X157801771Y-114600878D01*
X157801771Y-114600878D02*
X157801771Y-114105639D01*
D14*
X124954819Y-96666666D02*
X125669104Y-96666666D01*
X125669104Y-96666666D02*
X125811961Y-96619047D01*
X125811961Y-96619047D02*
X125907200Y-96523809D01*
X125907200Y-96523809D02*
X125954819Y-96380952D01*
X125954819Y-96380952D02*
X125954819Y-96285714D01*
X125288152Y-97571428D02*
X125954819Y-97571428D01*
X124907200Y-97333333D02*
X125621485Y-97095238D01*
X125621485Y-97095238D02*
X125621485Y-97714285D01*
X133007200Y-96142857D02*
X133054819Y-96285714D01*
X133054819Y-96285714D02*
X133054819Y-96523809D01*
X133054819Y-96523809D02*
X133007200Y-96619047D01*
X133007200Y-96619047D02*
X132959580Y-96666666D01*
X132959580Y-96666666D02*
X132864342Y-96714285D01*
X132864342Y-96714285D02*
X132769104Y-96714285D01*
X132769104Y-96714285D02*
X132673866Y-96666666D01*
X132673866Y-96666666D02*
X132626247Y-96619047D01*
X132626247Y-96619047D02*
X132578628Y-96523809D01*
X132578628Y-96523809D02*
X132531009Y-96333333D01*
X132531009Y-96333333D02*
X132483390Y-96238095D01*
X132483390Y-96238095D02*
X132435771Y-96190476D01*
X132435771Y-96190476D02*
X132340533Y-96142857D01*
X132340533Y-96142857D02*
X132245295Y-96142857D01*
X132245295Y-96142857D02*
X132150057Y-96190476D01*
X132150057Y-96190476D02*
X132102438Y-96238095D01*
X132102438Y-96238095D02*
X132054819Y-96333333D01*
X132054819Y-96333333D02*
X132054819Y-96571428D01*
X132054819Y-96571428D02*
X132102438Y-96714285D01*
X132054819Y-97047619D02*
X133054819Y-97285714D01*
X133054819Y-97285714D02*
X132340533Y-97476190D01*
X132340533Y-97476190D02*
X133054819Y-97666666D01*
X133054819Y-97666666D02*
X132054819Y-97904762D01*
X152449819Y-119816666D02*
X153164104Y-119816666D01*
X153164104Y-119816666D02*
X153306961Y-119769047D01*
X153306961Y-119769047D02*
X153402200Y-119673809D01*
X153402200Y-119673809D02*
X153449819Y-119530952D01*
X153449819Y-119530952D02*
X153449819Y-119435714D01*
X152449819Y-120769047D02*
X152449819Y-120292857D01*
X152449819Y-120292857D02*
X152926009Y-120245238D01*
X152926009Y-120245238D02*
X152878390Y-120292857D01*
X152878390Y-120292857D02*
X152830771Y-120388095D01*
X152830771Y-120388095D02*
X152830771Y-120626190D01*
X152830771Y-120626190D02*
X152878390Y-120721428D01*
X152878390Y-120721428D02*
X152926009Y-120769047D01*
X152926009Y-120769047D02*
X153021247Y-120816666D01*
X153021247Y-120816666D02*
X153259342Y-120816666D01*
X153259342Y-120816666D02*
X153354580Y-120769047D01*
X153354580Y-120769047D02*
X153402200Y-120721428D01*
X153402200Y-120721428D02*
X153449819Y-120626190D01*
X153449819Y-120626190D02*
X153449819Y-120388095D01*
X153449819Y-120388095D02*
X153402200Y-120292857D01*
X153402200Y-120292857D02*
X153354580Y-120245238D01*
X161638094Y-122769104D02*
X161161904Y-122769104D01*
X161733332Y-123054819D02*
X161399999Y-122054819D01*
X161399999Y-122054819D02*
X161066666Y-123054819D01*
X160733332Y-122054819D02*
X160733332Y-122864342D01*
X160733332Y-122864342D02*
X160685713Y-122959580D01*
X160685713Y-122959580D02*
X160638094Y-123007200D01*
X160638094Y-123007200D02*
X160542856Y-123054819D01*
X160542856Y-123054819D02*
X160352380Y-123054819D01*
X160352380Y-123054819D02*
X160257142Y-123007200D01*
X160257142Y-123007200D02*
X160209523Y-122959580D01*
X160209523Y-122959580D02*
X160161904Y-122864342D01*
X160161904Y-122864342D02*
X160161904Y-122054819D01*
X159780951Y-122054819D02*
X159114285Y-123054819D01*
X159114285Y-122054819D02*
X159780951Y-123054819D01*
X141983332Y-99307200D02*
X141840475Y-99354819D01*
X141840475Y-99354819D02*
X141602380Y-99354819D01*
X141602380Y-99354819D02*
X141507142Y-99307200D01*
X141507142Y-99307200D02*
X141459523Y-99259580D01*
X141459523Y-99259580D02*
X141411904Y-99164342D01*
X141411904Y-99164342D02*
X141411904Y-99069104D01*
X141411904Y-99069104D02*
X141459523Y-98973866D01*
X141459523Y-98973866D02*
X141507142Y-98926247D01*
X141507142Y-98926247D02*
X141602380Y-98878628D01*
X141602380Y-98878628D02*
X141792856Y-98831009D01*
X141792856Y-98831009D02*
X141888094Y-98783390D01*
X141888094Y-98783390D02*
X141935713Y-98735771D01*
X141935713Y-98735771D02*
X141983332Y-98640533D01*
X141983332Y-98640533D02*
X141983332Y-98545295D01*
X141983332Y-98545295D02*
X141935713Y-98450057D01*
X141935713Y-98450057D02*
X141888094Y-98402438D01*
X141888094Y-98402438D02*
X141792856Y-98354819D01*
X141792856Y-98354819D02*
X141554761Y-98354819D01*
X141554761Y-98354819D02*
X141411904Y-98402438D01*
X141078570Y-98354819D02*
X140840475Y-99354819D01*
X140840475Y-99354819D02*
X140649999Y-98640533D01*
X140649999Y-98640533D02*
X140459523Y-99354819D01*
X140459523Y-99354819D02*
X140221428Y-98354819D01*
X139316666Y-99354819D02*
X139888094Y-99354819D01*
X139602380Y-99354819D02*
X139602380Y-98354819D01*
X139602380Y-98354819D02*
X139697618Y-98497676D01*
X139697618Y-98497676D02*
X139792856Y-98592914D01*
X139792856Y-98592914D02*
X139888094Y-98640533D01*
X141338094Y-107531009D02*
X141004761Y-107531009D01*
X140861904Y-108054819D02*
X141338094Y-108054819D01*
X141338094Y-108054819D02*
X141338094Y-107054819D01*
X141338094Y-107054819D02*
X140861904Y-107054819D01*
X140433332Y-108054819D02*
X140433332Y-107054819D01*
X140433332Y-107054819D02*
X139861904Y-108054819D01*
X139861904Y-108054819D02*
X139861904Y-107054819D01*
X159083332Y-102607200D02*
X158940475Y-102654819D01*
X158940475Y-102654819D02*
X158702380Y-102654819D01*
X158702380Y-102654819D02*
X158607142Y-102607200D01*
X158607142Y-102607200D02*
X158559523Y-102559580D01*
X158559523Y-102559580D02*
X158511904Y-102464342D01*
X158511904Y-102464342D02*
X158511904Y-102369104D01*
X158511904Y-102369104D02*
X158559523Y-102273866D01*
X158559523Y-102273866D02*
X158607142Y-102226247D01*
X158607142Y-102226247D02*
X158702380Y-102178628D01*
X158702380Y-102178628D02*
X158892856Y-102131009D01*
X158892856Y-102131009D02*
X158988094Y-102083390D01*
X158988094Y-102083390D02*
X159035713Y-102035771D01*
X159035713Y-102035771D02*
X159083332Y-101940533D01*
X159083332Y-101940533D02*
X159083332Y-101845295D01*
X159083332Y-101845295D02*
X159035713Y-101750057D01*
X159035713Y-101750057D02*
X158988094Y-101702438D01*
X158988094Y-101702438D02*
X158892856Y-101654819D01*
X158892856Y-101654819D02*
X158654761Y-101654819D01*
X158654761Y-101654819D02*
X158511904Y-101702438D01*
X158178570Y-101654819D02*
X157940475Y-102654819D01*
X157940475Y-102654819D02*
X157749999Y-101940533D01*
X157749999Y-101940533D02*
X157559523Y-102654819D01*
X157559523Y-102654819D02*
X157321428Y-101654819D01*
X156988094Y-101750057D02*
X156940475Y-101702438D01*
X156940475Y-101702438D02*
X156845237Y-101654819D01*
X156845237Y-101654819D02*
X156607142Y-101654819D01*
X156607142Y-101654819D02*
X156511904Y-101702438D01*
X156511904Y-101702438D02*
X156464285Y-101750057D01*
X156464285Y-101750057D02*
X156416666Y-101845295D01*
X156416666Y-101845295D02*
X156416666Y-101940533D01*
X156416666Y-101940533D02*
X156464285Y-102083390D01*
X156464285Y-102083390D02*
X157035713Y-102654819D01*
X157035713Y-102654819D02*
X156416666Y-102654819D01*
X159057142Y-110831009D02*
X158914285Y-110878628D01*
X158914285Y-110878628D02*
X158866666Y-110926247D01*
X158866666Y-110926247D02*
X158819047Y-111021485D01*
X158819047Y-111021485D02*
X158819047Y-111164342D01*
X158819047Y-111164342D02*
X158866666Y-111259580D01*
X158866666Y-111259580D02*
X158914285Y-111307200D01*
X158914285Y-111307200D02*
X159009523Y-111354819D01*
X159009523Y-111354819D02*
X159390475Y-111354819D01*
X159390475Y-111354819D02*
X159390475Y-110354819D01*
X159390475Y-110354819D02*
X159057142Y-110354819D01*
X159057142Y-110354819D02*
X158961904Y-110402438D01*
X158961904Y-110402438D02*
X158914285Y-110450057D01*
X158914285Y-110450057D02*
X158866666Y-110545295D01*
X158866666Y-110545295D02*
X158866666Y-110640533D01*
X158866666Y-110640533D02*
X158914285Y-110735771D01*
X158914285Y-110735771D02*
X158961904Y-110783390D01*
X158961904Y-110783390D02*
X159057142Y-110831009D01*
X159057142Y-110831009D02*
X159390475Y-110831009D01*
X158199999Y-110354819D02*
X158009523Y-110354819D01*
X158009523Y-110354819D02*
X157914285Y-110402438D01*
X157914285Y-110402438D02*
X157819047Y-110497676D01*
X157819047Y-110497676D02*
X157771428Y-110688152D01*
X157771428Y-110688152D02*
X157771428Y-111021485D01*
X157771428Y-111021485D02*
X157819047Y-111211961D01*
X157819047Y-111211961D02*
X157914285Y-111307200D01*
X157914285Y-111307200D02*
X158009523Y-111354819D01*
X158009523Y-111354819D02*
X158199999Y-111354819D01*
X158199999Y-111354819D02*
X158295237Y-111307200D01*
X158295237Y-111307200D02*
X158390475Y-111211961D01*
X158390475Y-111211961D02*
X158438094Y-111021485D01*
X158438094Y-111021485D02*
X158438094Y-110688152D01*
X158438094Y-110688152D02*
X158390475Y-110497676D01*
X158390475Y-110497676D02*
X158295237Y-110402438D01*
X158295237Y-110402438D02*
X158199999Y-110354819D01*
X157152380Y-110354819D02*
X156961904Y-110354819D01*
X156961904Y-110354819D02*
X156866666Y-110402438D01*
X156866666Y-110402438D02*
X156771428Y-110497676D01*
X156771428Y-110497676D02*
X156723809Y-110688152D01*
X156723809Y-110688152D02*
X156723809Y-111021485D01*
X156723809Y-111021485D02*
X156771428Y-111211961D01*
X156771428Y-111211961D02*
X156866666Y-111307200D01*
X156866666Y-111307200D02*
X156961904Y-111354819D01*
X156961904Y-111354819D02*
X157152380Y-111354819D01*
X157152380Y-111354819D02*
X157247618Y-111307200D01*
X157247618Y-111307200D02*
X157342856Y-111211961D01*
X157342856Y-111211961D02*
X157390475Y-111021485D01*
X157390475Y-111021485D02*
X157390475Y-110688152D01*
X157390475Y-110688152D02*
X157342856Y-110497676D01*
X157342856Y-110497676D02*
X157247618Y-110402438D01*
X157247618Y-110402438D02*
X157152380Y-110354819D01*
X156438094Y-110354819D02*
X155866666Y-110354819D01*
X156152380Y-111354819D02*
X156152380Y-110354819D01*
D15*
%TO.C,J4*%
X126230000Y-97000000D02*
X126230000Y-95670000D01*
X126230000Y-95670000D02*
X127560000Y-95670000D01*
X131430000Y-98330000D02*
X128830000Y-98330000D01*
X128830000Y-98330000D02*
X128830000Y-95670000D01*
X131430000Y-95670000D02*
X128830000Y-95670000D01*
X131430000Y-98330000D02*
X131430000Y-95670000D01*
%TO.C,J5*%
X166815000Y-121480000D02*
X166815000Y-118820000D01*
X166815000Y-118820000D02*
X156595000Y-118820000D01*
X156595000Y-121480000D02*
X156595000Y-118820000D01*
X166815000Y-121480000D02*
X156595000Y-121480000D01*
X153995000Y-118820000D02*
X155325000Y-118820000D01*
X153995000Y-120150000D02*
X153995000Y-118820000D01*
%TO.C,SW1*%
X137150000Y-102400000D02*
X137150000Y-103900000D01*
X138400000Y-106400000D02*
X142900000Y-106400000D01*
X142900000Y-99900000D02*
X138400000Y-99900000D01*
X144150000Y-103900000D02*
X144150000Y-102400000D01*
%TO.C,SW2*%
X154250000Y-105700000D02*
X154250000Y-107200000D01*
X155500000Y-109700000D02*
X160000000Y-109700000D01*
X160000000Y-103200000D02*
X155500000Y-103200000D01*
X161250000Y-107200000D02*
X161250000Y-105700000D01*
%TD*%
%LPC*%
D16*
%TO.C,J1*%
X172350000Y-101700000D03*
D17*
X172350000Y-99200000D03*
%TD*%
D18*
%TO.C,H3*%
X128100000Y-120100000D03*
%TD*%
D16*
%TO.C,J2*%
X172350000Y-110100000D03*
D17*
X172350000Y-107600000D03*
%TD*%
D19*
%TO.C,J4*%
X127560000Y-97000000D03*
D20*
X130100000Y-97000000D03*
%TD*%
D21*
%TO.C,J6*%
X127500000Y-101600000D03*
D22*
X130000000Y-101600000D03*
%TD*%
D20*
%TO.C,J5*%
X165485000Y-120150000D03*
X162945000Y-120150000D03*
X160405000Y-120150000D03*
X157865000Y-120150000D03*
D19*
X155325000Y-120150000D03*
%TD*%
D18*
%TO.C,H1*%
X128100000Y-92100000D03*
%TD*%
%TO.C,H4*%
X178100000Y-120100000D03*
%TD*%
%TO.C,H2*%
X178100000Y-92100000D03*
%TD*%
D23*
%TO.C,J3*%
X138050000Y-111700000D03*
D24*
X138050000Y-119200000D03*
D25*
X140200000Y-113050000D03*
X135900000Y-113050000D03*
X140200000Y-117850000D03*
X135900000Y-117850000D03*
%TD*%
D26*
%TO.C,SW1*%
X143900000Y-100900000D03*
X137400000Y-100900000D03*
X143900000Y-105400000D03*
X137400000Y-105400000D03*
%TD*%
%TO.C,SW2*%
X161000000Y-104200000D03*
X154500000Y-104200000D03*
X161000000Y-108700000D03*
X154500000Y-108700000D03*
%TD*%
%LPD*%
M02*
