%TF.GenerationSoftware,KiCad,Pcbnew,8.0.1*%
%TF.CreationDate,2025-02-14T15:05:36+08:00*%
%TF.ProjectId,SpeakerDriver,53706561-6b65-4724-9472-697665722e6b,rev?*%
%TF.SameCoordinates,Original*%
%TF.FileFunction,Drillmap*%
%TF.FilePolarity,Positive*%
%FSLAX45Y45*%
G04 Gerber Fmt 4.5, Leading zero omitted, Abs format (unit mm)*
G04 Created by KiCad (PCBNEW 8.0.1) date 2025-02-14 15:05:36*
%MOMM*%
%LPD*%
G01*
G04 APERTURE LIST*
%ADD10C,0.050000*%
%ADD11C,0.200000*%
%ADD12C,0.100000*%
G04 APERTURE END LIST*
D10*
X18170000Y-12000000D02*
G75*
G02*
X17810000Y-12360000I-360000J0D01*
G01*
X12450000Y-12000000D02*
X12450000Y-9210000D01*
X17810000Y-12360000D02*
X12810000Y-12360000D01*
X12810000Y-12360000D02*
G75*
G02*
X12450000Y-12000000I0J360000D01*
G01*
X12450000Y-9210000D02*
G75*
G02*
X12810000Y-8850000I360000J0D01*
G01*
X18170000Y-9210000D02*
X18170000Y-12000000D01*
X12810000Y-8850000D02*
X17810000Y-8850000D01*
X17810000Y-8850000D02*
G75*
G02*
X18170000Y-9210000I0J-360000D01*
G01*
D11*
D12*
X13776000Y-11891000D02*
X13834000Y-11949000D01*
X13834000Y-11891000D02*
X13776000Y-11949000D01*
X13776000Y-11899000D02*
X13776000Y-11941000D01*
X13834000Y-11941000D02*
G75*
G02*
X13776000Y-11941000I-29000J0D01*
G01*
X13834000Y-11941000D02*
X13834000Y-11899000D01*
X13834000Y-11899000D02*
G75*
G03*
X13776000Y-11899000I-29000J0D01*
G01*
X13838000Y-11170000D02*
G75*
G02*
X13772000Y-11170000I-33000J0D01*
G01*
X13772000Y-11170000D02*
G75*
G02*
X13838000Y-11170000I33000J0D01*
G01*
D11*
X12708277Y-12673984D02*
X12708277Y-12473984D01*
X12708277Y-12473984D02*
X12755896Y-12473984D01*
X12755896Y-12473984D02*
X12784467Y-12483508D01*
X12784467Y-12483508D02*
X12803515Y-12502555D01*
X12803515Y-12502555D02*
X12813039Y-12521603D01*
X12813039Y-12521603D02*
X12822562Y-12559698D01*
X12822562Y-12559698D02*
X12822562Y-12588269D01*
X12822562Y-12588269D02*
X12813039Y-12626365D01*
X12813039Y-12626365D02*
X12803515Y-12645412D01*
X12803515Y-12645412D02*
X12784467Y-12664460D01*
X12784467Y-12664460D02*
X12755896Y-12673984D01*
X12755896Y-12673984D02*
X12708277Y-12673984D01*
X12908277Y-12673984D02*
X12908277Y-12540650D01*
X12908277Y-12578746D02*
X12917801Y-12559698D01*
X12917801Y-12559698D02*
X12927324Y-12550174D01*
X12927324Y-12550174D02*
X12946372Y-12540650D01*
X12946372Y-12540650D02*
X12965420Y-12540650D01*
X13032086Y-12673984D02*
X13032086Y-12540650D01*
X13032086Y-12473984D02*
X13022562Y-12483508D01*
X13022562Y-12483508D02*
X13032086Y-12493031D01*
X13032086Y-12493031D02*
X13041610Y-12483508D01*
X13041610Y-12483508D02*
X13032086Y-12473984D01*
X13032086Y-12473984D02*
X13032086Y-12493031D01*
X13155896Y-12673984D02*
X13136848Y-12664460D01*
X13136848Y-12664460D02*
X13127324Y-12645412D01*
X13127324Y-12645412D02*
X13127324Y-12473984D01*
X13260658Y-12673984D02*
X13241610Y-12664460D01*
X13241610Y-12664460D02*
X13232086Y-12645412D01*
X13232086Y-12645412D02*
X13232086Y-12473984D01*
X13489229Y-12673984D02*
X13489229Y-12473984D01*
X13489229Y-12473984D02*
X13555896Y-12616841D01*
X13555896Y-12616841D02*
X13622562Y-12473984D01*
X13622562Y-12473984D02*
X13622562Y-12673984D01*
X13803515Y-12673984D02*
X13803515Y-12569222D01*
X13803515Y-12569222D02*
X13793991Y-12550174D01*
X13793991Y-12550174D02*
X13774943Y-12540650D01*
X13774943Y-12540650D02*
X13736848Y-12540650D01*
X13736848Y-12540650D02*
X13717801Y-12550174D01*
X13803515Y-12664460D02*
X13784467Y-12673984D01*
X13784467Y-12673984D02*
X13736848Y-12673984D01*
X13736848Y-12673984D02*
X13717801Y-12664460D01*
X13717801Y-12664460D02*
X13708277Y-12645412D01*
X13708277Y-12645412D02*
X13708277Y-12626365D01*
X13708277Y-12626365D02*
X13717801Y-12607317D01*
X13717801Y-12607317D02*
X13736848Y-12597793D01*
X13736848Y-12597793D02*
X13784467Y-12597793D01*
X13784467Y-12597793D02*
X13803515Y-12588269D01*
X13898753Y-12540650D02*
X13898753Y-12740650D01*
X13898753Y-12550174D02*
X13917801Y-12540650D01*
X13917801Y-12540650D02*
X13955896Y-12540650D01*
X13955896Y-12540650D02*
X13974943Y-12550174D01*
X13974943Y-12550174D02*
X13984467Y-12559698D01*
X13984467Y-12559698D02*
X13993991Y-12578746D01*
X13993991Y-12578746D02*
X13993991Y-12635888D01*
X13993991Y-12635888D02*
X13984467Y-12654936D01*
X13984467Y-12654936D02*
X13974943Y-12664460D01*
X13974943Y-12664460D02*
X13955896Y-12673984D01*
X13955896Y-12673984D02*
X13917801Y-12673984D01*
X13917801Y-12673984D02*
X13898753Y-12664460D01*
X14079705Y-12654936D02*
X14089229Y-12664460D01*
X14089229Y-12664460D02*
X14079705Y-12673984D01*
X14079705Y-12673984D02*
X14070182Y-12664460D01*
X14070182Y-12664460D02*
X14079705Y-12654936D01*
X14079705Y-12654936D02*
X14079705Y-12673984D01*
X14079705Y-12550174D02*
X14089229Y-12559698D01*
X14089229Y-12559698D02*
X14079705Y-12569222D01*
X14079705Y-12569222D02*
X14070182Y-12559698D01*
X14070182Y-12559698D02*
X14079705Y-12550174D01*
X14079705Y-12550174D02*
X14079705Y-12569222D01*
D12*
X12389500Y-12973500D02*
X12447500Y-13031500D01*
X12447500Y-12973500D02*
X12389500Y-13031500D01*
D11*
X12746372Y-12893984D02*
X12765420Y-12893984D01*
X12765420Y-12893984D02*
X12784467Y-12903508D01*
X12784467Y-12903508D02*
X12793991Y-12913031D01*
X12793991Y-12913031D02*
X12803515Y-12932079D01*
X12803515Y-12932079D02*
X12813039Y-12970174D01*
X12813039Y-12970174D02*
X12813039Y-13017793D01*
X12813039Y-13017793D02*
X12803515Y-13055888D01*
X12803515Y-13055888D02*
X12793991Y-13074936D01*
X12793991Y-13074936D02*
X12784467Y-13084460D01*
X12784467Y-13084460D02*
X12765420Y-13093984D01*
X12765420Y-13093984D02*
X12746372Y-13093984D01*
X12746372Y-13093984D02*
X12727324Y-13084460D01*
X12727324Y-13084460D02*
X12717801Y-13074936D01*
X12717801Y-13074936D02*
X12708277Y-13055888D01*
X12708277Y-13055888D02*
X12698753Y-13017793D01*
X12698753Y-13017793D02*
X12698753Y-12970174D01*
X12698753Y-12970174D02*
X12708277Y-12932079D01*
X12708277Y-12932079D02*
X12717801Y-12913031D01*
X12717801Y-12913031D02*
X12727324Y-12903508D01*
X12727324Y-12903508D02*
X12746372Y-12893984D01*
X12898753Y-13074936D02*
X12908277Y-13084460D01*
X12908277Y-13084460D02*
X12898753Y-13093984D01*
X12898753Y-13093984D02*
X12889229Y-13084460D01*
X12889229Y-13084460D02*
X12898753Y-13074936D01*
X12898753Y-13074936D02*
X12898753Y-13093984D01*
X13089229Y-12893984D02*
X12993991Y-12893984D01*
X12993991Y-12893984D02*
X12984467Y-12989222D01*
X12984467Y-12989222D02*
X12993991Y-12979698D01*
X12993991Y-12979698D02*
X13013039Y-12970174D01*
X13013039Y-12970174D02*
X13060658Y-12970174D01*
X13060658Y-12970174D02*
X13079705Y-12979698D01*
X13079705Y-12979698D02*
X13089229Y-12989222D01*
X13089229Y-12989222D02*
X13098753Y-13008269D01*
X13098753Y-13008269D02*
X13098753Y-13055888D01*
X13098753Y-13055888D02*
X13089229Y-13074936D01*
X13089229Y-13074936D02*
X13079705Y-13084460D01*
X13079705Y-13084460D02*
X13060658Y-13093984D01*
X13060658Y-13093984D02*
X13013039Y-13093984D01*
X13013039Y-13093984D02*
X12993991Y-13084460D01*
X12993991Y-13084460D02*
X12984467Y-13074936D01*
X13213039Y-12979698D02*
X13193991Y-12970174D01*
X13193991Y-12970174D02*
X13184467Y-12960650D01*
X13184467Y-12960650D02*
X13174943Y-12941603D01*
X13174943Y-12941603D02*
X13174943Y-12932079D01*
X13174943Y-12932079D02*
X13184467Y-12913031D01*
X13184467Y-12913031D02*
X13193991Y-12903508D01*
X13193991Y-12903508D02*
X13213039Y-12893984D01*
X13213039Y-12893984D02*
X13251134Y-12893984D01*
X13251134Y-12893984D02*
X13270182Y-12903508D01*
X13270182Y-12903508D02*
X13279705Y-12913031D01*
X13279705Y-12913031D02*
X13289229Y-12932079D01*
X13289229Y-12932079D02*
X13289229Y-12941603D01*
X13289229Y-12941603D02*
X13279705Y-12960650D01*
X13279705Y-12960650D02*
X13270182Y-12970174D01*
X13270182Y-12970174D02*
X13251134Y-12979698D01*
X13251134Y-12979698D02*
X13213039Y-12979698D01*
X13213039Y-12979698D02*
X13193991Y-12989222D01*
X13193991Y-12989222D02*
X13184467Y-12998746D01*
X13184467Y-12998746D02*
X13174943Y-13017793D01*
X13174943Y-13017793D02*
X13174943Y-13055888D01*
X13174943Y-13055888D02*
X13184467Y-13074936D01*
X13184467Y-13074936D02*
X13193991Y-13084460D01*
X13193991Y-13084460D02*
X13213039Y-13093984D01*
X13213039Y-13093984D02*
X13251134Y-13093984D01*
X13251134Y-13093984D02*
X13270182Y-13084460D01*
X13270182Y-13084460D02*
X13279705Y-13074936D01*
X13279705Y-13074936D02*
X13289229Y-13055888D01*
X13289229Y-13055888D02*
X13289229Y-13017793D01*
X13289229Y-13017793D02*
X13279705Y-12998746D01*
X13279705Y-12998746D02*
X13270182Y-12989222D01*
X13270182Y-12989222D02*
X13251134Y-12979698D01*
X13413039Y-12893984D02*
X13432086Y-12893984D01*
X13432086Y-12893984D02*
X13451134Y-12903508D01*
X13451134Y-12903508D02*
X13460658Y-12913031D01*
X13460658Y-12913031D02*
X13470182Y-12932079D01*
X13470182Y-12932079D02*
X13479705Y-12970174D01*
X13479705Y-12970174D02*
X13479705Y-13017793D01*
X13479705Y-13017793D02*
X13470182Y-13055888D01*
X13470182Y-13055888D02*
X13460658Y-13074936D01*
X13460658Y-13074936D02*
X13451134Y-13084460D01*
X13451134Y-13084460D02*
X13432086Y-13093984D01*
X13432086Y-13093984D02*
X13413039Y-13093984D01*
X13413039Y-13093984D02*
X13393991Y-13084460D01*
X13393991Y-13084460D02*
X13384467Y-13074936D01*
X13384467Y-13074936D02*
X13374943Y-13055888D01*
X13374943Y-13055888D02*
X13365420Y-13017793D01*
X13365420Y-13017793D02*
X13365420Y-12970174D01*
X13365420Y-12970174D02*
X13374943Y-12932079D01*
X13374943Y-12932079D02*
X13384467Y-12913031D01*
X13384467Y-12913031D02*
X13393991Y-12903508D01*
X13393991Y-12903508D02*
X13413039Y-12893984D01*
X13565420Y-13093984D02*
X13565420Y-12960650D01*
X13565420Y-12979698D02*
X13574943Y-12970174D01*
X13574943Y-12970174D02*
X13593991Y-12960650D01*
X13593991Y-12960650D02*
X13622563Y-12960650D01*
X13622563Y-12960650D02*
X13641610Y-12970174D01*
X13641610Y-12970174D02*
X13651134Y-12989222D01*
X13651134Y-12989222D02*
X13651134Y-13093984D01*
X13651134Y-12989222D02*
X13660658Y-12970174D01*
X13660658Y-12970174D02*
X13679705Y-12960650D01*
X13679705Y-12960650D02*
X13708277Y-12960650D01*
X13708277Y-12960650D02*
X13727324Y-12970174D01*
X13727324Y-12970174D02*
X13736848Y-12989222D01*
X13736848Y-12989222D02*
X13736848Y-13093984D01*
X13832086Y-13093984D02*
X13832086Y-12960650D01*
X13832086Y-12979698D02*
X13841610Y-12970174D01*
X13841610Y-12970174D02*
X13860658Y-12960650D01*
X13860658Y-12960650D02*
X13889229Y-12960650D01*
X13889229Y-12960650D02*
X13908277Y-12970174D01*
X13908277Y-12970174D02*
X13917801Y-12989222D01*
X13917801Y-12989222D02*
X13917801Y-13093984D01*
X13917801Y-12989222D02*
X13927324Y-12970174D01*
X13927324Y-12970174D02*
X13946372Y-12960650D01*
X13946372Y-12960650D02*
X13974943Y-12960650D01*
X13974943Y-12960650D02*
X13993991Y-12970174D01*
X13993991Y-12970174D02*
X14003515Y-12989222D01*
X14003515Y-12989222D02*
X14003515Y-13093984D01*
X14393991Y-12884460D02*
X14222563Y-13141603D01*
X14651134Y-12893984D02*
X14670182Y-12893984D01*
X14670182Y-12893984D02*
X14689229Y-12903508D01*
X14689229Y-12903508D02*
X14698753Y-12913031D01*
X14698753Y-12913031D02*
X14708277Y-12932079D01*
X14708277Y-12932079D02*
X14717801Y-12970174D01*
X14717801Y-12970174D02*
X14717801Y-13017793D01*
X14717801Y-13017793D02*
X14708277Y-13055888D01*
X14708277Y-13055888D02*
X14698753Y-13074936D01*
X14698753Y-13074936D02*
X14689229Y-13084460D01*
X14689229Y-13084460D02*
X14670182Y-13093984D01*
X14670182Y-13093984D02*
X14651134Y-13093984D01*
X14651134Y-13093984D02*
X14632086Y-13084460D01*
X14632086Y-13084460D02*
X14622563Y-13074936D01*
X14622563Y-13074936D02*
X14613039Y-13055888D01*
X14613039Y-13055888D02*
X14603515Y-13017793D01*
X14603515Y-13017793D02*
X14603515Y-12970174D01*
X14603515Y-12970174D02*
X14613039Y-12932079D01*
X14613039Y-12932079D02*
X14622563Y-12913031D01*
X14622563Y-12913031D02*
X14632086Y-12903508D01*
X14632086Y-12903508D02*
X14651134Y-12893984D01*
X14803515Y-13074936D02*
X14813039Y-13084460D01*
X14813039Y-13084460D02*
X14803515Y-13093984D01*
X14803515Y-13093984D02*
X14793991Y-13084460D01*
X14793991Y-13084460D02*
X14803515Y-13074936D01*
X14803515Y-13074936D02*
X14803515Y-13093984D01*
X14936848Y-12893984D02*
X14955896Y-12893984D01*
X14955896Y-12893984D02*
X14974944Y-12903508D01*
X14974944Y-12903508D02*
X14984467Y-12913031D01*
X14984467Y-12913031D02*
X14993991Y-12932079D01*
X14993991Y-12932079D02*
X15003515Y-12970174D01*
X15003515Y-12970174D02*
X15003515Y-13017793D01*
X15003515Y-13017793D02*
X14993991Y-13055888D01*
X14993991Y-13055888D02*
X14984467Y-13074936D01*
X14984467Y-13074936D02*
X14974944Y-13084460D01*
X14974944Y-13084460D02*
X14955896Y-13093984D01*
X14955896Y-13093984D02*
X14936848Y-13093984D01*
X14936848Y-13093984D02*
X14917801Y-13084460D01*
X14917801Y-13084460D02*
X14908277Y-13074936D01*
X14908277Y-13074936D02*
X14898753Y-13055888D01*
X14898753Y-13055888D02*
X14889229Y-13017793D01*
X14889229Y-13017793D02*
X14889229Y-12970174D01*
X14889229Y-12970174D02*
X14898753Y-12932079D01*
X14898753Y-12932079D02*
X14908277Y-12913031D01*
X14908277Y-12913031D02*
X14917801Y-12903508D01*
X14917801Y-12903508D02*
X14936848Y-12893984D01*
X15079706Y-12913031D02*
X15089229Y-12903508D01*
X15089229Y-12903508D02*
X15108277Y-12893984D01*
X15108277Y-12893984D02*
X15155896Y-12893984D01*
X15155896Y-12893984D02*
X15174944Y-12903508D01*
X15174944Y-12903508D02*
X15184467Y-12913031D01*
X15184467Y-12913031D02*
X15193991Y-12932079D01*
X15193991Y-12932079D02*
X15193991Y-12951127D01*
X15193991Y-12951127D02*
X15184467Y-12979698D01*
X15184467Y-12979698D02*
X15070182Y-13093984D01*
X15070182Y-13093984D02*
X15193991Y-13093984D01*
X15270182Y-12913031D02*
X15279706Y-12903508D01*
X15279706Y-12903508D02*
X15298753Y-12893984D01*
X15298753Y-12893984D02*
X15346372Y-12893984D01*
X15346372Y-12893984D02*
X15365420Y-12903508D01*
X15365420Y-12903508D02*
X15374944Y-12913031D01*
X15374944Y-12913031D02*
X15384467Y-12932079D01*
X15384467Y-12932079D02*
X15384467Y-12951127D01*
X15384467Y-12951127D02*
X15374944Y-12979698D01*
X15374944Y-12979698D02*
X15260658Y-13093984D01*
X15260658Y-13093984D02*
X15384467Y-13093984D01*
X15498753Y-12979698D02*
X15479706Y-12970174D01*
X15479706Y-12970174D02*
X15470182Y-12960650D01*
X15470182Y-12960650D02*
X15460658Y-12941603D01*
X15460658Y-12941603D02*
X15460658Y-12932079D01*
X15460658Y-12932079D02*
X15470182Y-12913031D01*
X15470182Y-12913031D02*
X15479706Y-12903508D01*
X15479706Y-12903508D02*
X15498753Y-12893984D01*
X15498753Y-12893984D02*
X15536848Y-12893984D01*
X15536848Y-12893984D02*
X15555896Y-12903508D01*
X15555896Y-12903508D02*
X15565420Y-12913031D01*
X15565420Y-12913031D02*
X15574944Y-12932079D01*
X15574944Y-12932079D02*
X15574944Y-12941603D01*
X15574944Y-12941603D02*
X15565420Y-12960650D01*
X15565420Y-12960650D02*
X15555896Y-12970174D01*
X15555896Y-12970174D02*
X15536848Y-12979698D01*
X15536848Y-12979698D02*
X15498753Y-12979698D01*
X15498753Y-12979698D02*
X15479706Y-12989222D01*
X15479706Y-12989222D02*
X15470182Y-12998746D01*
X15470182Y-12998746D02*
X15460658Y-13017793D01*
X15460658Y-13017793D02*
X15460658Y-13055888D01*
X15460658Y-13055888D02*
X15470182Y-13074936D01*
X15470182Y-13074936D02*
X15479706Y-13084460D01*
X15479706Y-13084460D02*
X15498753Y-13093984D01*
X15498753Y-13093984D02*
X15536848Y-13093984D01*
X15536848Y-13093984D02*
X15555896Y-13084460D01*
X15555896Y-13084460D02*
X15565420Y-13074936D01*
X15565420Y-13074936D02*
X15574944Y-13055888D01*
X15574944Y-13055888D02*
X15574944Y-13017793D01*
X15574944Y-13017793D02*
X15565420Y-12998746D01*
X15565420Y-12998746D02*
X15555896Y-12989222D01*
X15555896Y-12989222D02*
X15536848Y-12979698D01*
X15651134Y-12893984D02*
X15651134Y-12932079D01*
X15727325Y-12893984D02*
X15727325Y-12932079D01*
X16022563Y-13170174D02*
X16013039Y-13160650D01*
X16013039Y-13160650D02*
X15993991Y-13132079D01*
X15993991Y-13132079D02*
X15984468Y-13113031D01*
X15984468Y-13113031D02*
X15974944Y-13084460D01*
X15974944Y-13084460D02*
X15965420Y-13036841D01*
X15965420Y-13036841D02*
X15965420Y-12998746D01*
X15965420Y-12998746D02*
X15974944Y-12951127D01*
X15974944Y-12951127D02*
X15984468Y-12922555D01*
X15984468Y-12922555D02*
X15993991Y-12903508D01*
X15993991Y-12903508D02*
X16013039Y-12874936D01*
X16013039Y-12874936D02*
X16022563Y-12865412D01*
X16203515Y-13093984D02*
X16089229Y-13093984D01*
X16146372Y-13093984D02*
X16146372Y-12893984D01*
X16146372Y-12893984D02*
X16127325Y-12922555D01*
X16127325Y-12922555D02*
X16108277Y-12941603D01*
X16108277Y-12941603D02*
X16089229Y-12951127D01*
X16432087Y-13084460D02*
X16451134Y-13093984D01*
X16451134Y-13093984D02*
X16489229Y-13093984D01*
X16489229Y-13093984D02*
X16508277Y-13084460D01*
X16508277Y-13084460D02*
X16517801Y-13065412D01*
X16517801Y-13065412D02*
X16517801Y-13055888D01*
X16517801Y-13055888D02*
X16508277Y-13036841D01*
X16508277Y-13036841D02*
X16489229Y-13027317D01*
X16489229Y-13027317D02*
X16460658Y-13027317D01*
X16460658Y-13027317D02*
X16441610Y-13017793D01*
X16441610Y-13017793D02*
X16432087Y-12998746D01*
X16432087Y-12998746D02*
X16432087Y-12989222D01*
X16432087Y-12989222D02*
X16441610Y-12970174D01*
X16441610Y-12970174D02*
X16460658Y-12960650D01*
X16460658Y-12960650D02*
X16489229Y-12960650D01*
X16489229Y-12960650D02*
X16508277Y-12970174D01*
X16632087Y-13093984D02*
X16613039Y-13084460D01*
X16613039Y-13084460D02*
X16603515Y-13065412D01*
X16603515Y-13065412D02*
X16603515Y-12893984D01*
X16736849Y-13093984D02*
X16717801Y-13084460D01*
X16717801Y-13084460D02*
X16708277Y-13074936D01*
X16708277Y-13074936D02*
X16698753Y-13055888D01*
X16698753Y-13055888D02*
X16698753Y-12998746D01*
X16698753Y-12998746D02*
X16708277Y-12979698D01*
X16708277Y-12979698D02*
X16717801Y-12970174D01*
X16717801Y-12970174D02*
X16736849Y-12960650D01*
X16736849Y-12960650D02*
X16765420Y-12960650D01*
X16765420Y-12960650D02*
X16784468Y-12970174D01*
X16784468Y-12970174D02*
X16793992Y-12979698D01*
X16793992Y-12979698D02*
X16803515Y-12998746D01*
X16803515Y-12998746D02*
X16803515Y-13055888D01*
X16803515Y-13055888D02*
X16793992Y-13074936D01*
X16793992Y-13074936D02*
X16784468Y-13084460D01*
X16784468Y-13084460D02*
X16765420Y-13093984D01*
X16765420Y-13093984D02*
X16736849Y-13093984D01*
X16860658Y-12960650D02*
X16936849Y-12960650D01*
X16889230Y-12893984D02*
X16889230Y-13065412D01*
X16889230Y-13065412D02*
X16898753Y-13084460D01*
X16898753Y-13084460D02*
X16917801Y-13093984D01*
X16917801Y-13093984D02*
X16936849Y-13093984D01*
X16984468Y-13170174D02*
X16993992Y-13160650D01*
X16993992Y-13160650D02*
X17013039Y-13132079D01*
X17013039Y-13132079D02*
X17022563Y-13113031D01*
X17022563Y-13113031D02*
X17032087Y-13084460D01*
X17032087Y-13084460D02*
X17041611Y-13036841D01*
X17041611Y-13036841D02*
X17041611Y-12998746D01*
X17041611Y-12998746D02*
X17032087Y-12951127D01*
X17032087Y-12951127D02*
X17022563Y-12922555D01*
X17022563Y-12922555D02*
X17013039Y-12903508D01*
X17013039Y-12903508D02*
X16993992Y-12874936D01*
X16993992Y-12874936D02*
X16984468Y-12865412D01*
X17346373Y-13170174D02*
X17336849Y-13160650D01*
X17336849Y-13160650D02*
X17317801Y-13132079D01*
X17317801Y-13132079D02*
X17308277Y-13113031D01*
X17308277Y-13113031D02*
X17298753Y-13084460D01*
X17298753Y-13084460D02*
X17289230Y-13036841D01*
X17289230Y-13036841D02*
X17289230Y-12998746D01*
X17289230Y-12998746D02*
X17298753Y-12951127D01*
X17298753Y-12951127D02*
X17308277Y-12922555D01*
X17308277Y-12922555D02*
X17317801Y-12903508D01*
X17317801Y-12903508D02*
X17336849Y-12874936D01*
X17336849Y-12874936D02*
X17346373Y-12865412D01*
X17422563Y-12960650D02*
X17422563Y-13093984D01*
X17422563Y-12979698D02*
X17432087Y-12970174D01*
X17432087Y-12970174D02*
X17451134Y-12960650D01*
X17451134Y-12960650D02*
X17479706Y-12960650D01*
X17479706Y-12960650D02*
X17498753Y-12970174D01*
X17498753Y-12970174D02*
X17508277Y-12989222D01*
X17508277Y-12989222D02*
X17508277Y-13093984D01*
X17632087Y-13093984D02*
X17613039Y-13084460D01*
X17613039Y-13084460D02*
X17603515Y-13074936D01*
X17603515Y-13074936D02*
X17593992Y-13055888D01*
X17593992Y-13055888D02*
X17593992Y-12998746D01*
X17593992Y-12998746D02*
X17603515Y-12979698D01*
X17603515Y-12979698D02*
X17613039Y-12970174D01*
X17613039Y-12970174D02*
X17632087Y-12960650D01*
X17632087Y-12960650D02*
X17660658Y-12960650D01*
X17660658Y-12960650D02*
X17679706Y-12970174D01*
X17679706Y-12970174D02*
X17689230Y-12979698D01*
X17689230Y-12979698D02*
X17698753Y-12998746D01*
X17698753Y-12998746D02*
X17698753Y-13055888D01*
X17698753Y-13055888D02*
X17689230Y-13074936D01*
X17689230Y-13074936D02*
X17679706Y-13084460D01*
X17679706Y-13084460D02*
X17660658Y-13093984D01*
X17660658Y-13093984D02*
X17632087Y-13093984D01*
X17755896Y-12960650D02*
X17832087Y-12960650D01*
X17784468Y-12893984D02*
X17784468Y-13065412D01*
X17784468Y-13065412D02*
X17793992Y-13084460D01*
X17793992Y-13084460D02*
X17813039Y-13093984D01*
X17813039Y-13093984D02*
X17832087Y-13093984D01*
X18051134Y-12960650D02*
X18051134Y-13160650D01*
X18051134Y-12970174D02*
X18070182Y-12960650D01*
X18070182Y-12960650D02*
X18108277Y-12960650D01*
X18108277Y-12960650D02*
X18127325Y-12970174D01*
X18127325Y-12970174D02*
X18136849Y-12979698D01*
X18136849Y-12979698D02*
X18146373Y-12998746D01*
X18146373Y-12998746D02*
X18146373Y-13055888D01*
X18146373Y-13055888D02*
X18136849Y-13074936D01*
X18136849Y-13074936D02*
X18127325Y-13084460D01*
X18127325Y-13084460D02*
X18108277Y-13093984D01*
X18108277Y-13093984D02*
X18070182Y-13093984D01*
X18070182Y-13093984D02*
X18051134Y-13084460D01*
X18260658Y-13093984D02*
X18241611Y-13084460D01*
X18241611Y-13084460D02*
X18232087Y-13065412D01*
X18232087Y-13065412D02*
X18232087Y-12893984D01*
X18422563Y-13093984D02*
X18422563Y-12989222D01*
X18422563Y-12989222D02*
X18413039Y-12970174D01*
X18413039Y-12970174D02*
X18393992Y-12960650D01*
X18393992Y-12960650D02*
X18355896Y-12960650D01*
X18355896Y-12960650D02*
X18336849Y-12970174D01*
X18422563Y-13084460D02*
X18403515Y-13093984D01*
X18403515Y-13093984D02*
X18355896Y-13093984D01*
X18355896Y-13093984D02*
X18336849Y-13084460D01*
X18336849Y-13084460D02*
X18327325Y-13065412D01*
X18327325Y-13065412D02*
X18327325Y-13046365D01*
X18327325Y-13046365D02*
X18336849Y-13027317D01*
X18336849Y-13027317D02*
X18355896Y-13017793D01*
X18355896Y-13017793D02*
X18403515Y-13017793D01*
X18403515Y-13017793D02*
X18422563Y-13008269D01*
X18489230Y-12960650D02*
X18565420Y-12960650D01*
X18517801Y-12893984D02*
X18517801Y-13065412D01*
X18517801Y-13065412D02*
X18527325Y-13084460D01*
X18527325Y-13084460D02*
X18546373Y-13093984D01*
X18546373Y-13093984D02*
X18565420Y-13093984D01*
X18708277Y-13084460D02*
X18689230Y-13093984D01*
X18689230Y-13093984D02*
X18651134Y-13093984D01*
X18651134Y-13093984D02*
X18632087Y-13084460D01*
X18632087Y-13084460D02*
X18622563Y-13065412D01*
X18622563Y-13065412D02*
X18622563Y-12989222D01*
X18622563Y-12989222D02*
X18632087Y-12970174D01*
X18632087Y-12970174D02*
X18651134Y-12960650D01*
X18651134Y-12960650D02*
X18689230Y-12960650D01*
X18689230Y-12960650D02*
X18708277Y-12970174D01*
X18708277Y-12970174D02*
X18717801Y-12989222D01*
X18717801Y-12989222D02*
X18717801Y-13008269D01*
X18717801Y-13008269D02*
X18622563Y-13027317D01*
X18889230Y-13093984D02*
X18889230Y-12893984D01*
X18889230Y-13084460D02*
X18870182Y-13093984D01*
X18870182Y-13093984D02*
X18832087Y-13093984D01*
X18832087Y-13093984D02*
X18813039Y-13084460D01*
X18813039Y-13084460D02*
X18803515Y-13074936D01*
X18803515Y-13074936D02*
X18793992Y-13055888D01*
X18793992Y-13055888D02*
X18793992Y-12998746D01*
X18793992Y-12998746D02*
X18803515Y-12979698D01*
X18803515Y-12979698D02*
X18813039Y-12970174D01*
X18813039Y-12970174D02*
X18832087Y-12960650D01*
X18832087Y-12960650D02*
X18870182Y-12960650D01*
X18870182Y-12960650D02*
X18889230Y-12970174D01*
X18965420Y-13170174D02*
X18974944Y-13160650D01*
X18974944Y-13160650D02*
X18993992Y-13132079D01*
X18993992Y-13132079D02*
X19003515Y-13113031D01*
X19003515Y-13113031D02*
X19013039Y-13084460D01*
X19013039Y-13084460D02*
X19022563Y-13036841D01*
X19022563Y-13036841D02*
X19022563Y-12998746D01*
X19022563Y-12998746D02*
X19013039Y-12951127D01*
X19013039Y-12951127D02*
X19003515Y-12922555D01*
X19003515Y-12922555D02*
X18993992Y-12903508D01*
X18993992Y-12903508D02*
X18974944Y-12874936D01*
X18974944Y-12874936D02*
X18965420Y-12865412D01*
D12*
X12447500Y-13266500D02*
G75*
G02*
X12381500Y-13266500I-33000J0D01*
G01*
X12381500Y-13266500D02*
G75*
G02*
X12447500Y-13266500I33000J0D01*
G01*
D11*
X12746372Y-13157984D02*
X12765420Y-13157984D01*
X12765420Y-13157984D02*
X12784467Y-13167508D01*
X12784467Y-13167508D02*
X12793991Y-13177031D01*
X12793991Y-13177031D02*
X12803515Y-13196079D01*
X12803515Y-13196079D02*
X12813039Y-13234174D01*
X12813039Y-13234174D02*
X12813039Y-13281793D01*
X12813039Y-13281793D02*
X12803515Y-13319888D01*
X12803515Y-13319888D02*
X12793991Y-13338936D01*
X12793991Y-13338936D02*
X12784467Y-13348460D01*
X12784467Y-13348460D02*
X12765420Y-13357984D01*
X12765420Y-13357984D02*
X12746372Y-13357984D01*
X12746372Y-13357984D02*
X12727324Y-13348460D01*
X12727324Y-13348460D02*
X12717801Y-13338936D01*
X12717801Y-13338936D02*
X12708277Y-13319888D01*
X12708277Y-13319888D02*
X12698753Y-13281793D01*
X12698753Y-13281793D02*
X12698753Y-13234174D01*
X12698753Y-13234174D02*
X12708277Y-13196079D01*
X12708277Y-13196079D02*
X12717801Y-13177031D01*
X12717801Y-13177031D02*
X12727324Y-13167508D01*
X12727324Y-13167508D02*
X12746372Y-13157984D01*
X12898753Y-13338936D02*
X12908277Y-13348460D01*
X12908277Y-13348460D02*
X12898753Y-13357984D01*
X12898753Y-13357984D02*
X12889229Y-13348460D01*
X12889229Y-13348460D02*
X12898753Y-13338936D01*
X12898753Y-13338936D02*
X12898753Y-13357984D01*
X13079705Y-13157984D02*
X13041610Y-13157984D01*
X13041610Y-13157984D02*
X13022562Y-13167508D01*
X13022562Y-13167508D02*
X13013039Y-13177031D01*
X13013039Y-13177031D02*
X12993991Y-13205603D01*
X12993991Y-13205603D02*
X12984467Y-13243698D01*
X12984467Y-13243698D02*
X12984467Y-13319888D01*
X12984467Y-13319888D02*
X12993991Y-13338936D01*
X12993991Y-13338936D02*
X13003515Y-13348460D01*
X13003515Y-13348460D02*
X13022562Y-13357984D01*
X13022562Y-13357984D02*
X13060658Y-13357984D01*
X13060658Y-13357984D02*
X13079705Y-13348460D01*
X13079705Y-13348460D02*
X13089229Y-13338936D01*
X13089229Y-13338936D02*
X13098753Y-13319888D01*
X13098753Y-13319888D02*
X13098753Y-13272269D01*
X13098753Y-13272269D02*
X13089229Y-13253222D01*
X13089229Y-13253222D02*
X13079705Y-13243698D01*
X13079705Y-13243698D02*
X13060658Y-13234174D01*
X13060658Y-13234174D02*
X13022562Y-13234174D01*
X13022562Y-13234174D02*
X13003515Y-13243698D01*
X13003515Y-13243698D02*
X12993991Y-13253222D01*
X12993991Y-13253222D02*
X12984467Y-13272269D01*
X13270182Y-13157984D02*
X13232086Y-13157984D01*
X13232086Y-13157984D02*
X13213039Y-13167508D01*
X13213039Y-13167508D02*
X13203515Y-13177031D01*
X13203515Y-13177031D02*
X13184467Y-13205603D01*
X13184467Y-13205603D02*
X13174943Y-13243698D01*
X13174943Y-13243698D02*
X13174943Y-13319888D01*
X13174943Y-13319888D02*
X13184467Y-13338936D01*
X13184467Y-13338936D02*
X13193991Y-13348460D01*
X13193991Y-13348460D02*
X13213039Y-13357984D01*
X13213039Y-13357984D02*
X13251134Y-13357984D01*
X13251134Y-13357984D02*
X13270182Y-13348460D01*
X13270182Y-13348460D02*
X13279705Y-13338936D01*
X13279705Y-13338936D02*
X13289229Y-13319888D01*
X13289229Y-13319888D02*
X13289229Y-13272269D01*
X13289229Y-13272269D02*
X13279705Y-13253222D01*
X13279705Y-13253222D02*
X13270182Y-13243698D01*
X13270182Y-13243698D02*
X13251134Y-13234174D01*
X13251134Y-13234174D02*
X13213039Y-13234174D01*
X13213039Y-13234174D02*
X13193991Y-13243698D01*
X13193991Y-13243698D02*
X13184467Y-13253222D01*
X13184467Y-13253222D02*
X13174943Y-13272269D01*
X13413039Y-13157984D02*
X13432086Y-13157984D01*
X13432086Y-13157984D02*
X13451134Y-13167508D01*
X13451134Y-13167508D02*
X13460658Y-13177031D01*
X13460658Y-13177031D02*
X13470182Y-13196079D01*
X13470182Y-13196079D02*
X13479705Y-13234174D01*
X13479705Y-13234174D02*
X13479705Y-13281793D01*
X13479705Y-13281793D02*
X13470182Y-13319888D01*
X13470182Y-13319888D02*
X13460658Y-13338936D01*
X13460658Y-13338936D02*
X13451134Y-13348460D01*
X13451134Y-13348460D02*
X13432086Y-13357984D01*
X13432086Y-13357984D02*
X13413039Y-13357984D01*
X13413039Y-13357984D02*
X13393991Y-13348460D01*
X13393991Y-13348460D02*
X13384467Y-13338936D01*
X13384467Y-13338936D02*
X13374943Y-13319888D01*
X13374943Y-13319888D02*
X13365420Y-13281793D01*
X13365420Y-13281793D02*
X13365420Y-13234174D01*
X13365420Y-13234174D02*
X13374943Y-13196079D01*
X13374943Y-13196079D02*
X13384467Y-13177031D01*
X13384467Y-13177031D02*
X13393991Y-13167508D01*
X13393991Y-13167508D02*
X13413039Y-13157984D01*
X13565420Y-13357984D02*
X13565420Y-13224650D01*
X13565420Y-13243698D02*
X13574943Y-13234174D01*
X13574943Y-13234174D02*
X13593991Y-13224650D01*
X13593991Y-13224650D02*
X13622563Y-13224650D01*
X13622563Y-13224650D02*
X13641610Y-13234174D01*
X13641610Y-13234174D02*
X13651134Y-13253222D01*
X13651134Y-13253222D02*
X13651134Y-13357984D01*
X13651134Y-13253222D02*
X13660658Y-13234174D01*
X13660658Y-13234174D02*
X13679705Y-13224650D01*
X13679705Y-13224650D02*
X13708277Y-13224650D01*
X13708277Y-13224650D02*
X13727324Y-13234174D01*
X13727324Y-13234174D02*
X13736848Y-13253222D01*
X13736848Y-13253222D02*
X13736848Y-13357984D01*
X13832086Y-13357984D02*
X13832086Y-13224650D01*
X13832086Y-13243698D02*
X13841610Y-13234174D01*
X13841610Y-13234174D02*
X13860658Y-13224650D01*
X13860658Y-13224650D02*
X13889229Y-13224650D01*
X13889229Y-13224650D02*
X13908277Y-13234174D01*
X13908277Y-13234174D02*
X13917801Y-13253222D01*
X13917801Y-13253222D02*
X13917801Y-13357984D01*
X13917801Y-13253222D02*
X13927324Y-13234174D01*
X13927324Y-13234174D02*
X13946372Y-13224650D01*
X13946372Y-13224650D02*
X13974943Y-13224650D01*
X13974943Y-13224650D02*
X13993991Y-13234174D01*
X13993991Y-13234174D02*
X14003515Y-13253222D01*
X14003515Y-13253222D02*
X14003515Y-13357984D01*
X14393991Y-13148460D02*
X14222563Y-13405603D01*
X14651134Y-13157984D02*
X14670182Y-13157984D01*
X14670182Y-13157984D02*
X14689229Y-13167508D01*
X14689229Y-13167508D02*
X14698753Y-13177031D01*
X14698753Y-13177031D02*
X14708277Y-13196079D01*
X14708277Y-13196079D02*
X14717801Y-13234174D01*
X14717801Y-13234174D02*
X14717801Y-13281793D01*
X14717801Y-13281793D02*
X14708277Y-13319888D01*
X14708277Y-13319888D02*
X14698753Y-13338936D01*
X14698753Y-13338936D02*
X14689229Y-13348460D01*
X14689229Y-13348460D02*
X14670182Y-13357984D01*
X14670182Y-13357984D02*
X14651134Y-13357984D01*
X14651134Y-13357984D02*
X14632086Y-13348460D01*
X14632086Y-13348460D02*
X14622563Y-13338936D01*
X14622563Y-13338936D02*
X14613039Y-13319888D01*
X14613039Y-13319888D02*
X14603515Y-13281793D01*
X14603515Y-13281793D02*
X14603515Y-13234174D01*
X14603515Y-13234174D02*
X14613039Y-13196079D01*
X14613039Y-13196079D02*
X14622563Y-13177031D01*
X14622563Y-13177031D02*
X14632086Y-13167508D01*
X14632086Y-13167508D02*
X14651134Y-13157984D01*
X14803515Y-13338936D02*
X14813039Y-13348460D01*
X14813039Y-13348460D02*
X14803515Y-13357984D01*
X14803515Y-13357984D02*
X14793991Y-13348460D01*
X14793991Y-13348460D02*
X14803515Y-13338936D01*
X14803515Y-13338936D02*
X14803515Y-13357984D01*
X14936848Y-13157984D02*
X14955896Y-13157984D01*
X14955896Y-13157984D02*
X14974944Y-13167508D01*
X14974944Y-13167508D02*
X14984467Y-13177031D01*
X14984467Y-13177031D02*
X14993991Y-13196079D01*
X14993991Y-13196079D02*
X15003515Y-13234174D01*
X15003515Y-13234174D02*
X15003515Y-13281793D01*
X15003515Y-13281793D02*
X14993991Y-13319888D01*
X14993991Y-13319888D02*
X14984467Y-13338936D01*
X14984467Y-13338936D02*
X14974944Y-13348460D01*
X14974944Y-13348460D02*
X14955896Y-13357984D01*
X14955896Y-13357984D02*
X14936848Y-13357984D01*
X14936848Y-13357984D02*
X14917801Y-13348460D01*
X14917801Y-13348460D02*
X14908277Y-13338936D01*
X14908277Y-13338936D02*
X14898753Y-13319888D01*
X14898753Y-13319888D02*
X14889229Y-13281793D01*
X14889229Y-13281793D02*
X14889229Y-13234174D01*
X14889229Y-13234174D02*
X14898753Y-13196079D01*
X14898753Y-13196079D02*
X14908277Y-13177031D01*
X14908277Y-13177031D02*
X14917801Y-13167508D01*
X14917801Y-13167508D02*
X14936848Y-13157984D01*
X15079706Y-13177031D02*
X15089229Y-13167508D01*
X15089229Y-13167508D02*
X15108277Y-13157984D01*
X15108277Y-13157984D02*
X15155896Y-13157984D01*
X15155896Y-13157984D02*
X15174944Y-13167508D01*
X15174944Y-13167508D02*
X15184467Y-13177031D01*
X15184467Y-13177031D02*
X15193991Y-13196079D01*
X15193991Y-13196079D02*
X15193991Y-13215127D01*
X15193991Y-13215127D02*
X15184467Y-13243698D01*
X15184467Y-13243698D02*
X15070182Y-13357984D01*
X15070182Y-13357984D02*
X15193991Y-13357984D01*
X15365420Y-13157984D02*
X15327325Y-13157984D01*
X15327325Y-13157984D02*
X15308277Y-13167508D01*
X15308277Y-13167508D02*
X15298753Y-13177031D01*
X15298753Y-13177031D02*
X15279706Y-13205603D01*
X15279706Y-13205603D02*
X15270182Y-13243698D01*
X15270182Y-13243698D02*
X15270182Y-13319888D01*
X15270182Y-13319888D02*
X15279706Y-13338936D01*
X15279706Y-13338936D02*
X15289229Y-13348460D01*
X15289229Y-13348460D02*
X15308277Y-13357984D01*
X15308277Y-13357984D02*
X15346372Y-13357984D01*
X15346372Y-13357984D02*
X15365420Y-13348460D01*
X15365420Y-13348460D02*
X15374944Y-13338936D01*
X15374944Y-13338936D02*
X15384467Y-13319888D01*
X15384467Y-13319888D02*
X15384467Y-13272269D01*
X15384467Y-13272269D02*
X15374944Y-13253222D01*
X15374944Y-13253222D02*
X15365420Y-13243698D01*
X15365420Y-13243698D02*
X15346372Y-13234174D01*
X15346372Y-13234174D02*
X15308277Y-13234174D01*
X15308277Y-13234174D02*
X15289229Y-13243698D01*
X15289229Y-13243698D02*
X15279706Y-13253222D01*
X15279706Y-13253222D02*
X15270182Y-13272269D01*
X15508277Y-13157984D02*
X15527325Y-13157984D01*
X15527325Y-13157984D02*
X15546372Y-13167508D01*
X15546372Y-13167508D02*
X15555896Y-13177031D01*
X15555896Y-13177031D02*
X15565420Y-13196079D01*
X15565420Y-13196079D02*
X15574944Y-13234174D01*
X15574944Y-13234174D02*
X15574944Y-13281793D01*
X15574944Y-13281793D02*
X15565420Y-13319888D01*
X15565420Y-13319888D02*
X15555896Y-13338936D01*
X15555896Y-13338936D02*
X15546372Y-13348460D01*
X15546372Y-13348460D02*
X15527325Y-13357984D01*
X15527325Y-13357984D02*
X15508277Y-13357984D01*
X15508277Y-13357984D02*
X15489229Y-13348460D01*
X15489229Y-13348460D02*
X15479706Y-13338936D01*
X15479706Y-13338936D02*
X15470182Y-13319888D01*
X15470182Y-13319888D02*
X15460658Y-13281793D01*
X15460658Y-13281793D02*
X15460658Y-13234174D01*
X15460658Y-13234174D02*
X15470182Y-13196079D01*
X15470182Y-13196079D02*
X15479706Y-13177031D01*
X15479706Y-13177031D02*
X15489229Y-13167508D01*
X15489229Y-13167508D02*
X15508277Y-13157984D01*
X15651134Y-13157984D02*
X15651134Y-13196079D01*
X15727325Y-13157984D02*
X15727325Y-13196079D01*
X16022563Y-13434174D02*
X16013039Y-13424650D01*
X16013039Y-13424650D02*
X15993991Y-13396079D01*
X15993991Y-13396079D02*
X15984468Y-13377031D01*
X15984468Y-13377031D02*
X15974944Y-13348460D01*
X15974944Y-13348460D02*
X15965420Y-13300841D01*
X15965420Y-13300841D02*
X15965420Y-13262746D01*
X15965420Y-13262746D02*
X15974944Y-13215127D01*
X15974944Y-13215127D02*
X15984468Y-13186555D01*
X15984468Y-13186555D02*
X15993991Y-13167508D01*
X15993991Y-13167508D02*
X16013039Y-13138936D01*
X16013039Y-13138936D02*
X16022563Y-13129412D01*
X16203515Y-13357984D02*
X16089229Y-13357984D01*
X16146372Y-13357984D02*
X16146372Y-13157984D01*
X16146372Y-13157984D02*
X16127325Y-13186555D01*
X16127325Y-13186555D02*
X16108277Y-13205603D01*
X16108277Y-13205603D02*
X16089229Y-13215127D01*
X16441610Y-13357984D02*
X16441610Y-13157984D01*
X16527325Y-13357984D02*
X16527325Y-13253222D01*
X16527325Y-13253222D02*
X16517801Y-13234174D01*
X16517801Y-13234174D02*
X16498753Y-13224650D01*
X16498753Y-13224650D02*
X16470182Y-13224650D01*
X16470182Y-13224650D02*
X16451134Y-13234174D01*
X16451134Y-13234174D02*
X16441610Y-13243698D01*
X16651134Y-13357984D02*
X16632087Y-13348460D01*
X16632087Y-13348460D02*
X16622563Y-13338936D01*
X16622563Y-13338936D02*
X16613039Y-13319888D01*
X16613039Y-13319888D02*
X16613039Y-13262746D01*
X16613039Y-13262746D02*
X16622563Y-13243698D01*
X16622563Y-13243698D02*
X16632087Y-13234174D01*
X16632087Y-13234174D02*
X16651134Y-13224650D01*
X16651134Y-13224650D02*
X16679706Y-13224650D01*
X16679706Y-13224650D02*
X16698753Y-13234174D01*
X16698753Y-13234174D02*
X16708277Y-13243698D01*
X16708277Y-13243698D02*
X16717801Y-13262746D01*
X16717801Y-13262746D02*
X16717801Y-13319888D01*
X16717801Y-13319888D02*
X16708277Y-13338936D01*
X16708277Y-13338936D02*
X16698753Y-13348460D01*
X16698753Y-13348460D02*
X16679706Y-13357984D01*
X16679706Y-13357984D02*
X16651134Y-13357984D01*
X16832087Y-13357984D02*
X16813039Y-13348460D01*
X16813039Y-13348460D02*
X16803515Y-13329412D01*
X16803515Y-13329412D02*
X16803515Y-13157984D01*
X16984468Y-13348460D02*
X16965420Y-13357984D01*
X16965420Y-13357984D02*
X16927325Y-13357984D01*
X16927325Y-13357984D02*
X16908277Y-13348460D01*
X16908277Y-13348460D02*
X16898753Y-13329412D01*
X16898753Y-13329412D02*
X16898753Y-13253222D01*
X16898753Y-13253222D02*
X16908277Y-13234174D01*
X16908277Y-13234174D02*
X16927325Y-13224650D01*
X16927325Y-13224650D02*
X16965420Y-13224650D01*
X16965420Y-13224650D02*
X16984468Y-13234174D01*
X16984468Y-13234174D02*
X16993992Y-13253222D01*
X16993992Y-13253222D02*
X16993992Y-13272269D01*
X16993992Y-13272269D02*
X16898753Y-13291317D01*
X17060658Y-13434174D02*
X17070182Y-13424650D01*
X17070182Y-13424650D02*
X17089230Y-13396079D01*
X17089230Y-13396079D02*
X17098753Y-13377031D01*
X17098753Y-13377031D02*
X17108277Y-13348460D01*
X17108277Y-13348460D02*
X17117801Y-13300841D01*
X17117801Y-13300841D02*
X17117801Y-13262746D01*
X17117801Y-13262746D02*
X17108277Y-13215127D01*
X17108277Y-13215127D02*
X17098753Y-13186555D01*
X17098753Y-13186555D02*
X17089230Y-13167508D01*
X17089230Y-13167508D02*
X17070182Y-13138936D01*
X17070182Y-13138936D02*
X17060658Y-13129412D01*
X17422563Y-13434174D02*
X17413039Y-13424650D01*
X17413039Y-13424650D02*
X17393992Y-13396079D01*
X17393992Y-13396079D02*
X17384468Y-13377031D01*
X17384468Y-13377031D02*
X17374944Y-13348460D01*
X17374944Y-13348460D02*
X17365420Y-13300841D01*
X17365420Y-13300841D02*
X17365420Y-13262746D01*
X17365420Y-13262746D02*
X17374944Y-13215127D01*
X17374944Y-13215127D02*
X17384468Y-13186555D01*
X17384468Y-13186555D02*
X17393992Y-13167508D01*
X17393992Y-13167508D02*
X17413039Y-13138936D01*
X17413039Y-13138936D02*
X17422563Y-13129412D01*
X17498753Y-13224650D02*
X17498753Y-13357984D01*
X17498753Y-13243698D02*
X17508277Y-13234174D01*
X17508277Y-13234174D02*
X17527325Y-13224650D01*
X17527325Y-13224650D02*
X17555896Y-13224650D01*
X17555896Y-13224650D02*
X17574944Y-13234174D01*
X17574944Y-13234174D02*
X17584468Y-13253222D01*
X17584468Y-13253222D02*
X17584468Y-13357984D01*
X17708277Y-13357984D02*
X17689230Y-13348460D01*
X17689230Y-13348460D02*
X17679706Y-13338936D01*
X17679706Y-13338936D02*
X17670182Y-13319888D01*
X17670182Y-13319888D02*
X17670182Y-13262746D01*
X17670182Y-13262746D02*
X17679706Y-13243698D01*
X17679706Y-13243698D02*
X17689230Y-13234174D01*
X17689230Y-13234174D02*
X17708277Y-13224650D01*
X17708277Y-13224650D02*
X17736849Y-13224650D01*
X17736849Y-13224650D02*
X17755896Y-13234174D01*
X17755896Y-13234174D02*
X17765420Y-13243698D01*
X17765420Y-13243698D02*
X17774944Y-13262746D01*
X17774944Y-13262746D02*
X17774944Y-13319888D01*
X17774944Y-13319888D02*
X17765420Y-13338936D01*
X17765420Y-13338936D02*
X17755896Y-13348460D01*
X17755896Y-13348460D02*
X17736849Y-13357984D01*
X17736849Y-13357984D02*
X17708277Y-13357984D01*
X17832087Y-13224650D02*
X17908277Y-13224650D01*
X17860658Y-13157984D02*
X17860658Y-13329412D01*
X17860658Y-13329412D02*
X17870182Y-13348460D01*
X17870182Y-13348460D02*
X17889230Y-13357984D01*
X17889230Y-13357984D02*
X17908277Y-13357984D01*
X18127325Y-13224650D02*
X18127325Y-13424650D01*
X18127325Y-13234174D02*
X18146373Y-13224650D01*
X18146373Y-13224650D02*
X18184468Y-13224650D01*
X18184468Y-13224650D02*
X18203515Y-13234174D01*
X18203515Y-13234174D02*
X18213039Y-13243698D01*
X18213039Y-13243698D02*
X18222563Y-13262746D01*
X18222563Y-13262746D02*
X18222563Y-13319888D01*
X18222563Y-13319888D02*
X18213039Y-13338936D01*
X18213039Y-13338936D02*
X18203515Y-13348460D01*
X18203515Y-13348460D02*
X18184468Y-13357984D01*
X18184468Y-13357984D02*
X18146373Y-13357984D01*
X18146373Y-13357984D02*
X18127325Y-13348460D01*
X18336849Y-13357984D02*
X18317801Y-13348460D01*
X18317801Y-13348460D02*
X18308277Y-13329412D01*
X18308277Y-13329412D02*
X18308277Y-13157984D01*
X18498754Y-13357984D02*
X18498754Y-13253222D01*
X18498754Y-13253222D02*
X18489230Y-13234174D01*
X18489230Y-13234174D02*
X18470182Y-13224650D01*
X18470182Y-13224650D02*
X18432087Y-13224650D01*
X18432087Y-13224650D02*
X18413039Y-13234174D01*
X18498754Y-13348460D02*
X18479706Y-13357984D01*
X18479706Y-13357984D02*
X18432087Y-13357984D01*
X18432087Y-13357984D02*
X18413039Y-13348460D01*
X18413039Y-13348460D02*
X18403515Y-13329412D01*
X18403515Y-13329412D02*
X18403515Y-13310365D01*
X18403515Y-13310365D02*
X18413039Y-13291317D01*
X18413039Y-13291317D02*
X18432087Y-13281793D01*
X18432087Y-13281793D02*
X18479706Y-13281793D01*
X18479706Y-13281793D02*
X18498754Y-13272269D01*
X18565420Y-13224650D02*
X18641611Y-13224650D01*
X18593992Y-13157984D02*
X18593992Y-13329412D01*
X18593992Y-13329412D02*
X18603515Y-13348460D01*
X18603515Y-13348460D02*
X18622563Y-13357984D01*
X18622563Y-13357984D02*
X18641611Y-13357984D01*
X18784468Y-13348460D02*
X18765420Y-13357984D01*
X18765420Y-13357984D02*
X18727325Y-13357984D01*
X18727325Y-13357984D02*
X18708277Y-13348460D01*
X18708277Y-13348460D02*
X18698754Y-13329412D01*
X18698754Y-13329412D02*
X18698754Y-13253222D01*
X18698754Y-13253222D02*
X18708277Y-13234174D01*
X18708277Y-13234174D02*
X18727325Y-13224650D01*
X18727325Y-13224650D02*
X18765420Y-13224650D01*
X18765420Y-13224650D02*
X18784468Y-13234174D01*
X18784468Y-13234174D02*
X18793992Y-13253222D01*
X18793992Y-13253222D02*
X18793992Y-13272269D01*
X18793992Y-13272269D02*
X18698754Y-13291317D01*
X18965420Y-13357984D02*
X18965420Y-13157984D01*
X18965420Y-13348460D02*
X18946373Y-13357984D01*
X18946373Y-13357984D02*
X18908277Y-13357984D01*
X18908277Y-13357984D02*
X18889230Y-13348460D01*
X18889230Y-13348460D02*
X18879706Y-13338936D01*
X18879706Y-13338936D02*
X18870182Y-13319888D01*
X18870182Y-13319888D02*
X18870182Y-13262746D01*
X18870182Y-13262746D02*
X18879706Y-13243698D01*
X18879706Y-13243698D02*
X18889230Y-13234174D01*
X18889230Y-13234174D02*
X18908277Y-13224650D01*
X18908277Y-13224650D02*
X18946373Y-13224650D01*
X18946373Y-13224650D02*
X18965420Y-13234174D01*
X19041611Y-13434174D02*
X19051135Y-13424650D01*
X19051135Y-13424650D02*
X19070182Y-13396079D01*
X19070182Y-13396079D02*
X19079706Y-13377031D01*
X19079706Y-13377031D02*
X19089230Y-13348460D01*
X19089230Y-13348460D02*
X19098754Y-13300841D01*
X19098754Y-13300841D02*
X19098754Y-13262746D01*
X19098754Y-13262746D02*
X19089230Y-13215127D01*
X19089230Y-13215127D02*
X19079706Y-13186555D01*
X19079706Y-13186555D02*
X19070182Y-13167508D01*
X19070182Y-13167508D02*
X19051135Y-13138936D01*
X19051135Y-13138936D02*
X19041611Y-13129412D01*
M02*
