%TF.GenerationSoftware,KiCad,Pcbnew,8.0.1*%
%TF.CreationDate,2025-02-14T15:05:20+08:00*%
%TF.ProjectId,SpeakerDriver,53706561-6b65-4724-9472-697665722e6b,rev?*%
%TF.SameCoordinates,Original*%
%TF.FileFunction,Copper,L2,Bot*%
%TF.FilePolarity,Positive*%
%FSLAX46Y46*%
G04 Gerber Fmt 4.6, Leading zero omitted, Abs format (unit mm)*
G04 Created by KiCad (PCBNEW 8.0.1) date 2025-02-14 15:05:20*
%MOMM*%
%LPD*%
G01*
G04 APERTURE LIST*
G04 Aperture macros list*
%AMRoundRect*
0 Rectangle with rounded corners*
0 $1 Rounding radius*
0 $2 $3 $4 $5 $6 $7 $8 $9 X,Y pos of 4 corners*
0 Add a 4 corners polygon primitive as box body*
4,1,4,$2,$3,$4,$5,$6,$7,$8,$9,$2,$3,0*
0 Add four circle primitives for the rounded corners*
1,1,$1+$1,$2,$3*
1,1,$1+$1,$4,$5*
1,1,$1+$1,$6,$7*
1,1,$1+$1,$8,$9*
0 Add four rect primitives between the rounded corners*
20,1,$1+$1,$2,$3,$4,$5,0*
20,1,$1+$1,$4,$5,$6,$7,0*
20,1,$1+$1,$6,$7,$8,$9,0*
20,1,$1+$1,$8,$9,$2,$3,0*%
G04 Aperture macros list end*
%TA.AperFunction,ComponentPad*%
%ADD10RoundRect,0.250000X0.750000X-0.600000X0.750000X0.600000X-0.750000X0.600000X-0.750000X-0.600000X0*%
%TD*%
%TA.AperFunction,ComponentPad*%
%ADD11O,2.000000X1.700000*%
%TD*%
%TA.AperFunction,ComponentPad*%
%ADD12C,5.600000*%
%TD*%
%TA.AperFunction,ComponentPad*%
%ADD13R,1.700000X1.700000*%
%TD*%
%TA.AperFunction,ComponentPad*%
%ADD14O,1.700000X1.700000*%
%TD*%
%TA.AperFunction,ComponentPad*%
%ADD15RoundRect,0.250000X-0.600000X-0.750000X0.600000X-0.750000X0.600000X0.750000X-0.600000X0.750000X0*%
%TD*%
%TA.AperFunction,ComponentPad*%
%ADD16O,1.700000X2.000000*%
%TD*%
%TA.AperFunction,ComponentPad*%
%ADD17C,1.100000*%
%TD*%
%TA.AperFunction,ComponentPad*%
%ADD18C,2.000000*%
%TD*%
%TA.AperFunction,ViaPad*%
%ADD19C,0.600000*%
%TD*%
%TA.AperFunction,ViaPad*%
%ADD20C,0.500000*%
%TD*%
%TA.AperFunction,Conductor*%
%ADD21C,1.500000*%
%TD*%
%TA.AperFunction,Conductor*%
%ADD22C,0.200000*%
%TD*%
%TA.AperFunction,Conductor*%
%ADD23C,0.500000*%
%TD*%
G04 APERTURE END LIST*
D10*
%TO.P,J1,1,Pin_1*%
%TO.N,Net-(J1-Pin_1)*%
X172350000Y-101700000D03*
D11*
%TO.P,J1,2,Pin_2*%
%TO.N,Net-(J1-Pin_2)*%
X172350000Y-99200000D03*
%TD*%
D12*
%TO.P,H3,1,1*%
%TO.N,GND*%
X128100000Y-120100000D03*
%TD*%
D10*
%TO.P,J2,1,Pin_1*%
%TO.N,Net-(J2-Pin_1)*%
X172350000Y-110100000D03*
D11*
%TO.P,J2,2,Pin_2*%
%TO.N,Net-(J2-Pin_2)*%
X172350000Y-107600000D03*
%TD*%
D13*
%TO.P,J4,1,Pin_1*%
%TO.N,+BATT*%
X127560000Y-97000000D03*
D14*
%TO.P,J4,2,Pin_2*%
%TO.N,Net-(D2-A)*%
X130100000Y-97000000D03*
%TD*%
D15*
%TO.P,J6,1,Pin_1*%
%TO.N,+BATT*%
X127500000Y-101600000D03*
D16*
%TO.P,J6,2,Pin_2*%
%TO.N,GND*%
X130000000Y-101600000D03*
%TD*%
D14*
%TO.P,J5,5,Pin_5*%
%TO.N,/AUX_1*%
X165485000Y-120150000D03*
%TO.P,J5,4,Pin_4*%
%TO.N,/AUX_2*%
X162945000Y-120150000D03*
%TO.P,J5,3,Pin_3*%
%TO.N,/AUX_3*%
X160405000Y-120150000D03*
%TO.P,J5,2,Pin_2*%
%TO.N,/AUX_4*%
X157865000Y-120150000D03*
D13*
%TO.P,J5,1,Pin_1*%
%TO.N,GND*%
X155325000Y-120150000D03*
%TD*%
D12*
%TO.P,H1,1,1*%
%TO.N,GND*%
X128100000Y-92100000D03*
%TD*%
%TO.P,H4,1,1*%
%TO.N,GND*%
X178100000Y-120100000D03*
%TD*%
%TO.P,H2,1,1*%
%TO.N,GND*%
X178100000Y-92100000D03*
%TD*%
D17*
%TO.P,J3,S1,SHIELD*%
%TO.N,GND*%
X140200000Y-113050000D03*
X135900000Y-113050000D03*
X140200000Y-117850000D03*
X135900000Y-117850000D03*
%TD*%
D18*
%TO.P,SW1,1,1*%
%TO.N,/EN*%
X143900000Y-100900000D03*
X137400000Y-100900000D03*
%TO.P,SW1,2,2*%
%TO.N,GND*%
X143900000Y-105400000D03*
X137400000Y-105400000D03*
%TD*%
%TO.P,SW2,1,1*%
%TO.N,/BOOT0*%
X161000000Y-104200000D03*
X154500000Y-104200000D03*
%TO.P,SW2,2,2*%
%TO.N,GND*%
X161000000Y-108700000D03*
X154500000Y-108700000D03*
%TD*%
D19*
%TO.N,GND*%
X169900000Y-98300000D03*
X173500000Y-100300000D03*
X153000000Y-92400000D03*
X155000000Y-92400000D03*
X157000000Y-92400000D03*
X158000000Y-94000000D03*
X158000000Y-96000000D03*
X158000000Y-98000000D03*
X158000000Y-100000000D03*
X156000000Y-100000000D03*
X154000000Y-100000000D03*
X152000000Y-100000000D03*
X150000000Y-100000000D03*
X150000000Y-98000000D03*
X150000000Y-96000000D03*
X150000000Y-94000000D03*
X151000000Y-92400000D03*
X152000000Y-92400000D03*
X154000000Y-92400000D03*
X156000000Y-92400000D03*
X158000000Y-93000000D03*
X158000000Y-95000000D03*
X158000000Y-97000000D03*
X158000000Y-99000000D03*
X157000000Y-100000000D03*
X155000000Y-100000000D03*
X153000000Y-100000000D03*
X151000000Y-100000000D03*
X150000000Y-99000000D03*
X150000000Y-97000000D03*
X150000000Y-95000000D03*
X150000000Y-93000000D03*
X144750000Y-95850000D03*
X140000000Y-95000000D03*
X143800000Y-95850000D03*
X139000000Y-95000000D03*
X140650000Y-94550000D03*
X131000000Y-122500000D03*
X167000000Y-122500000D03*
X171000000Y-122500000D03*
X169000000Y-122500000D03*
X165000000Y-122500000D03*
X175000000Y-122500000D03*
X173000000Y-122500000D03*
X151000000Y-122500000D03*
X155000000Y-122500000D03*
X153000000Y-122500000D03*
X149000000Y-122500000D03*
X163000000Y-122500000D03*
X161000000Y-122500000D03*
X159000000Y-122500000D03*
X157000000Y-122500000D03*
X135000000Y-122500000D03*
X139000000Y-122500000D03*
X137000000Y-122500000D03*
X133000000Y-122500000D03*
X147000000Y-122500000D03*
X145000000Y-122500000D03*
X143000000Y-122500000D03*
X141000000Y-122500000D03*
X145000000Y-89500000D03*
X143000000Y-89500000D03*
X141000000Y-89500000D03*
X139000000Y-89500000D03*
X137000000Y-89500000D03*
X135000000Y-89500000D03*
X133000000Y-89500000D03*
X131000000Y-89500000D03*
X162000000Y-89500000D03*
X164000000Y-89500000D03*
X166000000Y-89500000D03*
X168000000Y-89500000D03*
X170000000Y-89500000D03*
X172000000Y-89500000D03*
X174000000Y-89500000D03*
X169000000Y-102450000D03*
X166600000Y-110050000D03*
X167000000Y-102450000D03*
X149800000Y-111850000D03*
X155600000Y-111850000D03*
X135250000Y-115400000D03*
X151800000Y-111850000D03*
X166000000Y-109450000D03*
X153800000Y-111850000D03*
X167600000Y-110050000D03*
X170600000Y-100350000D03*
X168000000Y-102450000D03*
%TO.N,+3V3*%
X145500000Y-98751084D03*
X145500000Y-92580000D03*
X143500000Y-107350000D03*
%TO.N,VCC*%
X140850000Y-91150000D03*
D20*
X167800000Y-91650000D03*
D19*
%TO.N,/DM*%
X136550000Y-115030000D03*
X139502513Y-116034763D03*
%TO.N,Net-(JP1-A)*%
X144723970Y-112326030D03*
X162599997Y-96700000D03*
%TO.N,Net-(JP2-B)*%
X163400000Y-96700000D03*
X146140000Y-112550000D03*
%TO.N,/BOOT0*%
X146304816Y-103503346D03*
%TO.N,/SLEEP*%
X166760000Y-99450000D03*
X164150000Y-99450000D03*
X164150000Y-104550000D03*
X167200000Y-104850000D03*
%TO.N,/BCLK*%
X166600000Y-101178394D03*
X165400000Y-100900000D03*
%TO.N,/WS*%
X168600000Y-101737984D03*
X164799019Y-101528039D03*
%TD*%
D21*
%TO.N,VCC*%
X167300000Y-91150000D02*
X167800000Y-91650000D01*
X140850000Y-91150000D02*
X167300000Y-91150000D01*
D22*
%TO.N,/SLEEP*%
X164150000Y-104550000D02*
X164450000Y-104850000D01*
X164450000Y-104850000D02*
X167200000Y-104850000D01*
X164150000Y-99450000D02*
X166760000Y-99450000D01*
%TO.N,/BCLK*%
X166600000Y-101178394D02*
X165678394Y-101178394D01*
X165678394Y-101178394D02*
X165400000Y-100900000D01*
%TO.N,/WS*%
X168559590Y-101778394D02*
X168600000Y-101737984D01*
X164799019Y-101528039D02*
X165049374Y-101778394D01*
X165049374Y-101778394D02*
X168559590Y-101778394D01*
%TO.N,Net-(JP1-A)*%
X162599997Y-110250003D02*
X161600000Y-111250000D01*
X162599997Y-96700000D02*
X162599997Y-110250003D01*
X161600000Y-111250000D02*
X145800000Y-111250000D01*
X145800000Y-111250000D02*
X144723970Y-112326030D01*
%TO.N,Net-(JP2-B)*%
X163400000Y-96700000D02*
X163400000Y-110950000D01*
X146240000Y-112450000D02*
X146140000Y-112550000D01*
X163400000Y-110950000D02*
X161900000Y-112450000D01*
X161900000Y-112450000D02*
X146240000Y-112450000D01*
D23*
%TO.N,+3V3*%
X145500000Y-106050000D02*
X145500000Y-98751084D01*
X145500000Y-92580000D02*
X145500000Y-98751084D01*
X144200000Y-107350000D02*
X145500000Y-106050000D01*
X143500000Y-107350000D02*
X144200000Y-107350000D01*
D22*
%TO.N,/EN*%
X137400000Y-100350000D02*
X143900000Y-100350000D01*
%TO.N,/DM*%
X137610000Y-115030000D02*
X138614763Y-116034763D01*
X136550000Y-115030000D02*
X137610000Y-115030000D01*
X138614763Y-116034763D02*
X139502513Y-116034763D01*
%TO.N,/BOOT0*%
X154500000Y-104200000D02*
X161000000Y-104200000D01*
X147001470Y-104200000D02*
X154500000Y-104200000D01*
X146304816Y-103503346D02*
X147001470Y-104200000D01*
%TD*%
%TA.AperFunction,Conductor*%
%TO.N,GND*%
G36*
X147478326Y-88922174D02*
G01*
X147482676Y-88932676D01*
X147500000Y-88950000D01*
X160700000Y-88950000D01*
X160717323Y-88932676D01*
X160721674Y-88922174D01*
X160774000Y-88900500D01*
X178042417Y-88900500D01*
X178098054Y-88900500D01*
X178101927Y-88900601D01*
X178430572Y-88917824D01*
X178438270Y-88918633D01*
X178761384Y-88969810D01*
X178768946Y-88971417D01*
X179084969Y-89056095D01*
X179092316Y-89058483D01*
X179397746Y-89175726D01*
X179404805Y-89178869D01*
X179580122Y-89268198D01*
X179696288Y-89327388D01*
X179702996Y-89331260D01*
X179977364Y-89509436D01*
X179983631Y-89513989D01*
X180237870Y-89719868D01*
X180243626Y-89725051D01*
X180474948Y-89956373D01*
X180480131Y-89962129D01*
X180686010Y-90216368D01*
X180690563Y-90222635D01*
X180868739Y-90497003D01*
X180872611Y-90503711D01*
X181021126Y-90795186D01*
X181024277Y-90802262D01*
X181141513Y-91107674D01*
X181143907Y-91115040D01*
X181228580Y-91431045D01*
X181230190Y-91438622D01*
X181281365Y-91761727D01*
X181282175Y-91769430D01*
X181299399Y-92098072D01*
X181299500Y-92101945D01*
X181299500Y-119998054D01*
X181299399Y-120001927D01*
X181282175Y-120330569D01*
X181281365Y-120338272D01*
X181230190Y-120661377D01*
X181228580Y-120668954D01*
X181143907Y-120984959D01*
X181141513Y-120992325D01*
X181024277Y-121297737D01*
X181021126Y-121304813D01*
X180872611Y-121596288D01*
X180868739Y-121602996D01*
X180690563Y-121877364D01*
X180686010Y-121883631D01*
X180480131Y-122137870D01*
X180474948Y-122143626D01*
X180243626Y-122374948D01*
X180237870Y-122380131D01*
X179983631Y-122586010D01*
X179977364Y-122590563D01*
X179702996Y-122768739D01*
X179696288Y-122772611D01*
X179404813Y-122921126D01*
X179397737Y-122924277D01*
X179092325Y-123041513D01*
X179084959Y-123043907D01*
X178768954Y-123128580D01*
X178761377Y-123130190D01*
X178438272Y-123181365D01*
X178430569Y-123182175D01*
X178101927Y-123199399D01*
X178098054Y-123199500D01*
X128101946Y-123199500D01*
X128098073Y-123199399D01*
X127769430Y-123182175D01*
X127761727Y-123181365D01*
X127438622Y-123130190D01*
X127431045Y-123128580D01*
X127115040Y-123043907D01*
X127107674Y-123041513D01*
X126802262Y-122924277D01*
X126795186Y-122921126D01*
X126503711Y-122772611D01*
X126497003Y-122768739D01*
X126222635Y-122590563D01*
X126216368Y-122586010D01*
X125962129Y-122380131D01*
X125956373Y-122374948D01*
X125725051Y-122143626D01*
X125719868Y-122137870D01*
X125513989Y-121883631D01*
X125509436Y-121877364D01*
X125331260Y-121602996D01*
X125327388Y-121596288D01*
X125178869Y-121304805D01*
X125175726Y-121297746D01*
X125079792Y-121047828D01*
X153975000Y-121047828D01*
X153981402Y-121107375D01*
X153981403Y-121107380D01*
X154031645Y-121242087D01*
X154031646Y-121242088D01*
X154117811Y-121357188D01*
X154232911Y-121443353D01*
X154232912Y-121443354D01*
X154367619Y-121493596D01*
X154367624Y-121493597D01*
X154427171Y-121500000D01*
X155075000Y-121500000D01*
X155075000Y-120583012D01*
X155132007Y-120615925D01*
X155259174Y-120650000D01*
X155390826Y-120650000D01*
X155517993Y-120615925D01*
X155575000Y-120583012D01*
X155575000Y-121500000D01*
X156222829Y-121500000D01*
X156282375Y-121493597D01*
X156282380Y-121493596D01*
X156417087Y-121443354D01*
X156417088Y-121443353D01*
X156532188Y-121357188D01*
X156618353Y-121242088D01*
X156618354Y-121242087D01*
X156668596Y-121107380D01*
X156668597Y-121107375D01*
X156675000Y-121047828D01*
X156675000Y-120291541D01*
X156696674Y-120239215D01*
X156749000Y-120217541D01*
X156801326Y-120239215D01*
X156822643Y-120284286D01*
X156829700Y-120355934D01*
X156889768Y-120553954D01*
X156987315Y-120736450D01*
X157118590Y-120896410D01*
X157278550Y-121027685D01*
X157461046Y-121125232D01*
X157659066Y-121185300D01*
X157865000Y-121205583D01*
X158070934Y-121185300D01*
X158268954Y-121125232D01*
X158451450Y-121027685D01*
X158611410Y-120896410D01*
X158742685Y-120736450D01*
X158840232Y-120553954D01*
X158900300Y-120355934D01*
X158920583Y-120150000D01*
X159349417Y-120150000D01*
X159369700Y-120355934D01*
X159429768Y-120553954D01*
X159527315Y-120736450D01*
X159658590Y-120896410D01*
X159818550Y-121027685D01*
X160001046Y-121125232D01*
X160199066Y-121185300D01*
X160405000Y-121205583D01*
X160610934Y-121185300D01*
X160808954Y-121125232D01*
X160991450Y-121027685D01*
X161151410Y-120896410D01*
X161282685Y-120736450D01*
X161380232Y-120553954D01*
X161440300Y-120355934D01*
X161460583Y-120150000D01*
X161889417Y-120150000D01*
X161909700Y-120355934D01*
X161969768Y-120553954D01*
X162067315Y-120736450D01*
X162198590Y-120896410D01*
X162358550Y-121027685D01*
X162541046Y-121125232D01*
X162739066Y-121185300D01*
X162945000Y-121205583D01*
X163150934Y-121185300D01*
X163348954Y-121125232D01*
X163531450Y-121027685D01*
X163691410Y-120896410D01*
X163822685Y-120736450D01*
X163920232Y-120553954D01*
X163980300Y-120355934D01*
X164000583Y-120150000D01*
X164429417Y-120150000D01*
X164449700Y-120355934D01*
X164509768Y-120553954D01*
X164607315Y-120736450D01*
X164738590Y-120896410D01*
X164898550Y-121027685D01*
X165081046Y-121125232D01*
X165279066Y-121185300D01*
X165485000Y-121205583D01*
X165690934Y-121185300D01*
X165888954Y-121125232D01*
X166071450Y-121027685D01*
X166231410Y-120896410D01*
X166362685Y-120736450D01*
X166460232Y-120553954D01*
X166520300Y-120355934D01*
X166540583Y-120150000D01*
X166520300Y-119944066D01*
X166460232Y-119746046D01*
X166362685Y-119563550D01*
X166231410Y-119403590D01*
X166071450Y-119272315D01*
X165888954Y-119174768D01*
X165777158Y-119140855D01*
X165690935Y-119114700D01*
X165485000Y-119094417D01*
X165279064Y-119114700D01*
X165081043Y-119174769D01*
X164898549Y-119272315D01*
X164738590Y-119403589D01*
X164738589Y-119403590D01*
X164607315Y-119563549D01*
X164509769Y-119746043D01*
X164449700Y-119944064D01*
X164444191Y-120000000D01*
X164429417Y-120150000D01*
X164000583Y-120150000D01*
X163980300Y-119944066D01*
X163920232Y-119746046D01*
X163822685Y-119563550D01*
X163691410Y-119403590D01*
X163531450Y-119272315D01*
X163348954Y-119174768D01*
X163237158Y-119140855D01*
X163150935Y-119114700D01*
X162945000Y-119094417D01*
X162739064Y-119114700D01*
X162541043Y-119174769D01*
X162358549Y-119272315D01*
X162198590Y-119403589D01*
X162198589Y-119403590D01*
X162067315Y-119563549D01*
X161969769Y-119746043D01*
X161909700Y-119944064D01*
X161904191Y-120000000D01*
X161889417Y-120150000D01*
X161460583Y-120150000D01*
X161440300Y-119944066D01*
X161380232Y-119746046D01*
X161282685Y-119563550D01*
X161151410Y-119403590D01*
X160991450Y-119272315D01*
X160808954Y-119174768D01*
X160697158Y-119140855D01*
X160610935Y-119114700D01*
X160405000Y-119094417D01*
X160199064Y-119114700D01*
X160001043Y-119174769D01*
X159818549Y-119272315D01*
X159658590Y-119403589D01*
X159658589Y-119403590D01*
X159527315Y-119563549D01*
X159429769Y-119746043D01*
X159369700Y-119944064D01*
X159364191Y-120000000D01*
X159349417Y-120150000D01*
X158920583Y-120150000D01*
X158900300Y-119944066D01*
X158840232Y-119746046D01*
X158742685Y-119563550D01*
X158611410Y-119403590D01*
X158451450Y-119272315D01*
X158268954Y-119174768D01*
X158157158Y-119140855D01*
X158070935Y-119114700D01*
X157865000Y-119094417D01*
X157659064Y-119114700D01*
X157461043Y-119174769D01*
X157278549Y-119272315D01*
X157118590Y-119403589D01*
X157118589Y-119403590D01*
X156987315Y-119563549D01*
X156889769Y-119746043D01*
X156829700Y-119944064D01*
X156829700Y-119944066D01*
X156822643Y-120015713D01*
X156795945Y-120065661D01*
X156741746Y-120082102D01*
X156691797Y-120055403D01*
X156675000Y-120008458D01*
X156675000Y-119252171D01*
X156668597Y-119192624D01*
X156668596Y-119192619D01*
X156618354Y-119057912D01*
X156618353Y-119057911D01*
X156532188Y-118942811D01*
X156417088Y-118856646D01*
X156417087Y-118856645D01*
X156282380Y-118806403D01*
X156282375Y-118806402D01*
X156222829Y-118800000D01*
X155575000Y-118800000D01*
X155575000Y-119716988D01*
X155517993Y-119684075D01*
X155390826Y-119650000D01*
X155259174Y-119650000D01*
X155132007Y-119684075D01*
X155075000Y-119716988D01*
X155075000Y-118800000D01*
X154427171Y-118800000D01*
X154367624Y-118806402D01*
X154367619Y-118806403D01*
X154232912Y-118856645D01*
X154232911Y-118856646D01*
X154117811Y-118942811D01*
X154031646Y-119057911D01*
X154031645Y-119057912D01*
X153981403Y-119192619D01*
X153981402Y-119192624D01*
X153975000Y-119252171D01*
X153975000Y-119900000D01*
X154891988Y-119900000D01*
X154859075Y-119957007D01*
X154825000Y-120084174D01*
X154825000Y-120215826D01*
X154859075Y-120342993D01*
X154891988Y-120400000D01*
X153975000Y-120400000D01*
X153975000Y-121047828D01*
X125079792Y-121047828D01*
X125058483Y-120992316D01*
X125056095Y-120984969D01*
X124971417Y-120668946D01*
X124969809Y-120661377D01*
X124952184Y-120550099D01*
X124918633Y-120338270D01*
X124917824Y-120330569D01*
X124913036Y-120239215D01*
X124900601Y-120001927D01*
X124900500Y-119998054D01*
X124900500Y-119481160D01*
X137509500Y-119481160D01*
X137546332Y-119618620D01*
X137546334Y-119618625D01*
X137617492Y-119741875D01*
X137718125Y-119842508D01*
X137841375Y-119913666D01*
X137978839Y-119950499D01*
X137978840Y-119950500D01*
X137978842Y-119950500D01*
X138121160Y-119950500D01*
X138121160Y-119950499D01*
X138258625Y-119913666D01*
X138381875Y-119842508D01*
X138482508Y-119741875D01*
X138553666Y-119618625D01*
X138590499Y-119481160D01*
X138590500Y-119481160D01*
X138590500Y-118918840D01*
X138590499Y-118918839D01*
X138558656Y-118800000D01*
X138553666Y-118781375D01*
X138482508Y-118658125D01*
X138381875Y-118557492D01*
X138258625Y-118486334D01*
X138258620Y-118486332D01*
X138121160Y-118449500D01*
X138121158Y-118449500D01*
X137978842Y-118449500D01*
X137978840Y-118449500D01*
X137841379Y-118486332D01*
X137841374Y-118486334D01*
X137718124Y-118557492D01*
X137617492Y-118658124D01*
X137546334Y-118781374D01*
X137546332Y-118781379D01*
X137509500Y-118918839D01*
X137509500Y-119481160D01*
X124900500Y-119481160D01*
X124900500Y-115030000D01*
X136044353Y-115030000D01*
X136064834Y-115172454D01*
X136124623Y-115303373D01*
X136218868Y-115412139D01*
X136218869Y-115412140D01*
X136218872Y-115412143D01*
X136339947Y-115489953D01*
X136446403Y-115521211D01*
X136478035Y-115530499D01*
X136478037Y-115530500D01*
X136478039Y-115530500D01*
X136621963Y-115530500D01*
X136621964Y-115530499D01*
X136760053Y-115489953D01*
X136881128Y-115412143D01*
X136929741Y-115356041D01*
X136980388Y-115330689D01*
X136985667Y-115330500D01*
X137454877Y-115330500D01*
X137507203Y-115352174D01*
X138374303Y-116219274D01*
X138430252Y-116275223D01*
X138498774Y-116314784D01*
X138498775Y-116314784D01*
X138498777Y-116314785D01*
X138536987Y-116325023D01*
X138575198Y-116335262D01*
X138575199Y-116335263D01*
X138575201Y-116335263D01*
X139066846Y-116335263D01*
X139119172Y-116356937D01*
X139122772Y-116360804D01*
X139171381Y-116416902D01*
X139171384Y-116416905D01*
X139171385Y-116416906D01*
X139292460Y-116494716D01*
X139398916Y-116525974D01*
X139430548Y-116535262D01*
X139430550Y-116535263D01*
X139430552Y-116535263D01*
X139574476Y-116535263D01*
X139574477Y-116535262D01*
X139712566Y-116494716D01*
X139833641Y-116416906D01*
X139927890Y-116308136D01*
X139987678Y-116177220D01*
X140008160Y-116034763D01*
X139987678Y-115892306D01*
X139927890Y-115761390D01*
X139833641Y-115652620D01*
X139776695Y-115616023D01*
X139712567Y-115574810D01*
X139712563Y-115574809D01*
X139574477Y-115534263D01*
X139574474Y-115534263D01*
X139430552Y-115534263D01*
X139430549Y-115534263D01*
X139292462Y-115574809D01*
X139292458Y-115574810D01*
X139171384Y-115652620D01*
X139171381Y-115652623D01*
X139122772Y-115708722D01*
X139072125Y-115734074D01*
X139066846Y-115734263D01*
X138769886Y-115734263D01*
X138717560Y-115712589D01*
X137794511Y-114789540D01*
X137725990Y-114749979D01*
X137725985Y-114749977D01*
X137649564Y-114729500D01*
X137649562Y-114729500D01*
X136985667Y-114729500D01*
X136933341Y-114707826D01*
X136929741Y-114703959D01*
X136881131Y-114647860D01*
X136881128Y-114647857D01*
X136760054Y-114570047D01*
X136760050Y-114570046D01*
X136621964Y-114529500D01*
X136621961Y-114529500D01*
X136478039Y-114529500D01*
X136478036Y-114529500D01*
X136339949Y-114570046D01*
X136339945Y-114570047D01*
X136218875Y-114647855D01*
X136218868Y-114647860D01*
X136124623Y-114756626D01*
X136064834Y-114887545D01*
X136044353Y-115030000D01*
X124900500Y-115030000D01*
X124900500Y-111776426D01*
X137469500Y-111776426D01*
X137509058Y-111924060D01*
X137509059Y-111924063D01*
X137509060Y-111924065D01*
X137585484Y-112056435D01*
X137693565Y-112164516D01*
X137825935Y-112240940D01*
X137973573Y-112280499D01*
X137973574Y-112280500D01*
X137973576Y-112280500D01*
X138126426Y-112280500D01*
X138126426Y-112280499D01*
X138274065Y-112240940D01*
X138406435Y-112164516D01*
X138514516Y-112056435D01*
X138590940Y-111924065D01*
X138630499Y-111776426D01*
X138630500Y-111776426D01*
X138630500Y-111623574D01*
X138630499Y-111623573D01*
X138590941Y-111475939D01*
X138590940Y-111475935D01*
X138514516Y-111343565D01*
X138406435Y-111235484D01*
X138274069Y-111159062D01*
X138274060Y-111159058D01*
X138126426Y-111119500D01*
X138126424Y-111119500D01*
X137973576Y-111119500D01*
X137973574Y-111119500D01*
X137825939Y-111159058D01*
X137825930Y-111159062D01*
X137693564Y-111235484D01*
X137585484Y-111343564D01*
X137509062Y-111475930D01*
X137509058Y-111475939D01*
X137469500Y-111623573D01*
X137469500Y-111776426D01*
X124900500Y-111776426D01*
X124900500Y-108700003D01*
X152994859Y-108700003D01*
X153015385Y-108947731D01*
X153076414Y-109188726D01*
X153176266Y-109416366D01*
X153276563Y-109569882D01*
X153976212Y-108870232D01*
X153987482Y-108912292D01*
X154059890Y-109037708D01*
X154162292Y-109140110D01*
X154287708Y-109212518D01*
X154329765Y-109223787D01*
X153629941Y-109923610D01*
X153676763Y-109960052D01*
X153895390Y-110078367D01*
X154130513Y-110159084D01*
X154375703Y-110199999D01*
X154375706Y-110200000D01*
X154624294Y-110200000D01*
X154624296Y-110199999D01*
X154869486Y-110159084D01*
X155104609Y-110078367D01*
X155323236Y-109960052D01*
X155370056Y-109923610D01*
X155370057Y-109923610D01*
X154670234Y-109223787D01*
X154712292Y-109212518D01*
X154837708Y-109140110D01*
X154940110Y-109037708D01*
X155012518Y-108912292D01*
X155023787Y-108870234D01*
X155723435Y-109569882D01*
X155823733Y-109416366D01*
X155923585Y-109188726D01*
X155984614Y-108947731D01*
X156005141Y-108700003D01*
X156005141Y-108699996D01*
X155984614Y-108452268D01*
X155923585Y-108211273D01*
X155823733Y-107983633D01*
X155723435Y-107830116D01*
X155023787Y-108529764D01*
X155012518Y-108487708D01*
X154940110Y-108362292D01*
X154837708Y-108259890D01*
X154712292Y-108187482D01*
X154670232Y-108176212D01*
X155370056Y-107476389D01*
X155370056Y-107476388D01*
X155323237Y-107439947D01*
X155104609Y-107321632D01*
X154869486Y-107240915D01*
X154624296Y-107200000D01*
X154375703Y-107200000D01*
X154130513Y-107240915D01*
X153895390Y-107321632D01*
X153676774Y-107439941D01*
X153676757Y-107439952D01*
X153629942Y-107476388D01*
X153629942Y-107476389D01*
X154329765Y-108176212D01*
X154287708Y-108187482D01*
X154162292Y-108259890D01*
X154059890Y-108362292D01*
X153987482Y-108487708D01*
X153976212Y-108529765D01*
X153276563Y-107830116D01*
X153176266Y-107983633D01*
X153076414Y-108211273D01*
X153015385Y-108452268D01*
X152994859Y-108699996D01*
X152994859Y-108700003D01*
X124900500Y-108700003D01*
X124900500Y-105400003D01*
X135894859Y-105400003D01*
X135915385Y-105647731D01*
X135976414Y-105888726D01*
X136076266Y-106116366D01*
X136176563Y-106269882D01*
X136876212Y-105570232D01*
X136887482Y-105612292D01*
X136959890Y-105737708D01*
X137062292Y-105840110D01*
X137187708Y-105912518D01*
X137229765Y-105923787D01*
X136529941Y-106623610D01*
X136576763Y-106660052D01*
X136795390Y-106778367D01*
X137030513Y-106859084D01*
X137275703Y-106899999D01*
X137275706Y-106900000D01*
X137524294Y-106900000D01*
X137524296Y-106899999D01*
X137769486Y-106859084D01*
X138004609Y-106778367D01*
X138223236Y-106660052D01*
X138270056Y-106623610D01*
X138270057Y-106623610D01*
X137570234Y-105923787D01*
X137612292Y-105912518D01*
X137737708Y-105840110D01*
X137840110Y-105737708D01*
X137912518Y-105612292D01*
X137923787Y-105570234D01*
X138623435Y-106269882D01*
X138723733Y-106116366D01*
X138823585Y-105888726D01*
X138884614Y-105647731D01*
X138905141Y-105400003D01*
X138905141Y-105399996D01*
X138884614Y-105152268D01*
X138823585Y-104911273D01*
X138723733Y-104683633D01*
X138623435Y-104530116D01*
X137923787Y-105229764D01*
X137912518Y-105187708D01*
X137840110Y-105062292D01*
X137737708Y-104959890D01*
X137612292Y-104887482D01*
X137570232Y-104876212D01*
X138270056Y-104176389D01*
X138270056Y-104176388D01*
X138223237Y-104139947D01*
X138004609Y-104021632D01*
X137769486Y-103940915D01*
X137524296Y-103900000D01*
X137275703Y-103900000D01*
X137030513Y-103940915D01*
X136795390Y-104021632D01*
X136576774Y-104139941D01*
X136576757Y-104139952D01*
X136529942Y-104176388D01*
X136529942Y-104176389D01*
X137229765Y-104876212D01*
X137187708Y-104887482D01*
X137062292Y-104959890D01*
X136959890Y-105062292D01*
X136887482Y-105187708D01*
X136876212Y-105229765D01*
X136176563Y-104530116D01*
X136076266Y-104683633D01*
X135976414Y-104911273D01*
X135915385Y-105152268D01*
X135894859Y-105399996D01*
X135894859Y-105400003D01*
X124900500Y-105400003D01*
X124900500Y-102404266D01*
X126449500Y-102404266D01*
X126452354Y-102434699D01*
X126452354Y-102434701D01*
X126452355Y-102434704D01*
X126497206Y-102562881D01*
X126497207Y-102562883D01*
X126577846Y-102672146D01*
X126577853Y-102672153D01*
X126687116Y-102752792D01*
X126687118Y-102752793D01*
X126815295Y-102797644D01*
X126815301Y-102797646D01*
X126845734Y-102800500D01*
X126845741Y-102800500D01*
X128154258Y-102800500D01*
X128154266Y-102800500D01*
X128184699Y-102797646D01*
X128312882Y-102752793D01*
X128422150Y-102672150D01*
X128502793Y-102562882D01*
X128547646Y-102434699D01*
X128550500Y-102404266D01*
X128550500Y-102124806D01*
X128572174Y-102072480D01*
X128624500Y-102050806D01*
X128676826Y-102072480D01*
X128694878Y-102101939D01*
X128748904Y-102268217D01*
X128748906Y-102268221D01*
X128845375Y-102457550D01*
X128845378Y-102457556D01*
X128970274Y-102629461D01*
X128970283Y-102629471D01*
X129120529Y-102779717D01*
X129120538Y-102779725D01*
X129292443Y-102904621D01*
X129292449Y-102904624D01*
X129481778Y-103001093D01*
X129481782Y-103001095D01*
X129624999Y-103047628D01*
X129625000Y-103047628D01*
X129625000Y-101932106D01*
X129692993Y-102000099D01*
X129807007Y-102065925D01*
X129934174Y-102100000D01*
X130065826Y-102100000D01*
X130192993Y-102065925D01*
X130307007Y-102000099D01*
X130332106Y-101975000D01*
X130375000Y-101975000D01*
X130375000Y-103047628D01*
X130518217Y-103001095D01*
X130518221Y-103001093D01*
X130707550Y-102904624D01*
X130707556Y-102904621D01*
X130879461Y-102779725D01*
X130879471Y-102779717D01*
X131029717Y-102629471D01*
X131029725Y-102629461D01*
X131154621Y-102457556D01*
X131154624Y-102457550D01*
X131251093Y-102268221D01*
X131251095Y-102268217D01*
X131316755Y-102066136D01*
X131316758Y-102066123D01*
X131331191Y-101975001D01*
X131331190Y-101975000D01*
X130375000Y-101975000D01*
X130332106Y-101975000D01*
X130400099Y-101907007D01*
X130465925Y-101792993D01*
X130500000Y-101665826D01*
X130500000Y-101534174D01*
X130465925Y-101407007D01*
X130400099Y-101292993D01*
X130307007Y-101199901D01*
X130192993Y-101134075D01*
X130065826Y-101100000D01*
X129934174Y-101100000D01*
X129807007Y-101134075D01*
X129692993Y-101199901D01*
X129625000Y-101267894D01*
X129625000Y-100152370D01*
X130375000Y-100152370D01*
X130375000Y-101225000D01*
X131331190Y-101225000D01*
X131331191Y-101224998D01*
X131316758Y-101133876D01*
X131316755Y-101133863D01*
X131251095Y-100931782D01*
X131251093Y-100931778D01*
X131234903Y-100900003D01*
X136194357Y-100900003D01*
X136214883Y-101121524D01*
X136214885Y-101121537D01*
X136263668Y-101292993D01*
X136275771Y-101335528D01*
X136311364Y-101407007D01*
X136374942Y-101534690D01*
X136374944Y-101534693D01*
X136473972Y-101665826D01*
X136509019Y-101712236D01*
X136673438Y-101862124D01*
X136862599Y-101979247D01*
X137015427Y-102038453D01*
X137066954Y-102058415D01*
X137070060Y-102059618D01*
X137288757Y-102100500D01*
X137511243Y-102100500D01*
X137729940Y-102059618D01*
X137937401Y-101979247D01*
X138126562Y-101862124D01*
X138290981Y-101712236D01*
X138425058Y-101534689D01*
X138524229Y-101335528D01*
X138585115Y-101121536D01*
X138602698Y-100931782D01*
X138605643Y-100900003D01*
X138605643Y-100899996D01*
X138590014Y-100731328D01*
X138606767Y-100677225D01*
X138656870Y-100650816D01*
X138663698Y-100650500D01*
X142636302Y-100650500D01*
X142688628Y-100672174D01*
X142710302Y-100724500D01*
X142709986Y-100731328D01*
X142694357Y-100899996D01*
X142694357Y-100900003D01*
X142714883Y-101121524D01*
X142714885Y-101121537D01*
X142763668Y-101292993D01*
X142775771Y-101335528D01*
X142811364Y-101407007D01*
X142874942Y-101534690D01*
X142874944Y-101534693D01*
X142973972Y-101665826D01*
X143009019Y-101712236D01*
X143173438Y-101862124D01*
X143362599Y-101979247D01*
X143515427Y-102038453D01*
X143566954Y-102058415D01*
X143570060Y-102059618D01*
X143788757Y-102100500D01*
X144011243Y-102100500D01*
X144229940Y-102059618D01*
X144437401Y-101979247D01*
X144626562Y-101862124D01*
X144790981Y-101712236D01*
X144916447Y-101546092D01*
X144965276Y-101517397D01*
X145020095Y-101531634D01*
X145048790Y-101580463D01*
X145049500Y-101590687D01*
X145049500Y-104573401D01*
X145027826Y-104625727D01*
X144423787Y-105229765D01*
X144412518Y-105187708D01*
X144340110Y-105062292D01*
X144237708Y-104959890D01*
X144112292Y-104887482D01*
X144070232Y-104876212D01*
X144770056Y-104176389D01*
X144770056Y-104176388D01*
X144723237Y-104139947D01*
X144504609Y-104021632D01*
X144269486Y-103940915D01*
X144024296Y-103900000D01*
X143775703Y-103900000D01*
X143530513Y-103940915D01*
X143295390Y-104021632D01*
X143076774Y-104139941D01*
X143076757Y-104139952D01*
X143029942Y-104176388D01*
X143029942Y-104176389D01*
X143729765Y-104876212D01*
X143687708Y-104887482D01*
X143562292Y-104959890D01*
X143459890Y-105062292D01*
X143387482Y-105187708D01*
X143376212Y-105229765D01*
X142676563Y-104530116D01*
X142576266Y-104683633D01*
X142476414Y-104911273D01*
X142415385Y-105152268D01*
X142394859Y-105399996D01*
X142394859Y-105400003D01*
X142415385Y-105647731D01*
X142476414Y-105888726D01*
X142576266Y-106116366D01*
X142676563Y-106269882D01*
X143376212Y-105570232D01*
X143387482Y-105612292D01*
X143459890Y-105737708D01*
X143562292Y-105840110D01*
X143687708Y-105912518D01*
X143729765Y-105923787D01*
X143029941Y-106623610D01*
X143076763Y-106660052D01*
X143276613Y-106768205D01*
X143312317Y-106812171D01*
X143306474Y-106868506D01*
X143281401Y-106895539D01*
X143168872Y-106967857D01*
X143168868Y-106967860D01*
X143074623Y-107076626D01*
X143014834Y-107207545D01*
X142994353Y-107350000D01*
X143014834Y-107492454D01*
X143014834Y-107492455D01*
X143014835Y-107492457D01*
X143074623Y-107623373D01*
X143168868Y-107732139D01*
X143168869Y-107732140D01*
X143168872Y-107732143D01*
X143227468Y-107769800D01*
X143289313Y-107809546D01*
X143289947Y-107809953D01*
X143358617Y-107830116D01*
X143428035Y-107850499D01*
X143428037Y-107850500D01*
X143428039Y-107850500D01*
X143571963Y-107850500D01*
X143571964Y-107850499D01*
X143710053Y-107809953D01*
X143710060Y-107809948D01*
X143714870Y-107807753D01*
X143715688Y-107809546D01*
X143746490Y-107800500D01*
X144259309Y-107800500D01*
X144349673Y-107776286D01*
X144349674Y-107776286D01*
X144360350Y-107773425D01*
X144373887Y-107769799D01*
X144476614Y-107710489D01*
X145860490Y-106326614D01*
X145919799Y-106223886D01*
X145950499Y-106109311D01*
X145950500Y-106109311D01*
X145950500Y-104006107D01*
X145972174Y-103953781D01*
X146024500Y-103932107D01*
X146064507Y-103943854D01*
X146094763Y-103963299D01*
X146201219Y-103994557D01*
X146232851Y-104003845D01*
X146232853Y-104003846D01*
X146349693Y-104003846D01*
X146402019Y-104025520D01*
X146816959Y-104440460D01*
X146885482Y-104480022D01*
X146961908Y-104500500D01*
X147041032Y-104500500D01*
X153281470Y-104500500D01*
X153333796Y-104522174D01*
X153352644Y-104554248D01*
X153375771Y-104635528D01*
X153425356Y-104735108D01*
X153474942Y-104834690D01*
X153474944Y-104834693D01*
X153553913Y-104939264D01*
X153609019Y-105012236D01*
X153773438Y-105162124D01*
X153962599Y-105279247D01*
X154170060Y-105359618D01*
X154388757Y-105400500D01*
X154611243Y-105400500D01*
X154829940Y-105359618D01*
X155037401Y-105279247D01*
X155226562Y-105162124D01*
X155390981Y-105012236D01*
X155525058Y-104834689D01*
X155624229Y-104635528D01*
X155647355Y-104554248D01*
X155682521Y-104509852D01*
X155718530Y-104500500D01*
X159781470Y-104500500D01*
X159833796Y-104522174D01*
X159852644Y-104554248D01*
X159875771Y-104635528D01*
X159925356Y-104735108D01*
X159974942Y-104834690D01*
X159974944Y-104834693D01*
X160053913Y-104939264D01*
X160109019Y-105012236D01*
X160273438Y-105162124D01*
X160462599Y-105279247D01*
X160670060Y-105359618D01*
X160888757Y-105400500D01*
X161111243Y-105400500D01*
X161329940Y-105359618D01*
X161537401Y-105279247D01*
X161726562Y-105162124D01*
X161890981Y-105012236D01*
X162025058Y-104834689D01*
X162124229Y-104635528D01*
X162154322Y-104529761D01*
X162189488Y-104485365D01*
X162245748Y-104478838D01*
X162290145Y-104514004D01*
X162299497Y-104550013D01*
X162299497Y-107755933D01*
X162277823Y-107808259D01*
X162225497Y-107829933D01*
X162223711Y-107829840D01*
X161523787Y-108529764D01*
X161512518Y-108487708D01*
X161440110Y-108362292D01*
X161337708Y-108259890D01*
X161212292Y-108187482D01*
X161170232Y-108176212D01*
X161870056Y-107476389D01*
X161870056Y-107476388D01*
X161823237Y-107439947D01*
X161604609Y-107321632D01*
X161369486Y-107240915D01*
X161124296Y-107200000D01*
X160875703Y-107200000D01*
X160630513Y-107240915D01*
X160395390Y-107321632D01*
X160176774Y-107439941D01*
X160176757Y-107439952D01*
X160129942Y-107476388D01*
X160129942Y-107476389D01*
X160829765Y-108176212D01*
X160787708Y-108187482D01*
X160662292Y-108259890D01*
X160559890Y-108362292D01*
X160487482Y-108487708D01*
X160476212Y-108529765D01*
X159776563Y-107830116D01*
X159676266Y-107983633D01*
X159576414Y-108211273D01*
X159515385Y-108452268D01*
X159494859Y-108699996D01*
X159494859Y-108700003D01*
X159515385Y-108947731D01*
X159576414Y-109188726D01*
X159676266Y-109416366D01*
X159776563Y-109569882D01*
X160476212Y-108870232D01*
X160487482Y-108912292D01*
X160559890Y-109037708D01*
X160662292Y-109140110D01*
X160787708Y-109212518D01*
X160829765Y-109223787D01*
X160129941Y-109923610D01*
X160176763Y-109960052D01*
X160395390Y-110078367D01*
X160630513Y-110159084D01*
X160875703Y-110199999D01*
X160875706Y-110200000D01*
X161124294Y-110200000D01*
X161124296Y-110199999D01*
X161369486Y-110159084D01*
X161604609Y-110078367D01*
X161823236Y-109960052D01*
X161870056Y-109923610D01*
X161870057Y-109923610D01*
X161170234Y-109223787D01*
X161212292Y-109212518D01*
X161337708Y-109140110D01*
X161440110Y-109037708D01*
X161512518Y-108912292D01*
X161523787Y-108870234D01*
X162226619Y-109573066D01*
X162272145Y-109586620D01*
X162299102Y-109636431D01*
X162299497Y-109644065D01*
X162299497Y-110094880D01*
X162277823Y-110147206D01*
X161497203Y-110927826D01*
X161444877Y-110949500D01*
X145760436Y-110949500D01*
X145684014Y-110969977D01*
X145684009Y-110969979D01*
X145615488Y-111009540D01*
X144821172Y-111803856D01*
X144768846Y-111825530D01*
X144652006Y-111825530D01*
X144513919Y-111866076D01*
X144513915Y-111866077D01*
X144392845Y-111943885D01*
X144392838Y-111943890D01*
X144298593Y-112052656D01*
X144238804Y-112183575D01*
X144218323Y-112326030D01*
X144238804Y-112468484D01*
X144298593Y-112599403D01*
X144392838Y-112708169D01*
X144392839Y-112708170D01*
X144392842Y-112708173D01*
X144513917Y-112785983D01*
X144620373Y-112817241D01*
X144652005Y-112826529D01*
X144652007Y-112826530D01*
X144652009Y-112826530D01*
X144795933Y-112826530D01*
X144795934Y-112826529D01*
X144934023Y-112785983D01*
X145055098Y-112708173D01*
X145149347Y-112599403D01*
X145209135Y-112468487D01*
X145229617Y-112326030D01*
X145224746Y-112292158D01*
X145238752Y-112237283D01*
X145245660Y-112229309D01*
X145902797Y-111572174D01*
X145955123Y-111550500D01*
X161639564Y-111550500D01*
X161639564Y-111550499D01*
X161715989Y-111530021D01*
X161784511Y-111490460D01*
X161840460Y-111434511D01*
X162840457Y-110434514D01*
X162880018Y-110365992D01*
X162900496Y-110289567D01*
X162900497Y-110289567D01*
X162900497Y-97142234D01*
X162922171Y-97089908D01*
X162927277Y-97085793D01*
X162927121Y-97085613D01*
X162931123Y-97082144D01*
X162931122Y-97082144D01*
X162931125Y-97082143D01*
X162944072Y-97067200D01*
X162994716Y-97041848D01*
X163048456Y-97059732D01*
X163055916Y-97067191D01*
X163068872Y-97082143D01*
X163068874Y-97082144D01*
X163072873Y-97085609D01*
X163070948Y-97087829D01*
X163097803Y-97126476D01*
X163099500Y-97142233D01*
X163099500Y-110794877D01*
X163077826Y-110847203D01*
X161797203Y-112127826D01*
X161744877Y-112149500D01*
X146464292Y-112149500D01*
X146424285Y-112137753D01*
X146350054Y-112090047D01*
X146350050Y-112090046D01*
X146211964Y-112049500D01*
X146211961Y-112049500D01*
X146068039Y-112049500D01*
X146068036Y-112049500D01*
X145929949Y-112090046D01*
X145929945Y-112090047D01*
X145808875Y-112167855D01*
X145808868Y-112167860D01*
X145714623Y-112276626D01*
X145654834Y-112407545D01*
X145634353Y-112550000D01*
X145654834Y-112692454D01*
X145654834Y-112692455D01*
X145654835Y-112692457D01*
X145662013Y-112708174D01*
X145714623Y-112823373D01*
X145808868Y-112932139D01*
X145808869Y-112932140D01*
X145808872Y-112932143D01*
X145929947Y-113009953D01*
X146036403Y-113041211D01*
X146068035Y-113050499D01*
X146068037Y-113050500D01*
X146068039Y-113050500D01*
X146211963Y-113050500D01*
X146211964Y-113050499D01*
X146350053Y-113009953D01*
X146471128Y-112932143D01*
X146565377Y-112823373D01*
X146578901Y-112793758D01*
X146620354Y-112755166D01*
X146646214Y-112750500D01*
X161939564Y-112750500D01*
X161939564Y-112750499D01*
X162015989Y-112730021D01*
X162084511Y-112690460D01*
X162140460Y-112634511D01*
X163640460Y-111134511D01*
X163640749Y-111134011D01*
X163680021Y-111065989D01*
X163700499Y-110989564D01*
X163700500Y-110989564D01*
X163700500Y-110754266D01*
X171149500Y-110754266D01*
X171152354Y-110784699D01*
X171152354Y-110784701D01*
X171152355Y-110784704D01*
X171197206Y-110912881D01*
X171197207Y-110912883D01*
X171277846Y-111022146D01*
X171277853Y-111022153D01*
X171387116Y-111102792D01*
X171387118Y-111102793D01*
X171515295Y-111147644D01*
X171515301Y-111147646D01*
X171545734Y-111150500D01*
X171545741Y-111150500D01*
X173154258Y-111150500D01*
X173154266Y-111150500D01*
X173184699Y-111147646D01*
X173312882Y-111102793D01*
X173422150Y-111022150D01*
X173502793Y-110912882D01*
X173547646Y-110784699D01*
X173550500Y-110754266D01*
X173550500Y-109445734D01*
X173547646Y-109415301D01*
X173502793Y-109287118D01*
X173475399Y-109250000D01*
X173422153Y-109177853D01*
X173422146Y-109177846D01*
X173312883Y-109097207D01*
X173312881Y-109097206D01*
X173184704Y-109052355D01*
X173184705Y-109052355D01*
X173184700Y-109052354D01*
X173184699Y-109052354D01*
X173154266Y-109049500D01*
X171545734Y-109049500D01*
X171515301Y-109052354D01*
X171515299Y-109052354D01*
X171515295Y-109052355D01*
X171387118Y-109097206D01*
X171387116Y-109097207D01*
X171277853Y-109177846D01*
X171277846Y-109177853D01*
X171197207Y-109287116D01*
X171197206Y-109287118D01*
X171152355Y-109415295D01*
X171152354Y-109415299D01*
X171152354Y-109415301D01*
X171149500Y-109445734D01*
X171149500Y-110754266D01*
X163700500Y-110754266D01*
X163700500Y-107703464D01*
X171149500Y-107703464D01*
X171189868Y-107906413D01*
X171189870Y-107906420D01*
X171269059Y-108097598D01*
X171345013Y-108211273D01*
X171384023Y-108269655D01*
X171530345Y-108415977D01*
X171702402Y-108530941D01*
X171893580Y-108610130D01*
X172096535Y-108650500D01*
X172096536Y-108650500D01*
X172603464Y-108650500D01*
X172603465Y-108650500D01*
X172806420Y-108610130D01*
X172997598Y-108530941D01*
X173169655Y-108415977D01*
X173315977Y-108269655D01*
X173430941Y-108097598D01*
X173510130Y-107906420D01*
X173550500Y-107703465D01*
X173550500Y-107496535D01*
X173510130Y-107293580D01*
X173430941Y-107102402D01*
X173315977Y-106930345D01*
X173169655Y-106784023D01*
X173161190Y-106778367D01*
X172997598Y-106669059D01*
X172806420Y-106589870D01*
X172806413Y-106589868D01*
X172653516Y-106559455D01*
X172603465Y-106549500D01*
X172096535Y-106549500D01*
X172056385Y-106557486D01*
X171893586Y-106589868D01*
X171893579Y-106589870D01*
X171702401Y-106669059D01*
X171530345Y-106784022D01*
X171530344Y-106784024D01*
X171384024Y-106930344D01*
X171384022Y-106930345D01*
X171269059Y-107102401D01*
X171189870Y-107293579D01*
X171189868Y-107293586D01*
X171149500Y-107496535D01*
X171149500Y-107703464D01*
X163700500Y-107703464D01*
X163700500Y-104991590D01*
X163722174Y-104939264D01*
X163774500Y-104917590D01*
X163814508Y-104929337D01*
X163818869Y-104932139D01*
X163818872Y-104932143D01*
X163939947Y-105009953D01*
X164046403Y-105041211D01*
X164078035Y-105050499D01*
X164078037Y-105050500D01*
X164194877Y-105050500D01*
X164247203Y-105072174D01*
X164265489Y-105090460D01*
X164334011Y-105130021D01*
X164334012Y-105130021D01*
X164334014Y-105130022D01*
X164372224Y-105140260D01*
X164410435Y-105150499D01*
X164410436Y-105150500D01*
X164410438Y-105150500D01*
X166764333Y-105150500D01*
X166816659Y-105172174D01*
X166820259Y-105176041D01*
X166868868Y-105232139D01*
X166868871Y-105232142D01*
X166868872Y-105232143D01*
X166989947Y-105309953D01*
X167096403Y-105341211D01*
X167128035Y-105350499D01*
X167128037Y-105350500D01*
X167128039Y-105350500D01*
X167271963Y-105350500D01*
X167271964Y-105350499D01*
X167410053Y-105309953D01*
X167531128Y-105232143D01*
X167625377Y-105123373D01*
X167685165Y-104992457D01*
X167705647Y-104850000D01*
X167685165Y-104707543D01*
X167625377Y-104576627D01*
X167541669Y-104480022D01*
X167531131Y-104467860D01*
X167531129Y-104467859D01*
X167531128Y-104467857D01*
X167459051Y-104421536D01*
X167410054Y-104390047D01*
X167410050Y-104390046D01*
X167271964Y-104349500D01*
X167271961Y-104349500D01*
X167128039Y-104349500D01*
X167128036Y-104349500D01*
X166989949Y-104390046D01*
X166989945Y-104390047D01*
X166868871Y-104467857D01*
X166868868Y-104467860D01*
X166820259Y-104523959D01*
X166769612Y-104549311D01*
X166764333Y-104549500D01*
X164719697Y-104549500D01*
X164667371Y-104527826D01*
X164646450Y-104486031D01*
X164635165Y-104407545D01*
X164635165Y-104407543D01*
X164575377Y-104276627D01*
X164481128Y-104167857D01*
X164388625Y-104108409D01*
X164360054Y-104090047D01*
X164360050Y-104090046D01*
X164221964Y-104049500D01*
X164221961Y-104049500D01*
X164078039Y-104049500D01*
X164078036Y-104049500D01*
X163939949Y-104090046D01*
X163939945Y-104090047D01*
X163814507Y-104170662D01*
X163758770Y-104180718D01*
X163712247Y-104148416D01*
X163700500Y-104108409D01*
X163700500Y-102354266D01*
X171149500Y-102354266D01*
X171152354Y-102384699D01*
X171152354Y-102384701D01*
X171152355Y-102384704D01*
X171197206Y-102512881D01*
X171197207Y-102512883D01*
X171277846Y-102622146D01*
X171277853Y-102622153D01*
X171387116Y-102702792D01*
X171387118Y-102702793D01*
X171515295Y-102747644D01*
X171515301Y-102747646D01*
X171545734Y-102750500D01*
X171545741Y-102750500D01*
X173154258Y-102750500D01*
X173154266Y-102750500D01*
X173184699Y-102747646D01*
X173312882Y-102702793D01*
X173422150Y-102622150D01*
X173502793Y-102512882D01*
X173547646Y-102384699D01*
X173550500Y-102354266D01*
X173550500Y-101045734D01*
X173547646Y-101015301D01*
X173502793Y-100887118D01*
X173502792Y-100887116D01*
X173422153Y-100777853D01*
X173422146Y-100777846D01*
X173312883Y-100697207D01*
X173312881Y-100697206D01*
X173184704Y-100652355D01*
X173184705Y-100652355D01*
X173184700Y-100652354D01*
X173184699Y-100652354D01*
X173154266Y-100649500D01*
X171545734Y-100649500D01*
X171515301Y-100652354D01*
X171515299Y-100652354D01*
X171515295Y-100652355D01*
X171387118Y-100697206D01*
X171387116Y-100697207D01*
X171277853Y-100777846D01*
X171277846Y-100777853D01*
X171197207Y-100887116D01*
X171197206Y-100887118D01*
X171152355Y-101015295D01*
X171152354Y-101015299D01*
X171152354Y-101015301D01*
X171149500Y-101045734D01*
X171149500Y-102354266D01*
X163700500Y-102354266D01*
X163700500Y-101528039D01*
X164293372Y-101528039D01*
X164313853Y-101670493D01*
X164313853Y-101670494D01*
X164313854Y-101670496D01*
X164332916Y-101712236D01*
X164373642Y-101801412D01*
X164467887Y-101910178D01*
X164467888Y-101910179D01*
X164467891Y-101910182D01*
X164560493Y-101969693D01*
X164568751Y-101975001D01*
X164588966Y-101987992D01*
X164668541Y-102011357D01*
X164727054Y-102028538D01*
X164727056Y-102028539D01*
X164861810Y-102028539D01*
X164898809Y-102038452D01*
X164933385Y-102058415D01*
X164933386Y-102058415D01*
X164933388Y-102058416D01*
X164971598Y-102068654D01*
X165009809Y-102078893D01*
X165009810Y-102078894D01*
X165009812Y-102078894D01*
X168199349Y-102078894D01*
X168251675Y-102100568D01*
X168255275Y-102104435D01*
X168268868Y-102120123D01*
X168268869Y-102120124D01*
X168268872Y-102120127D01*
X168389947Y-102197937D01*
X168496403Y-102229195D01*
X168528035Y-102238483D01*
X168528037Y-102238484D01*
X168528039Y-102238484D01*
X168671963Y-102238484D01*
X168671964Y-102238483D01*
X168810053Y-102197937D01*
X168931128Y-102120127D01*
X169025377Y-102011357D01*
X169085165Y-101880441D01*
X169105647Y-101737984D01*
X169085165Y-101595527D01*
X169025377Y-101464611D01*
X168958745Y-101387713D01*
X168931131Y-101355844D01*
X168931129Y-101355843D01*
X168931128Y-101355841D01*
X168874182Y-101319244D01*
X168810054Y-101278031D01*
X168810050Y-101278030D01*
X168671964Y-101237484D01*
X168671961Y-101237484D01*
X168528039Y-101237484D01*
X168528036Y-101237484D01*
X168389949Y-101278030D01*
X168389945Y-101278031D01*
X168268875Y-101355839D01*
X168268872Y-101355841D01*
X168185753Y-101451767D01*
X168185244Y-101452354D01*
X168134597Y-101477705D01*
X168129318Y-101477894D01*
X167128592Y-101477894D01*
X167076266Y-101456220D01*
X167054592Y-101403894D01*
X167061279Y-101373153D01*
X167085165Y-101320851D01*
X167105647Y-101178394D01*
X167085165Y-101035937D01*
X167025377Y-100905021D01*
X166931128Y-100796251D01*
X166870897Y-100757543D01*
X166810054Y-100718441D01*
X166810050Y-100718440D01*
X166671964Y-100677894D01*
X166671961Y-100677894D01*
X166528039Y-100677894D01*
X166528036Y-100677894D01*
X166389949Y-100718440D01*
X166389945Y-100718441D01*
X166268871Y-100796251D01*
X166268868Y-100796254D01*
X166220259Y-100852353D01*
X166169612Y-100877705D01*
X166164333Y-100877894D01*
X165966591Y-100877894D01*
X165914265Y-100856220D01*
X165893344Y-100814426D01*
X165886280Y-100765301D01*
X165885165Y-100757543D01*
X165825377Y-100626627D01*
X165739787Y-100527850D01*
X165731131Y-100517860D01*
X165731129Y-100517859D01*
X165731128Y-100517857D01*
X165648067Y-100464477D01*
X165610054Y-100440047D01*
X165610050Y-100440046D01*
X165471964Y-100399500D01*
X165471961Y-100399500D01*
X165328039Y-100399500D01*
X165328036Y-100399500D01*
X165189949Y-100440046D01*
X165189945Y-100440047D01*
X165068875Y-100517855D01*
X165068868Y-100517860D01*
X164974623Y-100626626D01*
X164914834Y-100757545D01*
X164894353Y-100899999D01*
X164894353Y-100900000D01*
X164900536Y-100943009D01*
X164886530Y-100997885D01*
X164837821Y-101026786D01*
X164827290Y-101027539D01*
X164727055Y-101027539D01*
X164588968Y-101068085D01*
X164588964Y-101068086D01*
X164467894Y-101145894D01*
X164467887Y-101145899D01*
X164373642Y-101254665D01*
X164313853Y-101385584D01*
X164293372Y-101528039D01*
X163700500Y-101528039D01*
X163700500Y-99891590D01*
X163722174Y-99839264D01*
X163774500Y-99817590D01*
X163814508Y-99829337D01*
X163818869Y-99832139D01*
X163818872Y-99832143D01*
X163939947Y-99909953D01*
X164035045Y-99937876D01*
X164078035Y-99950499D01*
X164078037Y-99950500D01*
X164078039Y-99950500D01*
X164221963Y-99950500D01*
X164221964Y-99950499D01*
X164360053Y-99909953D01*
X164481128Y-99832143D01*
X164529741Y-99776041D01*
X164580388Y-99750689D01*
X164585667Y-99750500D01*
X166324333Y-99750500D01*
X166376659Y-99772174D01*
X166380259Y-99776041D01*
X166428868Y-99832139D01*
X166428871Y-99832142D01*
X166428872Y-99832143D01*
X166428874Y-99832144D01*
X166521373Y-99891590D01*
X166549947Y-99909953D01*
X166645045Y-99937876D01*
X166688035Y-99950499D01*
X166688037Y-99950500D01*
X166688039Y-99950500D01*
X166831963Y-99950500D01*
X166831964Y-99950499D01*
X166970053Y-99909953D01*
X167091128Y-99832143D01*
X167185377Y-99723373D01*
X167245165Y-99592457D01*
X167265647Y-99450000D01*
X167245165Y-99307543D01*
X167243302Y-99303464D01*
X171149500Y-99303464D01*
X171189868Y-99506413D01*
X171189870Y-99506420D01*
X171269059Y-99697598D01*
X171363716Y-99839264D01*
X171384023Y-99869655D01*
X171530345Y-100015977D01*
X171702402Y-100130941D01*
X171893580Y-100210130D01*
X172096535Y-100250500D01*
X172096536Y-100250500D01*
X172603464Y-100250500D01*
X172603465Y-100250500D01*
X172806420Y-100210130D01*
X172997598Y-100130941D01*
X173169655Y-100015977D01*
X173315977Y-99869655D01*
X173430941Y-99697598D01*
X173510130Y-99506420D01*
X173550500Y-99303465D01*
X173550500Y-99096535D01*
X173510130Y-98893580D01*
X173430941Y-98702402D01*
X173315977Y-98530345D01*
X173169655Y-98384023D01*
X172997598Y-98269059D01*
X172806420Y-98189870D01*
X172806413Y-98189868D01*
X172653516Y-98159455D01*
X172603465Y-98149500D01*
X172096535Y-98149500D01*
X172056385Y-98157486D01*
X171893586Y-98189868D01*
X171893579Y-98189870D01*
X171702401Y-98269059D01*
X171530345Y-98384022D01*
X171530344Y-98384024D01*
X171384024Y-98530344D01*
X171384022Y-98530345D01*
X171269059Y-98702401D01*
X171189870Y-98893579D01*
X171189868Y-98893586D01*
X171149500Y-99096535D01*
X171149500Y-99303464D01*
X167243302Y-99303464D01*
X167185377Y-99176627D01*
X167139740Y-99123959D01*
X167091131Y-99067860D01*
X167091129Y-99067859D01*
X167091128Y-99067857D01*
X166998625Y-99008409D01*
X166970054Y-98990047D01*
X166970050Y-98990046D01*
X166831964Y-98949500D01*
X166831961Y-98949500D01*
X166688039Y-98949500D01*
X166688036Y-98949500D01*
X166549949Y-98990046D01*
X166549945Y-98990047D01*
X166428871Y-99067857D01*
X166428868Y-99067860D01*
X166380259Y-99123959D01*
X166329612Y-99149311D01*
X166324333Y-99149500D01*
X164585667Y-99149500D01*
X164533341Y-99127826D01*
X164529741Y-99123959D01*
X164481131Y-99067860D01*
X164481128Y-99067857D01*
X164360054Y-98990047D01*
X164360050Y-98990046D01*
X164221964Y-98949500D01*
X164221961Y-98949500D01*
X164078039Y-98949500D01*
X164078036Y-98949500D01*
X163939949Y-98990046D01*
X163939945Y-98990047D01*
X163814507Y-99070662D01*
X163758770Y-99080718D01*
X163712247Y-99048416D01*
X163700500Y-99008409D01*
X163700500Y-97142233D01*
X163722174Y-97089907D01*
X163727288Y-97085787D01*
X163727131Y-97085606D01*
X163731131Y-97082140D01*
X163758082Y-97051035D01*
X163825377Y-96973373D01*
X163885165Y-96842457D01*
X163905647Y-96700000D01*
X163885165Y-96557543D01*
X163825377Y-96426627D01*
X163744077Y-96332801D01*
X163731131Y-96317860D01*
X163731129Y-96317859D01*
X163731128Y-96317857D01*
X163674182Y-96281260D01*
X163610054Y-96240047D01*
X163610050Y-96240046D01*
X163471964Y-96199500D01*
X163471961Y-96199500D01*
X163328039Y-96199500D01*
X163328036Y-96199500D01*
X163189949Y-96240046D01*
X163189945Y-96240047D01*
X163068871Y-96317857D01*
X163068869Y-96317859D01*
X163055921Y-96332801D01*
X163005273Y-96358151D01*
X162951536Y-96340262D01*
X162944072Y-96332798D01*
X162931128Y-96317859D01*
X162931125Y-96317857D01*
X162810051Y-96240047D01*
X162810047Y-96240046D01*
X162671961Y-96199500D01*
X162671958Y-96199500D01*
X162528036Y-96199500D01*
X162528033Y-96199500D01*
X162389946Y-96240046D01*
X162389942Y-96240047D01*
X162268872Y-96317855D01*
X162268865Y-96317860D01*
X162174620Y-96426626D01*
X162114831Y-96557545D01*
X162094350Y-96700000D01*
X162114831Y-96842454D01*
X162174620Y-96973373D01*
X162268865Y-97082140D01*
X162272866Y-97085606D01*
X162270943Y-97087825D01*
X162297800Y-97126476D01*
X162299497Y-97142233D01*
X162299497Y-103849986D01*
X162277823Y-103902312D01*
X162225497Y-103923986D01*
X162173171Y-103902312D01*
X162154322Y-103870237D01*
X162124230Y-103764477D01*
X162124229Y-103764472D01*
X162025058Y-103565311D01*
X162025057Y-103565310D01*
X162025057Y-103565309D01*
X162025055Y-103565306D01*
X161890983Y-103387767D01*
X161890981Y-103387764D01*
X161726562Y-103237876D01*
X161537401Y-103120753D01*
X161476168Y-103097031D01*
X161329942Y-103040382D01*
X161111246Y-102999500D01*
X161111243Y-102999500D01*
X160888757Y-102999500D01*
X160888753Y-102999500D01*
X160670057Y-103040382D01*
X160462604Y-103120751D01*
X160462599Y-103120753D01*
X160462594Y-103120755D01*
X160462594Y-103120756D01*
X160273440Y-103237874D01*
X160273438Y-103237876D01*
X160138500Y-103360889D01*
X160109016Y-103387767D01*
X159974944Y-103565306D01*
X159974942Y-103565309D01*
X159875771Y-103764472D01*
X159875769Y-103764477D01*
X159852645Y-103845751D01*
X159817479Y-103890148D01*
X159781470Y-103899500D01*
X155718530Y-103899500D01*
X155666204Y-103877826D01*
X155647355Y-103845751D01*
X155624230Y-103764477D01*
X155624229Y-103764472D01*
X155525058Y-103565311D01*
X155525057Y-103565310D01*
X155525057Y-103565309D01*
X155525055Y-103565306D01*
X155390983Y-103387767D01*
X155390981Y-103387764D01*
X155226562Y-103237876D01*
X155037401Y-103120753D01*
X154976168Y-103097031D01*
X154829942Y-103040382D01*
X154611246Y-102999500D01*
X154611243Y-102999500D01*
X154388757Y-102999500D01*
X154388753Y-102999500D01*
X154170057Y-103040382D01*
X153962604Y-103120751D01*
X153962599Y-103120753D01*
X153962594Y-103120755D01*
X153962594Y-103120756D01*
X153773440Y-103237874D01*
X153773438Y-103237876D01*
X153638500Y-103360889D01*
X153609016Y-103387767D01*
X153474944Y-103565306D01*
X153474942Y-103565309D01*
X153375771Y-103764472D01*
X153375769Y-103764477D01*
X153352645Y-103845751D01*
X153317479Y-103890148D01*
X153281470Y-103899500D01*
X147156593Y-103899500D01*
X147104267Y-103877826D01*
X146826513Y-103600072D01*
X146804839Y-103547746D01*
X146805593Y-103537212D01*
X146810463Y-103503348D01*
X146810463Y-103503347D01*
X146789981Y-103360891D01*
X146789981Y-103360889D01*
X146730193Y-103229973D01*
X146706630Y-103202780D01*
X146635947Y-103121206D01*
X146635945Y-103121205D01*
X146635944Y-103121203D01*
X146545125Y-103062837D01*
X146514870Y-103043393D01*
X146514866Y-103043392D01*
X146376780Y-103002846D01*
X146376777Y-103002846D01*
X146232855Y-103002846D01*
X146232852Y-103002846D01*
X146094765Y-103043392D01*
X146094761Y-103043394D01*
X146064507Y-103062837D01*
X146008769Y-103072893D01*
X145962247Y-103040591D01*
X145950500Y-103000584D01*
X145950500Y-98985541D01*
X145957187Y-98954802D01*
X145985165Y-98893541D01*
X146005647Y-98751084D01*
X145985165Y-98608627D01*
X145957187Y-98547363D01*
X145950500Y-98516623D01*
X145950500Y-92814457D01*
X145957187Y-92783718D01*
X145985165Y-92722457D01*
X146005647Y-92580000D01*
X145985165Y-92437543D01*
X145925377Y-92306627D01*
X145881430Y-92255909D01*
X145852879Y-92222959D01*
X145834994Y-92169220D01*
X145860346Y-92118574D01*
X145908805Y-92100500D01*
X166875638Y-92100500D01*
X166927964Y-92122174D01*
X167194092Y-92388302D01*
X167349770Y-92492323D01*
X167349775Y-92492325D01*
X167349774Y-92492325D01*
X167522745Y-92563971D01*
X167522750Y-92563973D01*
X167706383Y-92600500D01*
X167706385Y-92600500D01*
X167893615Y-92600500D01*
X167893617Y-92600500D01*
X168077250Y-92563973D01*
X168250231Y-92492323D01*
X168405909Y-92388302D01*
X168538302Y-92255909D01*
X168642323Y-92100231D01*
X168713973Y-91927250D01*
X168750500Y-91743617D01*
X168750500Y-91556383D01*
X168713973Y-91372750D01*
X168713971Y-91372745D01*
X168642325Y-91199774D01*
X168642324Y-91199772D01*
X168642323Y-91199770D01*
X168538302Y-91044092D01*
X167905908Y-90411698D01*
X167750230Y-90307677D01*
X167750229Y-90307676D01*
X167750227Y-90307675D01*
X167648901Y-90265705D01*
X167577255Y-90236028D01*
X167577245Y-90236025D01*
X167485433Y-90217763D01*
X167485433Y-90217762D01*
X167393617Y-90199500D01*
X167393616Y-90199500D01*
X140756384Y-90199500D01*
X140720056Y-90206725D01*
X140572755Y-90236025D01*
X140572748Y-90236027D01*
X140399772Y-90307676D01*
X140244092Y-90411697D01*
X140244091Y-90411699D01*
X140111699Y-90544091D01*
X140111697Y-90544092D01*
X140007676Y-90699772D01*
X139936027Y-90872748D01*
X139936025Y-90872755D01*
X139899500Y-91056384D01*
X139899500Y-91243615D01*
X139936025Y-91427244D01*
X139936027Y-91427251D01*
X140007678Y-91600231D01*
X140111698Y-91755908D01*
X140244092Y-91888302D01*
X140399769Y-91992322D01*
X140572749Y-92063973D01*
X140756384Y-92100500D01*
X145091195Y-92100500D01*
X145143521Y-92122174D01*
X145165195Y-92174500D01*
X145147121Y-92222959D01*
X145074623Y-92306626D01*
X145014834Y-92437545D01*
X144994353Y-92580000D01*
X145014834Y-92722456D01*
X145026502Y-92748005D01*
X145042812Y-92783718D01*
X145049500Y-92814457D01*
X145049500Y-98516623D01*
X145042813Y-98547363D01*
X145014834Y-98608627D01*
X144994353Y-98751084D01*
X145014834Y-98893540D01*
X145026502Y-98919089D01*
X145042812Y-98954802D01*
X145049500Y-98985541D01*
X145049500Y-100209312D01*
X145027826Y-100261638D01*
X144975500Y-100283312D01*
X144923174Y-100261638D01*
X144916447Y-100253907D01*
X144790983Y-100087767D01*
X144790981Y-100087764D01*
X144626562Y-99937876D01*
X144437401Y-99820753D01*
X144376168Y-99797031D01*
X144229942Y-99740382D01*
X144011246Y-99699500D01*
X144011243Y-99699500D01*
X143788757Y-99699500D01*
X143788753Y-99699500D01*
X143570057Y-99740382D01*
X143362604Y-99820751D01*
X143362599Y-99820753D01*
X143362594Y-99820755D01*
X143362594Y-99820756D01*
X143173440Y-99937874D01*
X143072178Y-100030187D01*
X143022325Y-100049500D01*
X138277675Y-100049500D01*
X138227822Y-100030187D01*
X138205226Y-100009588D01*
X138126562Y-99937876D01*
X137937401Y-99820753D01*
X137876168Y-99797031D01*
X137729942Y-99740382D01*
X137511246Y-99699500D01*
X137511243Y-99699500D01*
X137288757Y-99699500D01*
X137288753Y-99699500D01*
X137070057Y-99740382D01*
X136862604Y-99820751D01*
X136862599Y-99820753D01*
X136862594Y-99820755D01*
X136862594Y-99820756D01*
X136673440Y-99937874D01*
X136673438Y-99937876D01*
X136587766Y-100015977D01*
X136509016Y-100087767D01*
X136374944Y-100265306D01*
X136374942Y-100265309D01*
X136275771Y-100464472D01*
X136275769Y-100464477D01*
X136214885Y-100678462D01*
X136214883Y-100678475D01*
X136194357Y-100899996D01*
X136194357Y-100900003D01*
X131234903Y-100900003D01*
X131154624Y-100742449D01*
X131154621Y-100742443D01*
X131029725Y-100570538D01*
X131029717Y-100570529D01*
X130879471Y-100420283D01*
X130879461Y-100420274D01*
X130707556Y-100295378D01*
X130707550Y-100295375D01*
X130518221Y-100198906D01*
X130518216Y-100198904D01*
X130375000Y-100152370D01*
X129625000Y-100152370D01*
X129624999Y-100152370D01*
X129481783Y-100198904D01*
X129481778Y-100198906D01*
X129292449Y-100295375D01*
X129292443Y-100295378D01*
X129120538Y-100420274D01*
X128970274Y-100570538D01*
X128845378Y-100742443D01*
X128845375Y-100742449D01*
X128748906Y-100931778D01*
X128748904Y-100931782D01*
X128694878Y-101098060D01*
X128658095Y-101141127D01*
X128601633Y-101145571D01*
X128558566Y-101108788D01*
X128550500Y-101075193D01*
X128550500Y-100795740D01*
X128550500Y-100795734D01*
X128547646Y-100765301D01*
X128502793Y-100637118D01*
X128502792Y-100637116D01*
X128422153Y-100527853D01*
X128422146Y-100527846D01*
X128312883Y-100447207D01*
X128312881Y-100447206D01*
X128184704Y-100402355D01*
X128184705Y-100402355D01*
X128184700Y-100402354D01*
X128184699Y-100402354D01*
X128154266Y-100399500D01*
X126845734Y-100399500D01*
X126815301Y-100402354D01*
X126815299Y-100402354D01*
X126815295Y-100402355D01*
X126687118Y-100447206D01*
X126687116Y-100447207D01*
X126577853Y-100527846D01*
X126577846Y-100527853D01*
X126497207Y-100637116D01*
X126497206Y-100637118D01*
X126452355Y-100765295D01*
X126452354Y-100765299D01*
X126452354Y-100765301D01*
X126449500Y-100795734D01*
X126449500Y-102404266D01*
X124900500Y-102404266D01*
X124900500Y-97869746D01*
X126509500Y-97869746D01*
X126521133Y-97928232D01*
X126550608Y-97972343D01*
X126565448Y-97994552D01*
X126609560Y-98024027D01*
X126631767Y-98038866D01*
X126631768Y-98038866D01*
X126631769Y-98038867D01*
X126690252Y-98050500D01*
X126690254Y-98050500D01*
X128429746Y-98050500D01*
X128429748Y-98050500D01*
X128488231Y-98038867D01*
X128554552Y-97994552D01*
X128598867Y-97928231D01*
X128610500Y-97869748D01*
X128610500Y-97000000D01*
X129044417Y-97000000D01*
X129053067Y-97087829D01*
X129064700Y-97205934D01*
X129124768Y-97403954D01*
X129222315Y-97586450D01*
X129353590Y-97746410D01*
X129513550Y-97877685D01*
X129696046Y-97975232D01*
X129894066Y-98035300D01*
X130100000Y-98055583D01*
X130305934Y-98035300D01*
X130503954Y-97975232D01*
X130686450Y-97877685D01*
X130846410Y-97746410D01*
X130977685Y-97586450D01*
X131075232Y-97403954D01*
X131135300Y-97205934D01*
X131155583Y-97000000D01*
X131135300Y-96794066D01*
X131075232Y-96596046D01*
X130977685Y-96413550D01*
X130846410Y-96253590D01*
X130829906Y-96240046D01*
X130686450Y-96122315D01*
X130503956Y-96024769D01*
X130503955Y-96024768D01*
X130503954Y-96024768D01*
X130392158Y-95990855D01*
X130305935Y-95964700D01*
X130100000Y-95944417D01*
X129894064Y-95964700D01*
X129696043Y-96024769D01*
X129513549Y-96122315D01*
X129353590Y-96253589D01*
X129353589Y-96253590D01*
X129222315Y-96413549D01*
X129124769Y-96596043D01*
X129064700Y-96794064D01*
X129044417Y-97000000D01*
X128610500Y-97000000D01*
X128610500Y-96130252D01*
X128598867Y-96071769D01*
X128554552Y-96005448D01*
X128532343Y-95990608D01*
X128488232Y-95961133D01*
X128488233Y-95961133D01*
X128458989Y-95955316D01*
X128429748Y-95949500D01*
X126690252Y-95949500D01*
X126661010Y-95955316D01*
X126631767Y-95961133D01*
X126565449Y-96005447D01*
X126565447Y-96005449D01*
X126521133Y-96071767D01*
X126509500Y-96130253D01*
X126509500Y-97869746D01*
X124900500Y-97869746D01*
X124900500Y-92101945D01*
X124900601Y-92098072D01*
X124917824Y-91769430D01*
X124918634Y-91761727D01*
X124919556Y-91755907D01*
X124969811Y-91438611D01*
X124971416Y-91431056D01*
X125056096Y-91115024D01*
X125058481Y-91107689D01*
X125175728Y-90802246D01*
X125178866Y-90795201D01*
X125327392Y-90503703D01*
X125331255Y-90497011D01*
X125509443Y-90222624D01*
X125513981Y-90216378D01*
X125719877Y-89962118D01*
X125725041Y-89956383D01*
X125956383Y-89725041D01*
X125962118Y-89719877D01*
X126216378Y-89513981D01*
X126222624Y-89509443D01*
X126497011Y-89331255D01*
X126503703Y-89327392D01*
X126795201Y-89178866D01*
X126802246Y-89175728D01*
X127107689Y-89058481D01*
X127115024Y-89056096D01*
X127431056Y-88971416D01*
X127438611Y-88969811D01*
X127761731Y-88918633D01*
X127769425Y-88917824D01*
X128098073Y-88900601D01*
X128101946Y-88900500D01*
X128157583Y-88900500D01*
X147426000Y-88900500D01*
X147478326Y-88922174D01*
G37*
%TD.AperFunction*%
%TD*%
M02*
